<svg width="608" height="414" viewBox="0 0 608 414" fill="none" xmlns="http://www.w3.org/2000/svg">
<g filter="url(#filter0_d)">
<rect x="133" y="36" width="342" height="342" rx="8" fill="white"/>
<rect x="133.5" y="36.5" width="341" height="341" rx="7.5" stroke="#F0F4F7"/>
</g>
<g filter="url(#filter1_d)">
<rect x="60" y="96" width="488" height="252" rx="8" fill="white"/>
</g>
<rect x="422" y="120" width="96" height="32" rx="4" fill="#F6F8FA"/>
<path d="M450.267 141.105C452.462 141.105 453.79 139.252 453.79 136.492C453.79 133.574 452.37 131.866 450.267 131.866C448.086 131.866 446.758 133.732 446.758 136.492C446.758 139.41 448.191 141.105 450.267 141.105ZM450.28 139.449C449.216 139.449 448.585 138.306 448.585 136.492C448.585 134.573 449.242 133.535 450.28 133.535C451.345 133.535 451.963 134.665 451.963 136.492C451.963 138.398 451.332 139.449 450.28 139.449ZM456.891 141H458.692V131.971H457.259L454.526 133.929L455.38 135.257L456.891 134.126V141ZM461.506 136.571C462.084 136.571 462.571 136.111 462.571 135.533C462.571 134.954 462.084 134.481 461.506 134.481C460.915 134.481 460.442 134.954 460.442 135.533C460.442 136.111 460.915 136.571 461.506 136.571ZM461.506 141.105C462.084 141.105 462.571 140.645 462.571 140.067C462.571 139.489 462.084 139.015 461.506 139.015C460.915 139.015 460.442 139.489 460.442 140.067C460.442 140.645 460.915 141.105 461.506 141.105ZM465.863 141H467.663V131.971H466.231L463.497 133.929L464.351 135.257L465.863 134.126V141ZM471.818 139.37V139.344L473.527 137.583C474.697 136.374 475.025 135.572 475.025 134.547C475.025 132.865 473.658 131.866 472.16 131.866C470.649 131.866 469.689 132.615 469.163 133.574L470.451 134.494C470.846 133.837 471.385 133.522 472.015 133.522C472.725 133.522 473.225 134.047 473.225 134.744C473.225 135.467 472.738 136.085 472.015 136.86L469.203 139.83L469.229 141H475.117V139.37H471.818ZM477.46 136.571C478.038 136.571 478.524 136.111 478.524 135.533C478.524 134.954 478.038 134.481 477.46 134.481C476.868 134.481 476.395 134.954 476.395 135.533C476.395 136.111 476.868 136.571 477.46 136.571ZM477.46 141.105C478.038 141.105 478.524 140.645 478.524 140.067C478.524 139.489 478.038 139.015 477.46 139.015C476.868 139.015 476.395 139.489 476.395 140.067C476.395 140.645 476.868 141.105 477.46 141.105ZM484.392 136.334V136.308C485.115 135.887 485.562 135.151 485.562 134.284C485.562 132.733 484.261 131.866 482.658 131.866C481.33 131.866 480.292 132.536 479.871 133.469L481.304 134.231C481.567 133.771 481.961 133.482 482.618 133.482C483.288 133.482 483.814 133.916 483.814 134.573C483.814 135.165 483.446 135.638 482.644 135.638H481.843V137.097H482.5C483.486 137.097 483.985 137.649 483.985 138.293C483.985 139.055 483.367 139.502 482.644 139.502C481.83 139.502 481.33 139.121 481.094 138.477L479.543 139.121C479.976 140.264 481.172 141.105 482.776 141.105C484.524 141.105 485.825 140.106 485.825 138.542C485.825 137.491 485.26 136.742 484.392 136.334ZM490.479 141H492.24V139.528H493.449V137.99H492.24V131.971H490.794L486.654 138.385V139.528H490.479V141ZM488.6 138.082L490.61 134.849V138.082H488.6Z" fill="#BCC3C9"/>
<rect x="295.5" y="292.5" width="71" height="23" rx="3.5" fill="white" stroke="#1BD697"/>
<rect x="247.5" y="292.5" width="39" height="23" rx="3.5" fill="white" stroke="#FFC370"/>
<rect x="84" y="292" width="40" height="24" rx="4" fill="#CED8E1"/>
<rect x="84.5" y="196.5" width="133.564" height="31" rx="7.5" fill="#F0F4F7" stroke="#DDE6ED"/>
<rect opacity="0.4" x="92.3237" y="204" width="16" height="16" rx="4" fill="#9AAFBF"/>
<rect x="232.937" y="196.5" width="133.564" height="31" rx="7.5" fill="#F0F4F7" stroke="#DDE6ED"/>
<rect opacity="0.4" x="240.76" y="204" width="16" height="16" rx="4" fill="#9AAFBF"/>
<rect x="84.5" y="236.5" width="133.564" height="31" rx="7.5" fill="#F0F4F7" stroke="#DDE6ED"/>
<rect opacity="0.4" x="92.3237" y="244" width="16" height="16" rx="4" fill="#9AAFBF"/>
<rect x="232.937" y="236.5" width="133.564" height="31" rx="7.5" fill="#F0F4F7" stroke="#DDE6ED"/>
<rect opacity="0.4" x="240.76" y="244" width="16" height="16" rx="4" fill="#9AAFBF"/>
<rect x="84" y="120" width="283" height="14" fill="#F6F8FA"/>
<rect x="84" y="139" width="283" height="14" fill="#F6F8FA"/>
<rect x="84" y="158" width="133" height="14" fill="#F6F8FA"/>
<rect x="391" y="108" width="1" height="228" fill="#F6F8FA"/>
<rect x="422" y="188" width="16" height="16" rx="4" fill="#1BD697"/>
<rect x="442" y="188" width="16" height="16" rx="4" fill="#1BD697"/>
<rect x="462" y="188" width="16" height="16" rx="4" fill="#FFC370"/>
<rect x="482" y="188" width="16" height="16" rx="4" fill="#1BD697"/>
<rect x="502" y="188" width="16" height="16" rx="4" fill="#1BD697"/>
<path d="M422.624 177H423.736V175.056H424.624C425.872 175.056 426.704 174.456 426.704 173.208C426.704 172.12 426.104 171.32 424.728 171.32H422.624V177ZM423.736 174.056V172.32H424.528C425.184 172.32 425.536 172.664 425.536 173.184C425.536 173.712 425.184 174.056 424.48 174.056H423.736ZM429.856 173.032C429.36 173.032 428.904 173.208 428.584 173.568H428.568V171.112H427.52V177H428.568V175.016C428.568 174.32 428.928 173.968 429.488 173.968C429.984 173.968 430.248 174.2 430.248 174.92V177H431.296V174.656C431.296 173.464 430.696 173.032 429.856 173.032ZM434.674 173.096L433.778 175.512H433.77L432.81 173.096H431.722L433.274 176.76L432.586 178.584H433.658L435.762 173.096H434.674ZM437.597 177.064C438.621 177.064 439.117 176.544 439.117 175.848C439.117 175.08 438.621 174.896 437.773 174.584C437.389 174.44 437.181 174.328 437.181 174.168C437.181 173.96 437.397 173.872 437.565 173.872C437.853 173.872 438.197 174 438.501 174.288L439.005 173.52C438.565 173.176 438.125 173.032 437.581 173.032C436.781 173.032 436.173 173.496 436.173 174.2C436.173 174.952 436.733 175.256 437.373 175.472C437.885 175.632 438.085 175.72 438.085 175.904C438.085 176.096 437.909 176.224 437.605 176.224C437.181 176.224 436.845 176.072 436.525 175.768L436.013 176.496C436.445 176.864 436.973 177.064 437.597 177.064ZM440.495 172.544C440.855 172.544 441.151 172.256 441.151 171.904C441.151 171.552 440.855 171.264 440.495 171.264C440.143 171.264 439.847 171.552 439.847 171.904C439.847 172.256 440.143 172.544 440.495 172.544ZM439.967 177H441.015V173.096H439.967V177ZM443.922 177.064C444.706 177.064 445.306 176.752 445.642 176.36L444.93 175.728C444.746 175.936 444.434 176.128 444.018 176.128C443.402 176.128 442.97 175.68 442.97 175.04C442.97 174.408 443.386 173.968 444.01 173.968C444.41 173.968 444.714 174.144 444.922 174.384L445.626 173.776C445.234 173.28 444.594 173.032 443.97 173.032C442.762 173.032 441.914 173.848 441.914 175.048C441.914 176.248 442.762 177.064 443.922 177.064ZM447.636 177.064C448.66 177.064 449.156 176.544 449.156 175.848C449.156 175.08 448.66 174.896 447.812 174.584C447.428 174.44 447.22 174.328 447.22 174.168C447.22 173.96 447.436 173.872 447.604 173.872C447.892 173.872 448.236 174 448.54 174.288L449.044 173.52C448.604 173.176 448.164 173.032 447.62 173.032C446.82 173.032 446.212 173.496 446.212 174.2C446.212 174.952 446.772 175.256 447.412 175.472C447.924 175.632 448.124 175.72 448.124 175.904C448.124 176.096 447.948 176.224 447.644 176.224C447.22 176.224 446.884 176.072 446.564 175.768L446.052 176.496C446.484 176.864 447.012 177.064 447.636 177.064Z" fill="#3C4852"/>
<rect x="422" y="212" width="16" height="16" rx="4" fill="#FFC370"/>
<rect x="442" y="212" width="16" height="16" rx="4" fill="#FFC370"/>
<rect x="462" y="212" width="16" height="16" rx="4" fill="#1BD697"/>
<rect x="482" y="212" width="16" height="16" rx="4" fill="#FFC370"/>
<rect x="502" y="212" width="16" height="16" rx="4" fill="#FFC370"/>
<rect x="422" y="236" width="16" height="16" rx="4" fill="#FFC370"/>
<rect x="442" y="236" width="16" height="16" rx="4" fill="#1BD697"/>
<rect x="462" y="236" width="16" height="16" rx="4" fill="#FFC370"/>
<rect x="482" y="236" width="16" height="16" rx="4" fill="#FFC370"/>
<rect x="502" y="236" width="16" height="16" rx="4" fill="#1BD697"/>
<rect x="422" y="260" width="16" height="16" rx="4" fill="#1BD697"/>
<rect x="442.5" y="260.5" width="15" height="15" rx="3.5" fill="#3C4852" stroke="#DDE6ED"/>
<rect x="462" y="260" width="16" height="16" rx="4" fill="#F6F8FA"/>
<rect x="482" y="260" width="16" height="16" rx="4" fill="#F6F8FA"/>
<rect x="502" y="260" width="16" height="16" rx="4" fill="#F6F8FA"/>
<rect x="422" y="308" width="16" height="16" rx="4" fill="#F6F8FA"/>
<rect x="442" y="308" width="16" height="16" rx="4" fill="#F6F8FA"/>
<rect x="462" y="308" width="16" height="16" rx="4" fill="#F6F8FA"/>
<rect x="482" y="308" width="16" height="16" rx="4" fill="#F6F8FA"/>
<rect x="502" y="308" width="16" height="16" rx="4" fill="#F6F8FA"/>
<path d="M425.288 297.056C426.296 297.056 427.064 296.592 427.552 295.984L426.728 295.272C426.392 295.688 425.88 295.992 425.288 295.992C424.272 295.992 423.568 295.232 423.568 294.176C423.568 293.04 424.304 292.32 425.288 292.32C425.88 292.32 426.392 292.648 426.728 293.04L427.552 292.336C426.928 291.576 426.072 291.248 425.288 291.248C423.432 291.248 422.392 292.552 422.392 294.176C422.392 296.048 423.736 297.056 425.288 297.056ZM430.669 293.032C430.173 293.032 429.717 293.208 429.397 293.568H429.381V291.112H428.333V297H429.381V295.016C429.381 294.32 429.741 293.968 430.301 293.968C430.797 293.968 431.061 294.2 431.061 294.92V297H432.109V294.656C432.109 293.464 431.509 293.032 430.669 293.032ZM436.746 295.008C436.746 293.864 435.978 293.032 434.834 293.032C433.722 293.032 432.898 293.856 432.898 295.04C432.898 296.264 433.762 297.064 434.906 297.064C435.69 297.064 436.258 296.752 436.594 296.328L435.914 295.696C435.698 295.96 435.394 296.144 434.978 296.136C434.474 296.136 434.106 295.848 433.978 295.384H436.722C436.746 295.32 436.746 295.136 436.746 295.008ZM434.866 293.952C435.322 293.952 435.602 294.224 435.706 294.632H433.986C434.106 294.184 434.442 293.952 434.866 293.952ZM442.343 293.032C441.783 293.032 441.303 293.248 440.983 293.656H440.967C440.727 293.224 440.319 293.032 439.807 293.032C439.367 293.032 438.943 293.232 438.639 293.616H438.631V293.096H437.583V297H438.631V295.048C438.631 294.344 438.983 293.968 439.455 293.968C439.943 293.968 440.143 294.36 440.143 294.984V297H441.191V295.048C441.191 294.344 441.551 293.968 441.991 293.968C442.479 293.968 442.671 294.36 442.671 294.984V297H443.719V294.728C443.719 293.536 443.191 293.032 442.343 293.032ZM445.292 292.544C445.652 292.544 445.948 292.256 445.948 291.904C445.948 291.552 445.652 291.264 445.292 291.264C444.94 291.264 444.644 291.552 444.644 291.904C444.644 292.256 444.94 292.544 445.292 292.544ZM444.764 297H445.812V293.096H444.764V297ZM448.183 297.064C449.207 297.064 449.703 296.544 449.703 295.848C449.703 295.08 449.207 294.896 448.359 294.584C447.975 294.44 447.767 294.328 447.767 294.168C447.767 293.96 447.983 293.872 448.151 293.872C448.439 293.872 448.783 294 449.087 294.288L449.591 293.52C449.151 293.176 448.711 293.032 448.167 293.032C447.367 293.032 446.759 293.496 446.759 294.2C446.759 294.952 447.319 295.256 447.959 295.472C448.471 295.632 448.671 295.72 448.671 295.904C448.671 296.096 448.495 296.224 448.191 296.224C447.767 296.224 447.431 296.072 447.111 295.768L446.599 296.496C447.031 296.864 447.559 297.064 448.183 297.064ZM451.721 297.064C452.249 297.064 452.505 296.96 452.761 296.824L452.489 295.984C452.313 296.072 452.121 296.12 451.993 296.12C451.753 296.12 451.649 295.96 451.649 295.624V293.96H452.713V293.096H451.649V291.704L450.609 291.816V293.096H450.145V293.96H450.609V295.768C450.609 296.648 451.049 297.064 451.721 297.064ZM455.729 293.032C455.265 293.032 454.841 293.256 454.545 293.672H454.537V293.096H453.489V297H454.537V295.184C454.537 294.608 454.889 294.168 455.537 294.168C455.593 294.168 455.705 294.168 455.809 294.176V293.04C455.793 293.032 455.761 293.032 455.729 293.032ZM459.049 293.096L458.153 295.512H458.145L457.185 293.096H456.097L457.649 296.76L456.961 298.584H458.033L460.137 293.096H459.049Z" fill="#3C4852"/>
<rect x="422" y="332" width="16" height="16" rx="4" fill="#F6F8FA"/>
<rect x="442" y="332" width="16" height="16" rx="4" fill="#F6F8FA"/>
<rect x="462" y="332" width="16" height="16" rx="4" fill="#F6F8FA"/>
<rect x="482" y="332" width="16" height="16" rx="4" fill="#F6F8FA"/>
<rect x="502" y="332" width="16" height="16" rx="4" fill="#F6F8FA"/>
<path d="M133.5 44C133.5 39.8579 136.858 36.5 141 36.5H467C471.142 36.5 474.5 39.8579 474.5 44V75.5H133.5V44Z" fill="white" stroke="#F0F4F7"/>
<rect x="431.5" y="46.5" width="19" height="19" rx="2.54094" stroke="#F0F4F7"/>
<path d="M157.083 51.2057C157.686 54.8798 160.999 57.6896 164.997 57.6896C168.953 57.6896 172.24 54.9364 172.891 51.317C172.974 50.9771 173.009 50.7057 172.998 50.4732C172.998 50.2068 172.799 50 172.524 50H172.076H157.992H157.476C157.201 50 157.002 50.2065 157.002 50.4726C157.001 50.4726 157.001 50.4726 157 50.4725C157 50.4785 157.001 50.4844 157.001 50.4904C156.994 50.6929 157.02 50.925 157.083 51.2057H157.083Z" fill="#2D81F7"/>
<path d="M168.929 62.3972C168.627 60.5601 166.971 59.1552 164.972 59.1552C162.994 59.1552 161.35 60.5318 161.025 62.3415C160.983 62.5114 160.966 62.6471 160.971 62.7634C160.971 62.8966 161.071 63 161.208 63H161.432H168.474H168.732C168.87 63 168.969 62.8968 168.969 62.7637C168.97 62.7637 168.97 62.7637 168.97 62.7637C168.97 62.7608 168.97 62.7578 168.97 62.7548C168.973 62.6535 168.96 62.5375 168.929 62.3972Z" fill="#08BD80"/>
<defs>
<filter id="filter0_d" x="97" y="0" width="414" height="414" filterUnits="userSpaceOnUse" color-interpolation-filters="sRGB">
<feFlood flood-opacity="0" result="BackgroundImageFix"/>
<feColorMatrix in="SourceAlpha" type="matrix" values="0 0 0 0 0 0 0 0 0 0 0 0 0 0 0 0 0 0 127 0"/>
<feOffset/>
<feGaussianBlur stdDeviation="18"/>
<feColorMatrix type="matrix" values="0 0 0 0 0.941176 0 0 0 0 0.956863 0 0 0 0 0.968627 0 0 0 1 0"/>
<feBlend mode="normal" in2="BackgroundImageFix" result="effect1_dropShadow"/>
<feBlend mode="normal" in="SourceGraphic" in2="effect1_dropShadow" result="shape"/>
</filter>
<filter id="filter1_d" x="23.7015" y="77.8507" width="560.597" height="324.597" filterUnits="userSpaceOnUse" color-interpolation-filters="sRGB">
<feFlood flood-opacity="0" result="BackgroundImageFix"/>
<feColorMatrix in="SourceAlpha" type="matrix" values="0 0 0 0 0 0 0 0 0 0 0 0 0 0 0 0 0 0 127 0"/>
<feOffset dy="18.1493"/>
<feGaussianBlur stdDeviation="18.1493"/>
<feColorMatrix type="matrix" values="0 0 0 0 0.941176 0 0 0 0 0.956863 0 0 0 0 0.968627 0 0 0 1 0"/>
<feBlend mode="normal" in2="BackgroundImageFix" result="effect1_dropShadow"/>
<feBlend mode="normal" in="SourceGraphic" in2="effect1_dropShadow" result="shape"/>
</filter>
</defs>
</svg>
