<svg xmlns="http://www.w3.org/2000/svg" width="127" height="38" fill="none"><path d="M122.296 0H4.704C2.106 0 0 2.106 0 4.704v28.222c0 2.598 2.106 4.704 4.704 4.704h117.592c2.598 0 4.704-2.106 4.704-4.704V4.704C127 2.106 124.894 0 122.296 0z" fill="#000"/><g fill="#fff"><path d="M44.6 9.633a2.55 2.55 0 0 1-.706 1.882 2.74 2.74 0 0 1-2.07.837c-.583-.005-1.152-.18-1.636-.508s-.86-.788-1.082-1.328-.28-1.132-.166-1.704.393-1.098.804-1.512a2.82 2.82 0 0 1 2.079-.847c.398-.001.79.08 1.157.235.34.137.643.353.884.63l-.5.5a1.88 1.88 0 0 0-1.543-.668 2.18 2.18 0 0 0-.856.17c-.27.114-.516.28-.72.492a2.18 2.18 0 0 0-.47.735c-.106.274-.155.567-.145.86a2.22 2.22 0 0 0 1.339 2.069 2.22 2.22 0 0 0 2.424-.441 1.78 1.78 0 0 0 .47-1.148h-2.04V9.21h2.738c.025.14.038.28.038.423zm4.31-2.352h-2.54v1.787h2.314v.677H46.38v1.787h2.54v.696h-3.293V6.585h3.293v.696zm3.086 4.948h-.724V7.28H49.7v-.696h3.923v.696h-1.618v4.948zm4.384 0V6.585h.724v5.644h-.724zm3.942 0h-.724V7.28h-1.58v-.696H61.9v.696h-1.57v4.948zm8.918-.734c-.55.547-1.294.854-2.07.854s-1.52-.307-2.07-.854a3.05 3.05 0 0 1 0-4.186c.27-.273.594-.5.95-.638s.736-.224 1.12-.224.766.076 1.12.224.678.365.95.638a3.04 3.04 0 0 1 0 4.186zm-3.603-.47c.407.406.96.633 1.533.633s1.126-.228 1.533-.633a2.41 2.41 0 0 0 0-3.236c-.407-.406-.96-.633-1.533-.633s-1.126.228-1.533.633a2.41 2.41 0 0 0 0 3.236zM71.1 12.23V6.585h.884l2.747 4.393V6.585h.724v5.644h-.752l-2.87-4.6v4.6H71.1z" stroke="#fff" stroke-width=".2" stroke-miterlimit="10"/><path d="M64.102 20.46a4 4 0 0 0-3.68 2.481 4 4 0 0 0 .879 4.351 4 4 0 0 0 4.355.858 4 4 0 0 0 2.464-3.692c.008-.53-.09-1.054-.29-1.544a3.94 3.94 0 0 0-2.182-2.171c-.49-.197-1.016-.293-1.545-.283zm0 6.425c-.486.034-.97-.08-1.39-.324s-.758-.61-.968-1.05-.283-.932-.21-1.413.3-.93.622-1.286a2.43 2.43 0 0 1 2.663-.607 2.43 2.43 0 0 1 1.542 2.254c.015.31-.032.617-.138.907s-.27.556-.48.782-.464.408-.746.535-.586.196-.895.203zm-8.758-6.425a4 4 0 0 0-3.687 2.475 4 4 0 0 0 .873 4.354 4 4 0 0 0 4.356.862 4 4 0 0 0 2.466-3.693c.008-.53-.09-1.054-.29-1.544a3.94 3.94 0 0 0-2.182-2.171c-.49-.197-1.016-.293-1.545-.283h.01zm0 6.425a2.43 2.43 0 0 1-1.394-.319c-.422-.244-.76-.61-.972-1.05a2.43 2.43 0 0 1-.213-1.414c.072-.482.288-.93.62-1.288s.762-.607 1.237-.716.972-.073 1.426.105.844.487 1.12.89a2.43 2.43 0 0 1 .425 1.365c.015.31-.032.617-.138.907s-.27.556-.48.782-.464.408-.746.535-.586.196-.895.203h.01zM44.91 21.693v1.693h4.064c-.064.798-.395 1.55-.94 2.136-.407.414-.895.74-1.435.953a4.16 4.16 0 0 1-1.698.289c-1.198 0-2.346-.476-3.193-1.323s-1.323-1.995-1.323-3.193.476-2.346 1.323-3.193 1.995-1.323 3.193-1.323c1.146-.02 2.252.418 3.076 1.214l1.195-1.195c-.556-.564-1.22-1.01-1.952-1.312s-1.517-.454-2.31-.447a6.22 6.22 0 0 0-4.552 1.732 6.22 6.22 0 0 0-1.908 4.482 6.22 6.22 0 0 0 1.908 4.482 6.22 6.22 0 0 0 4.552 1.732c.805.036 1.61-.1 2.357-.4s1.423-.757 1.98-1.34c.986-1.083 1.512-2.506 1.468-3.97.003-.357-.03-.713-.094-1.063l-5.7.047zM87.536 23c-.245-.722-.704-1.352-1.316-1.807s-1.347-.714-2.11-.742c-.515-.001-1.024.104-1.496.307s-.898.502-1.25.877a3.76 3.76 0 0 0-1.015 2.814c-.01.526.083 1.05.278 1.537s.487.932.857 1.306.813.668 1.3.866 1.01.297 1.535.29a3.98 3.98 0 0 0 3.33-1.769l-1.364-.94c-.204.34-.492.62-.837.815s-.734.296-1.13.295a2.03 2.03 0 0 1-1.938-1.214l5.353-2.21-.198-.423zm-5.456 1.336a2.19 2.19 0 0 1 .554-1.605 2.19 2.19 0 0 1 1.534-.728 1.55 1.55 0 0 1 1.486.847l-3.575 1.486zm-4.346 3.876h1.76v-11.76h-1.76v11.76zm-2.88-6.867h-.066c-.265-.296-.6-.533-.953-.696a2.82 2.82 0 0 0-1.154-.245c-1.028.05-1.998.493-2.707 1.24s-1.106 1.735-1.106 2.764.396 2.02 1.106 2.764a4.01 4.01 0 0 0 2.707 1.239 2.73 2.73 0 0 0 2.107-.941h.056v.574c0 1.533-.82 2.352-2.135 2.352a2.21 2.21 0 0 1-2.013-1.421l-1.533.64a3.81 3.81 0 0 0 3.547 2.361c2.06 0 3.763-1.214 3.763-4.167v-7.12h-1.618v.66zm-2.013 5.532c-.607-.053-1.172-.332-1.583-.782s-.64-1.036-.64-1.645.228-1.196.64-1.646.976-.728 1.583-.782c.3.015.596.09.867.222s.514.315.713.54a2.26 2.26 0 0 1 .556 1.664 2.24 2.24 0 0 1-.553 1.672 2.24 2.24 0 0 1-1.592.755h.01zm22.935-10.423h-4.205v11.76h1.76v-4.46h2.455a3.66 3.66 0 0 0 2.755-.971 3.66 3.66 0 0 0 1.166-2.679 3.66 3.66 0 0 0-1.166-2.679 3.66 3.66 0 0 0-2.755-.971h-.01zm0 5.644h-2.455V18.1h2.493a2.02 2.02 0 0 1 2.018 2.018 2.02 2.02 0 0 1-2.018 2.018l-.038-.028zm10.847-1.693c-.64-.038-1.278.11-1.835.43a3.3 3.3 0 0 0-1.298 1.366l1.562.65c.154-.284.387-.517.67-.67s.606-.22.928-.195c.223-.026.45-.007.666.055a1.69 1.69 0 0 1 .592.308 1.68 1.68 0 0 1 .428.513c.107.198.173.415.196.64v.122a3.89 3.89 0 0 0-1.835-.451c-1.684 0-3.387.94-3.387 2.643a2.72 2.72 0 0 0 .263 1.047c.157.328.377.62.65.862s.6.425.934.542.708.163 1.07.136a2.47 2.47 0 0 0 1.283-.255c.398-.2.734-.5.975-.874h.056v.94h1.693v-4.525c0-2.06-1.56-3.255-3.565-3.255l-.047-.028zm-.216 6.444c-.574 0-1.374-.292-1.374-.997 0-.94.997-1.25 1.882-1.25.558-.014 1.11.123 1.6.395-.06.51-.3.98-.68 1.326s-.87.543-1.38.555l-.047-.028zm10-6.162l-2.014 5.1h-.056l-2.088-5.1h-1.882l3.133 7.13-1.788 3.96h1.835l4.816-11.09h-1.956zm-15.814 7.526h1.76v-11.76h-1.76v11.76z"/></g><path d="M9.822 7.094a1.88 1.88 0 0 0-.433 1.317v20.81a1.88 1.88 0 0 0 .433 1.317l.066.066 11.656-11.646v-.273L9.888 7.028l-.066.066z" fill="url(#A)"/><path d="M25.4 22.842l-3.857-3.885v-.273L25.4 14.79l.085.047 4.62 2.625c1.317.743 1.317 1.966 0 2.72l-4.6 2.615-.104.047z" fill="url(#B)"/><path d="M25.513 22.784l-3.97-3.97L9.82 30.536c.268.236.61.37.968.38s.707-.105.99-.325l13.744-7.808" fill="url(#C)"/><path d="M25.513 14.845L11.768 7.037c-.282-.22-.63-.335-.99-.325s-.7.145-.968.38l11.73 11.722 3.97-3.97z" fill="url(#D)"/><g fill="#000"><path opacity=".2" d="M25.4 22.7l-13.63 7.76a1.57 1.57 0 0 1-1.881 0l-.066.066.066.066a1.56 1.56 0 0 0 1.881 0l13.744-7.808-.113-.085z"/><path opacity=".12" d="M9.822 30.404a1.88 1.88 0 0 1-.433-1.317v.14a1.88 1.88 0 0 0 .433 1.317l.066-.066-.066-.075zm20.282-10.367L25.4 22.7l.085.085 4.62-2.615c.262-.123.487-.313.652-.55a1.65 1.65 0 0 0 .289-.804 1.75 1.75 0 0 1-.941 1.223z"/></g><path opacity=".25" d="M11.768 7.17l18.335 10.423a1.75 1.75 0 0 1 .941 1.223c-.024-.29-.123-.566-.288-.804s-.4-.428-.652-.55L11.768 7.037c-1.317-.743-2.39-.122-2.39 1.383v.14c.028-1.515 1.082-2.135 2.39-1.392z" fill="#fff"/><defs><linearGradient id="A" x1="20.509" y1="8.195" x2="4.723" y2="23.981" gradientUnits="userSpaceOnUse"><stop stop-color="#00a0ff"/><stop offset=".01" stop-color="#00a1ff"/><stop offset=".26" stop-color="#00beff"/><stop offset=".51" stop-color="#00d2ff"/><stop offset=".76" stop-color="#00dfff"/><stop offset="1" stop-color="#00e3ff"/></linearGradient><linearGradient id="B" x1="31.825" y1="18.815" x2="9.069" y2="18.815" gradientUnits="userSpaceOnUse"><stop stop-color="#ffe000"/><stop offset=".41" stop-color="#ffbd00"/><stop offset=".78" stop-color="orange"/><stop offset="1" stop-color="#ff9c00"/></linearGradient><linearGradient id="C" x1="23.359" y1="20.978" x2="1.947" y2="42.38" gradientUnits="userSpaceOnUse"><stop stop-color="#ff3a44"/><stop offset="1" stop-color="#c31162"/></linearGradient><linearGradient id="D" x1="6.867" y1=".17" x2="16.425" y2="9.728" gradientUnits="userSpaceOnUse"><stop stop-color="#32a071"/><stop offset=".07" stop-color="#2da771"/><stop offset=".48" stop-color="#15cf74"/><stop offset=".8" stop-color="#06e775"/><stop offset="1" stop-color="#00f076"/></linearGradient></defs></svg>