<svg width="80" height="34" viewBox="0 0 80 34" fill="none" xmlns="http://www.w3.org/2000/svg">
<rect x="4.03369" y="6" width="24.2017" height="23" rx="3" fill="#FFCBCB"/>
<path d="M36.3022 22.5C36.3022 20.0147 38.317 18 40.8022 18H72.1384C74.6237 18 76.6384 20.0147 76.6384 22.5C76.6384 24.9853 74.6237 27 72.1384 27H40.8022C38.317 27 36.3022 24.9853 36.3022 22.5Z" fill="#FFCBCB"/>
<path d="M36.3022 11.5C36.3022 9.01472 38.317 7 40.8022 7H54.9955C57.4808 7 59.4955 9.01472 59.4955 11.5C59.4955 13.9853 57.4808 16 54.9955 16H40.8022C38.317 16 36.3022 13.9853 36.3022 11.5Z" fill="#EB5757"/>
<path d="M11.0923 21.5679V12.4321C11.0923 10.8997 12.745 9.93656 14.0783 10.6921L22.1393 15.26C23.4912 16.0261 23.4912 17.9739 22.1393 18.74L14.0783 23.3079C12.745 24.0634 11.0923 23.1003 11.0923 21.5679Z" fill="white"/>
</svg>
