<svg width="82" height="35" viewBox="0 0 82 35" fill="none" xmlns="http://www.w3.org/2000/svg">
<path d="M14.7106 22.535C11.508 19.561 11.5086 14.757 15.1682 12.0119" stroke="#08BD80" stroke-width="2.39042"/>
<path d="M9.69738 25.0348C4.82364 20.5092 4.82454 13.1986 10.3936 9.02106" stroke="#A6F1D8" stroke-width="2.39042"/>
<path d="M71.9125 25.0348C76.7862 20.5092 76.7853 13.1986 71.2162 9.02106" stroke="#A6F1D8" stroke-width="2.39042"/>
<path d="M66.4661 22.535C69.6688 19.561 69.6682 14.757 66.0086 12.0119" stroke="#08BD80" stroke-width="2.39042"/>
<path d="M21.0352 9C21.0352 7.89543 21.9306 7 23.0352 7H59C60.1046 7 61 7.89543 61 9V25.333C61 26.4376 60.1046 27.333 59 27.333H23.0352C21.9306 27.333 21.0352 26.4376 21.0352 25.333V9Z" fill="#A6F1D8"/>
<circle cx="57.496" cy="17.5156" r="1.40228" fill="#08BD80"/>
<rect opacity="0.4" x="24.5391" y="10.5039" width="29.4478" height="13.3216" rx="1" fill="white"/>
</svg>
