<?xml version="1.0" encoding="UTF-8"?>
<svg width="537px" height="238px" viewBox="0 0 537 238" version="1.1" xmlns="http://www.w3.org/2000/svg" xmlns:xlink="http://www.w3.org/1999/xlink">
    <!-- Generator: Sketch 46.1 (44463) - http://www.bohemiancoding.com/sketch -->
    <title>BAI_steps_illustrations_v3_Create a Course</title>
    <desc>Created with Sketch.</desc>
    <defs>
        <linearGradient x1="50.0081198%" y1="108.489171%" x2="50.0081198%" y2="-1.28346249%" id="linearGradient-1">
            <stop stop-color="#FFFFFF" offset="0%"></stop>
            <stop stop-color="#F4F4F4" offset="100%"></stop>
        </linearGradient>
        <linearGradient x1="22796%" y1="30715%" x2="22796%" y2="18025%" id="linearGradient-2">
            <stop stop-color="#FFFFFF" offset="0%"></stop>
            <stop stop-color="#F4F4F4" offset="100%"></stop>
        </linearGradient>
        <linearGradient x1="49.9460496%" y1="92.562032%" x2="49.9460496%" y2="-1.40150019%" id="linearGradient-3">
            <stop stop-color="#FFFFFF" offset="0%"></stop>
            <stop stop-color="#EDECE6" offset="100%"></stop>
        </linearGradient>
    </defs>
    <g id="Page-1" stroke="none" stroke-width="1" fill="none" fill-rule="evenodd">
        <g id="BAI_steps_illustrations_v3_Create-a-Course" transform="translate(1.000000, 1.000000)">
            <g id="Clouds_Faded" transform="translate(78.000000, 0.000000)" stroke="#DEDFE0" stroke-width="2" stroke-linecap="round" stroke-linejoin="round">
                <path d="M61,52.3 C63.4496698,44.6198698 59.8947924,36.3052884 52.65,32.77 C50.3222665,31.6551207 47.759376,31.1198986 45.18,31.21 C42.0353964,22.3774182 34.3996919,15.9065831 25.1709273,14.2534233 C15.9421627,12.6002635 6.53507022,16.0182017 0.52,23.21" id="Shape"></path>
                <path d="M381.25,18.89 C380.697916,12.1060778 375.252479,6.75430778 368.46,6.32 C366.28576,6.19780576 364.114177,6.60261916 362.13,7.5 C356.841257,1.60712693 348.799927,-0.999255481 341.059899,0.670689214 C333.319871,2.34063391 327.06854,8.03071986 324.68,15.58 C317.269451,16.4130836 311.914485,23.0621669 312.68,30.48" id="Shape"></path>
            </g>
            <g id="Produce" transform="translate(371.000000, 51.000000)">
                <path d="M73.02,110.32 L137.03,110.32" id="Shape" stroke="#C9C4C4" stroke-width="2" fill="#FFFFFF" fill-rule="nonzero" stroke-linecap="round" stroke-linejoin="round"></path>
                <path d="M146.02,110.32 L163.97,110.32" id="Shape" stroke="#D3D2D2" stroke-width="2" stroke-linecap="round" stroke-linejoin="round"></path>
                <rect id="Rectangle-path" stroke="#8A92A3" stroke-width="2" fill="#F7F8FA" fill-rule="nonzero" stroke-linecap="round" stroke-linejoin="round" x="0.62" y="0.2" width="112.47" height="142.17"></rect>
                <polygon id="Shape" fill="#B4E0E9" fill-rule="nonzero" points="64.8 59.79 1.84 59.79 1.84 79.79 128.03 79.79 128.03 59.79"></polygon>
                <polygon id="Shape" fill="#FBE7BA" fill-rule="nonzero" points="50.67 98.47 11.63 98.47 11.63 118.47 85.16 118.47 85.16 98.47"></polygon>
                <polygon id="Shape" fill="#FBE7BA" fill-rule="nonzero" points="50.32 21.19 1.62 21.19 1.62 41.19 93.35 41.19 93.35 21.19"></polygon>
                <polygon id="Shape" fill="#FBE7BA" fill-rule="nonzero" points="98.88 59.83 73.82 59.83 73.82 79.83 128.03 79.83 128.03 59.83"></polygon>
            </g>
            <g id="Plan" transform="translate(0.000000, 51.000000)" stroke-width="2" stroke-linecap="round" stroke-linejoin="round">
                <path d="M86.76,84.29 L27.76,84.29" id="Shape" stroke="#DEDFE0" fill="#FFFFFF" fill-rule="nonzero"></path>
                <path d="M18.77,84.29 L0.81,84.29" id="Shape" stroke="#DEDFE0"></path>
                <rect id="Rectangle-path" stroke="#8A92A3" fill="#F7F8FA" fill-rule="nonzero" x="52.91" y="0.2" width="112.47" height="142.17"></rect>
                <polygon id="Shape" stroke="#DEDFE0" fill="#FFEC99" fill-rule="nonzero" points="73.26 120.05 73.26 108.25 79.53 108.25 85.06 108.25 85.06 120.05"></polygon>
                <path d="M93.51,115.31 L142.88,115.31" id="Shape" stroke="#D1CFCF" fill="#FFFFFF" fill-rule="nonzero"></path>
                <polygon id="Shape" stroke="#DEDFE0" fill="#FFEC99" fill-rule="nonzero" points="73.26 68.22 73.26 80.02 85.06 80.02 85.06 68.22 79.53 68.22"></polygon>
                <path d="M93.51,75.28 L142.88,75.28" id="Shape" stroke="#D1CFCF" fill="#FFFFFF" fill-rule="nonzero"></path>
                <polyline id="Shape" stroke="#645A53" fill="#C3E6EC" fill-rule="nonzero" points="85.06 39.99 73.26 39.99 73.26 28.19 79.53 28.19"></polyline>
                <path d="M93.51,35.25 L142.88,35.25" id="Shape" stroke="#645A53" fill="#FFFFFF" fill-rule="nonzero"></path>
                <polyline id="Shape" stroke="#645A53" fill="#FFFFFF" fill-rule="nonzero" points="78.77 32.29 80.63 35.53 87.12 26.72"></polyline>
            </g>
            <g id="Cloud_Back_Right" transform="translate(294.000000, 95.000000)" stroke-width="2" stroke-linecap="round" stroke-linejoin="round">
                <path d="M161.82,117.71 C161.992377,108.646217 155.04192,101.032347 146,100.38 C146.07,99.69 146.12,99 146.13,98.3 C146.353394,86.4456594 138.012782,76.1507436 126.37,73.91 C130.602406,63.80539 128.597348,52.1638025 121.228403,44.0573201 C113.859459,35.9508377 102.461319,32.8477382 92,36.1 C86.7791318,13.5684248 65.6862233,-1.61884154 42.6620426,0.575800026 C19.6378619,2.77044159 1.79399138,21.6691222 0.923838209,44.7812874 C0.0536850401,67.8934526 16.4260174,88.0803439 39.22,92 C30.9023969,100.240873 26.1303519,111.403153 25.92,123.11" id="Shape" stroke="#505763" fill="url(#linearGradient-1)" fill-rule="nonzero"></path>
                <path d="M101.05,61.6 C94.5599338,57.9019445 86.3018284,60.135072 82.56,66.6" id="Shape" stroke="#645A53"></path>
            </g>
            <g id="Cloud_Back_left" transform="translate(78.000000, 108.000000)" stroke="#505763" fill-rule="nonzero" stroke-width="2" fill="url(#linearGradient-2)" stroke-linecap="round" stroke-linejoin="round">
                <path d="M187.23,83.47 C188.75,67.28 145.95,32.53 131.72,21.87 C130.935638,21.292941 130.525998,20.3358389 130.65,19.37 C130.65,19.17 130.673333,18.9666667 130.72,18.76 C131.491546,10.3272752 125.964379,2.60363545 117.733727,0.613035908 C109.503074,-1.37756363 101.057265,2.96668443 97.89,10.82 C97.5252222,11.7276243 96.7072827,12.3743672 95.74,12.52 C71.8200051,16.3619804 54.9451846,38.0494438 57.1,62.18 C57.222072,63.5872867 56.258095,64.8581801 54.87,65.12 C45.9732777,66.9242955 38.8147422,73.5203196 36.29,82.24 C35.9102715,83.4950276 34.6809919,84.2934256 33.38,84.13 L32.67,84.05 C17.17,82.6 -1,94.29 0.76,116.87" id="Shape"></path>
            </g>
            <g id="Course_Card" transform="translate(138.000000, 17.000000)">
                <rect id="Rectangle-path" stroke="#505763" stroke-width="2" fill="#A26D91" fill-rule="nonzero" stroke-linecap="round" stroke-linejoin="round" x="50.88" y="0.96" width="159.85" height="202.07"></rect>
                <polygon id="Shape" fill="#8B4875" fill-rule="nonzero" points="210.74 185.45 51.58 185.45 51.58 80.01 210.74 50.74"></polygon>
                <rect id="Rectangle-path" stroke="#505763" stroke-width="2" stroke-linecap="round" stroke-linejoin="round" x="50.88" y="0.96" width="159.85" height="202.07"></rect>
                <path d="M184.66,146.65 C184.66,145.19 187.93,121.09 172.9,117.03 C163.251281,114.32284 153.936449,110.542568 145.13,105.76 L145.13,95.82 C145.13,95.82 160.23,95.57 166.52,91.3 C163.09,73.89 162.91,77.48 162.91,60.66 C162.91,34.66 142.77,20.1 120.91,31.01 C105.77,32.6 104.74,46.52 104.91,48.86 C104.49,54.69 104.28,75.81 98.74,90.64 C105.751868,93.7489551 113.286498,95.5096362 120.95,95.83 L120.95,105.77 L95.27,117.91 C95.27,117.91 83.27,122.27 83.27,128.1 C83.16,136.24 82.45,147.16 82.45,147.16 C82.45,147.16 184.66,148.11 184.66,146.65 Z" id="Shape" fill="url(#linearGradient-3)" fill-rule="nonzero"></path>
                <rect id="Rectangle-path" stroke="#505763" stroke-width="2" fill="#FFFFFF" fill-rule="nonzero" stroke-linecap="round" stroke-linejoin="round" x="51.25" y="138.68" width="159.48" height="63.99"></rect>
                <rect id="Rectangle-path" fill="#EDECE6" fill-rule="nonzero" x="64.4" y="171.24" width="71.53" height="10.75"></rect>
                <rect id="Rectangle-path" fill="#EDECE6" fill-rule="nonzero" x="64.4" y="151.75" width="110.89" height="10.75"></rect>
                <path d="M208.8,203.03 L233.04,203.03" id="Shape" stroke="#505763" stroke-width="2" stroke-linecap="round" stroke-linejoin="round"></path>
                <path d="M239.72,203.03 L253.07,203.03" id="Shape" stroke="#D3D2D2" stroke-width="2" stroke-linecap="round" stroke-linejoin="round"></path>
                <path d="M94.77,203.03 L27.03,203.03" id="Shape" stroke="#505763" stroke-width="2" stroke-linecap="round" stroke-linejoin="round"></path>
                <path d="M18.33,203.03 L0.96,203.03" id="Shape" stroke="#D3D2D2" stroke-width="2" stroke-linecap="round" stroke-linejoin="round"></path>
            </g>
            <g id="Cloud_font" transform="translate(266.000000, 199.000000)" stroke="#505763" fill-rule="nonzero" stroke-width="2" fill="#FFFFFF" stroke-linecap="round" stroke-linejoin="round">
                <path d="M86.65,24.38 C86.149092,15.9145849 79.5095635,9.10044394 71.06,8.38 C68.3537933,8.16829247 65.6365324,8.61430752 63.14,9.68 C56.7109006,2.20768121 46.7709385,-1.24700944 37.0933517,0.627338471 C27.4157649,2.50168638 19.4843901,9.41768441 16.31,18.75 C7.063447,19.6016667 0.230957162,27.7462088 1,37" id="Shape"></path>
            </g>
        </g>
    </g>
</svg>
