<?xml version="1.0" encoding="UTF-8"?>
<svg width="140px" height="200px" viewBox="0 0 140 200" version="1.1" xmlns="http://www.w3.org/2000/svg" xmlns:xlink="http://www.w3.org/1999/xlink">
    <!-- Generator: Sketch 59.1 (86144) - https://sketch.com -->
    <title>Imp-ques</title>
    <desc>Created with Sketch.</desc>
    <defs>
        <rect id="path-1" x="0" y="0" width="140" height="200" rx="3"></rect>
    </defs>
    <g id="others" stroke="none" stroke-width="1" fill="none" fill-rule="evenodd">
        <g id="Imp-ques">
            <mask id="mask-2" fill="white">
                <use xlink:href="#path-1"></use>
            </mask>
            <use id="Mask" fill="#DDFFCC" xlink:href="#path-1"></use>
            <path d="M17.48,37 L17.48,22.8 L20.24,22.8 L20.24,37 L17.48,37 Z M39.22,37 L36.54,37 L36.54,31.12 C36.54,30.2799958 36.3966681,29.6666686 36.11,29.28 C35.8233319,28.8933314 35.4266692,28.7 34.92,28.7 C34.386664,28.7 33.886669,28.9033313 33.42,29.31 C32.953331,29.7166687 32.620001,30.2466634 32.42,30.9 L32.42,37 L29.74,37 L29.74,31.12 C29.74,30.2799958 29.5966681,29.6666686 29.31,29.28 C29.0233319,28.8933314 28.6266692,28.7 28.12,28.7 C27.5999974,28.7 27.1033357,28.899998 26.63,29.3 C26.1566643,29.700002 25.820001,30.2266634 25.62,30.88 L25.62,37 L22.94,37 L22.94,26.52 L25.36,26.52 L25.36,28.46 C25.7466686,27.7799966 26.2766633,27.2566685 26.95,26.89 C27.6233367,26.5233315 28.393329,26.34 29.26,26.34 C30.1400044,26.34 30.8199976,26.5533312 31.3,26.98 C31.7800024,27.4066688 32.086666,27.9333302 32.22,28.56 C32.6466688,27.84 33.1866634,27.2900019 33.84,26.91 C34.4933366,26.5299981 35.2399958,26.34 36.08,26.34 C36.7200032,26.34 37.2466646,26.4599988 37.66,26.7 C38.0733354,26.9400012 38.3933322,27.2533314 38.62,27.64 C38.8466678,28.0266686 39.0033329,28.4666642 39.09,28.96 C39.1766671,29.4533358 39.22,29.9533308 39.22,30.46 L39.22,37 Z M47.84,37.2 C47.0133292,37.2 46.2933364,37.0166685 45.68,36.65 C45.0666636,36.2833315 44.5866684,35.7866698 44.24,35.16 L44.24,41.26 L41.56,41.26 L41.56,26.52 L43.9,26.52 L43.9,28.32 C44.2866686,27.7066636 44.7866636,27.2233351 45.4,26.87 C46.0133364,26.5166649 46.719996,26.34 47.52,26.34 C48.2266702,26.34 48.879997,26.4833319 49.48,26.77 C50.080003,27.0566681 50.5966645,27.4433309 51.03,27.93 C51.4633355,28.4166691 51.8033321,28.9899967 52.05,29.65 C52.2966679,30.3100033 52.42,31.006663 52.42,31.74 C52.42,32.5000038 52.3066678,33.21333 52.08,33.88 C51.8533322,34.54667 51.5366687,35.1266642 51.13,35.62 C50.7233313,36.1133358 50.2400028,36.4999986 49.68,36.78 C49.1199972,37.0600014 48.50667,37.2 47.84,37.2 Z M46.94,34.92 C47.340002,34.92 47.7099983,34.8333342 48.05,34.66 C48.3900017,34.4866658 48.6799988,34.2533348 48.92,33.96 C49.1600012,33.6666652 49.346666,33.3266686 49.48,32.94 C49.613334,32.5533314 49.68,32.1533354 49.68,31.74 C49.68,31.2999978 49.6066674,30.8900019 49.46,30.51 C49.3133326,30.1299981 49.1100013,29.8000014 48.85,29.52 C48.5899987,29.2399986 48.2833351,29.0200008 47.93,28.86 C47.5766649,28.6999992 47.1933354,28.62 46.78,28.62 C46.5266654,28.62 46.266668,28.6633329 46,28.75 C45.733332,28.8366671 45.4866678,28.9599992 45.26,29.12 C45.0333322,29.2800008 44.8300009,29.4666656 44.65,29.68 C44.4699991,29.8933344 44.3333338,30.1266654 44.24,30.38 L44.24,32.84 C44.4800012,33.440003 44.8466642,33.9366647 45.34,34.33 C45.8333358,34.7233353 46.3666638,34.92 46.94,34.92 Z M59.08,37.2 C58.2266624,37.2 57.4600034,37.0533348 56.78,36.76 C56.0999966,36.4666652 55.5233357,36.0700025 55.05,35.57 C54.5766643,35.0699975 54.2133346,34.4933366 53.96,33.84 C53.7066654,33.1866634 53.58,32.5000036 53.58,31.78 C53.58,31.046663 53.7066654,30.3533366 53.96,29.7 C54.2133346,29.0466634 54.5766643,28.4700025 55.05,27.97 C55.5233357,27.4699975 56.0999966,27.0733348 56.78,26.78 C57.4600034,26.4866652 58.2266624,26.34 59.08,26.34 C59.9333376,26.34 60.6966633,26.4866652 61.37,26.78 C62.0433367,27.0733348 62.6166643,27.4699975 63.09,27.97 C63.5633357,28.4700025 63.9266654,29.0466634 64.18,29.7 C64.4333346,30.3533366 64.56,31.046663 64.56,31.78 C64.56,32.5000036 64.4333346,33.1866634 64.18,33.84 C63.9266654,34.4933366 63.566669,35.0699975 63.1,35.57 C62.633331,36.0700025 62.0600034,36.4666652 61.38,36.76 C60.6999966,37.0533348 59.9333376,37.2 59.08,37.2 Z M56.34,31.78 C56.34,32.246669 56.4099993,32.6699981 56.55,33.05 C56.6900007,33.4300019 56.8833321,33.7599986 57.13,34.04 C57.3766679,34.3200014 57.666665,34.5366659 58,34.69 C58.333335,34.8433341 58.6933314,34.92 59.08,34.92 C59.4666686,34.92 59.826665,34.8433341 60.16,34.69 C60.493335,34.5366659 60.7833321,34.3200014 61.03,34.04 C61.2766679,33.7599986 61.4699993,33.4266686 61.61,33.04 C61.7500007,32.6533314 61.82,32.226669 61.82,31.76 C61.82,31.3066644 61.7500007,30.8866686 61.61,30.5 C61.4699993,30.1133314 61.2766679,29.7800014 61.03,29.5 C60.7833321,29.2199986 60.493335,29.0033341 60.16,28.85 C59.826665,28.6966659 59.4666686,28.62 59.08,28.62 C58.6933314,28.62 58.333335,28.6999992 58,28.86 C57.666665,29.0200008 57.3766679,29.2399986 57.13,29.52 C56.8833321,29.8000014 56.6900007,30.1333314 56.55,30.52 C56.4099993,30.9066686 56.34,31.3266644 56.34,31.78 Z M72.6,28.84 C71.7866626,28.8533334 71.0600032,29.0099985 70.42,29.31 C69.7799968,29.6100015 69.3200014,30.059997 69.04,30.66 L69.04,37 L66.36,37 L66.36,26.52 L68.82,26.52 L68.82,28.76 C69.0066676,28.3999982 69.2266654,28.0766681 69.48,27.79 C69.7333346,27.5033319 70.0066652,27.2533344 70.3,27.04 C70.5933348,26.8266656 70.8899985,26.6633339 71.19,26.55 C71.4900015,26.4366661 71.7799986,26.38 72.06,26.38 L72.39,26.38 C72.4633337,26.38 72.533333,26.3866666 72.6,26.4 L72.6,28.84 Z M80.38,36.46 C80.0199982,36.62 79.5800026,36.7799992 79.06,36.94 C78.5399974,37.1000008 77.9933362,37.18 77.42,37.18 C77.0466648,37.18 76.6966683,37.1333338 76.37,37.04 C76.0433317,36.9466662 75.7566679,36.7966677 75.51,36.59 C75.2633321,36.3833323 75.0666674,36.1166683 74.92,35.79 C74.7733326,35.4633317 74.7,35.066669 74.7,34.6 L74.7,28.58 L73.32,28.58 L73.32,26.52 L74.7,26.52 L74.7,23.12 L77.38,23.12 L77.38,26.52 L79.58,26.52 L79.58,28.58 L77.38,28.58 L77.38,33.7 C77.38,34.0733352 77.4766657,34.3366659 77.67,34.49 C77.8633343,34.6433341 78.0999986,34.72 78.38,34.72 C78.6600014,34.72 78.933332,34.6733338 79.2,34.58 L79.6224,34.4264 C79.7034665,34.3954668 79.7759997,34.3666668 79.84,34.34 L80.38,36.46 Z M84.64,37.2 C84.1333308,37.2 83.6600022,37.1166675 83.22,36.95 C82.7799978,36.7833325 82.4000016,36.5500015 82.08,36.25 C81.7599984,35.9499985 81.5100009,35.600002 81.33,35.2 C81.1499991,34.799998 81.06,34.3600024 81.06,33.88 C81.06,33.3866642 81.1699989,32.9300021 81.39,32.51 C81.6100011,32.0899979 81.9166647,31.7333348 82.31,31.44 C82.7033353,31.1466652 83.1733306,30.9166675 83.72,30.75 C84.2666694,30.5833325 84.8666634,30.5 85.52,30.5 C85.986669,30.5 86.4433311,30.5399996 86.89,30.62 C87.3366689,30.7000004 87.7333316,30.8133326 88.08,30.96 L88.08,30.36 C88.08,29.6666632 87.8833353,29.1333352 87.49,28.76 C87.0966647,28.3866648 86.5133372,28.2 85.74,28.2 C85.1799972,28.2 84.633336,28.299999 84.1,28.5 C83.566664,28.700001 83.0200028,28.9933314 82.46,29.38 L81.64,27.68 C82.9866734,26.7866622 84.4399922,26.34 86,26.34 C87.5066742,26.34 88.6766625,26.7099963 89.51,27.45 C90.3433375,28.1900037 90.76,29.259993 90.76,30.66 L90.76,33.92 C90.76,34.2000014 90.8099995,34.3999994 90.91,34.52 C91.0100005,34.6400006 91.1733322,34.7066666 91.4,34.72 L91.4,37 C90.9466644,37.0933338 90.553335,37.14 90.22,37.14 C89.7133308,37.14 89.3233347,37.0266678 89.05,36.8 C88.7766653,36.5733322 88.606667,36.2733352 88.54,35.9 L88.48,35.32 C88.013331,35.9333364 87.44667,36.3999984 86.78,36.72 C86.11333,37.0400016 85.4000038,37.2 84.64,37.2 Z M85.4,35.24 C85.8533356,35.24 86.2833313,35.1600008 86.69,35 C87.0966687,34.8399992 87.4133322,34.626668 87.64,34.36 C87.9333348,34.1333322 88.08,33.8800014 88.08,33.6 L88.08,32.4 C87.7599984,32.2799994 87.4133352,32.1833337 87.04,32.11 C86.6666648,32.0366663 86.3066684,32 85.96,32 C85.2666632,32 84.7000022,32.1566651 84.26,32.47 C83.8199978,32.7833349 83.6,33.1799976 83.6,33.66 C83.6,34.1133356 83.7733316,34.4899985 84.12,34.79 C84.4666684,35.0900015 84.8933308,35.24 85.4,35.24 Z M103,37 L100.32,37 L100.32,31.12 C100.32,30.2799958 100.173335,29.6666686 99.88,29.28 C99.5866652,28.8933314 99.1800026,28.7 98.66,28.7 C98.393332,28.7 98.1200014,28.7533328 97.84,28.86 C97.5599986,28.9666672 97.2966679,29.1166657 97.05,29.31 C96.8033321,29.5033343 96.580001,29.733332 96.38,30 C96.179999,30.266668 96.0333338,30.5599984 95.94,30.88 L95.94,37 L93.26,37 L93.26,26.52 L95.68,26.52 L95.68,28.46 C96.0666686,27.79333 96.626663,27.2733352 97.36,26.9 C98.093337,26.5266648 98.9199954,26.34 99.84,26.34 C100.493337,26.34 101.026665,26.4599988 101.44,26.7 C101.853335,26.9400012 102.173332,27.2533314 102.4,27.64 C102.626668,28.0266686 102.783333,28.4666642 102.87,28.96 C102.956667,29.4533358 103,29.9533308 103,30.46 L103,37 Z M111.52,36.46 C111.159998,36.62 110.720003,36.7799992 110.2,36.94 C109.679997,37.1000008 109.133336,37.18 108.56,37.18 C108.186665,37.18 107.836668,37.1333338 107.51,37.04 C107.183332,36.9466662 106.896668,36.7966677 106.65,36.59 C106.403332,36.3833323 106.206667,36.1166683 106.06,35.79 C105.913333,35.4633317 105.84,35.066669 105.84,34.6 L105.84,28.58 L104.46,28.58 L104.46,26.52 L105.84,26.52 L105.84,23.12 L108.52,23.12 L108.52,26.52 L110.72,26.52 L110.72,28.58 L108.52,28.58 L108.52,33.7 C108.52,34.0733352 108.616666,34.3366659 108.81,34.49 C109.003334,34.6433341 109.239999,34.72 109.52,34.72 C109.800001,34.72 110.073332,34.6733338 110.34,34.58 L110.7624,34.4264 C110.843466,34.3954668 110.916,34.3666668 110.98,34.34 L111.52,36.46 Z M27.14,64.08 C26.62,64.4000016 26.060003,64.6499991 25.46,64.83 C24.859997,65.0100009 24.2200034,65.1 23.54,65.1 C22.4999948,65.1 21.5566709,64.8933354 20.71,64.48 C19.8633291,64.0666646 19.1366697,63.52667 18.53,62.86 C17.9233303,62.19333 17.453335,61.426671 17.12,60.56 C16.786665,59.693329 16.62,58.8066712 16.62,57.9 C16.62,56.9533286 16.7966649,56.046671 17.15,55.18 C17.5033351,54.313329 17.9899969,53.54667 18.61,52.88 C19.2300031,52.21333 19.9666624,51.6833353 20.82,51.29 C21.6733376,50.8966647 22.599995,50.7 23.6,50.7 C24.6266718,50.7 25.5633291,50.9099979 26.41,51.33 C27.2566709,51.7500021 27.979997,52.2999966 28.58,52.98 C29.180003,53.6600034 29.646665,54.433329 29.98,55.3 C30.313335,56.166671 30.48,57.0466622 30.48,57.94 C30.48,58.8600046 30.3166683,59.7399958 29.99,60.58 C29.6633317,61.4200042 29.2066696,62.1666634 28.62,62.82 L30.56,65 L27.96,65 L27.14,64.08 Z M23.56,62.66 C23.92,62.66 24.2566651,62.6166671 24.57,62.53 C24.8833349,62.4433329 25.173332,62.3266674 25.44,62.18 L23.28,59.74 L25.88,59.74 L26.86,60.84 C27.126668,60.4133312 27.3333326,59.9466692 27.48,59.44 C27.6266674,58.9333308 27.7,58.4200026 27.7,57.9 C27.7,57.2866636 27.6033343,56.6933362 27.41,56.12 C27.2166657,55.5466638 26.9433351,55.0400022 26.59,54.6 C26.2366649,54.1599978 25.8033359,53.806668 25.29,53.54 C24.7766641,53.273332 24.2000032,53.14 23.56,53.14 C22.89333,53.14 22.3000026,53.2766653 21.78,53.55 C21.2599974,53.8233347 20.8266684,54.1866644 20.48,54.64 C20.1333316,55.0933356 19.8700009,55.6033305 19.69,56.17 C19.5099991,56.7366695 19.42,57.3133304 19.42,57.9 C19.42,58.5133364 19.5133324,59.1066638 19.7,59.68 C19.8866676,60.2533362 20.1566649,60.7599978 20.51,61.2 C20.8633351,61.64 21.2966641,61.993332 21.81,62.26 C22.3233359,62.526668 22.9066634,62.66 23.56,62.66 Z M35.52,65.2 C34.4399946,65.2 33.6200028,64.8533368 33.06,64.16 C32.4999972,63.4666632 32.22,62.4400068 32.22,61.08 L32.22,54.52 L34.9,54.52 L34.9,60.5 C34.9,62.1133414 35.4799942,62.92 36.64,62.92 C37.1600026,62.92 37.6633309,62.7633349 38.15,62.45 C38.6366691,62.1366651 39.0333318,61.6600032 39.34,61.02 L39.34,54.52 L42.02,54.52 L42.02,61.92 C42.02,62.2000014 42.0699995,62.3999994 42.17,62.52 C42.2700005,62.6400006 42.4333322,62.7066666 42.66,62.72 L42.66,65 C42.393332,65.0533336 42.1700009,65.0866666 41.99,65.1 C41.8099991,65.1133334 41.6466674,65.12 41.5,65.12 C41.0199976,65.12 40.6300015,65.0100011 40.33,64.79 C40.0299985,64.5699989 39.8533336,64.2666686 39.8,63.88 L39.74,63.04 C39.273331,63.7600036 38.673337,64.2999982 37.94,64.66 C37.206663,65.02 36.4000044,65.2 35.52,65.2 Z M49.54,65.2 C48.6999958,65.2 47.9400034,65.0566681 47.26,64.77 C46.5799966,64.4833319 46.0000024,64.0933358 45.52,63.6 C45.0399976,63.1066642 44.6700013,62.5333366 44.41,61.88 C44.1499987,61.2266634 44.02,60.5400036 44.02,59.82 C44.02,59.0733296 44.1466654,58.3700033 44.4,57.71 C44.6533346,57.0499967 45.02,56.4700025 45.5,55.97 C45.9800024,55.4699975 46.5633299,55.0733348 47.25,54.78 C47.9366701,54.4866652 48.7066624,54.34 49.56,54.34 C50.4133376,54.34 51.1766633,54.4866652 51.85,54.78 C52.5233367,55.0733348 53.0966643,55.4666642 53.57,55.96 C54.0433357,56.4533358 54.4033321,57.0266634 54.65,57.68 C54.8966679,58.3333366 55.02,59.0133298 55.02,59.72 C55.02,59.8933342 55.0166667,60.0599992 55.01,60.22 C55.0033333,60.3800008 54.9866668,60.5133328 54.96,60.62 L46.86,60.62 C46.9000002,61.0333354 46.9999992,61.3999984 47.16,61.72 C47.3200008,62.0400016 47.5266654,62.3133322 47.78,62.54 C48.0333346,62.7666678 48.3199984,62.9399994 48.64,63.06 C48.9600016,63.1800006 49.2933316,63.24 49.64,63.24 C50.173336,63.24 50.6766643,63.1100013 51.15,62.85 C51.6233357,62.5899987 51.9466658,62.2466688 52.12,61.82 L54.42,62.46 C54.0333314,63.260004 53.4166709,63.9166641 52.57,64.43 C51.7233291,64.9433359 50.7133392,65.2 49.54,65.2 Z M52.26,58.88 C52.193333,58.0933294 51.9033359,57.4633357 51.39,56.99 C50.8766641,56.5166643 50.253337,56.28 49.52,56.28 C49.1599982,56.28 48.8233349,56.3433327 48.51,56.47 C48.1966651,56.5966673 47.9200012,56.7733322 47.68,57 C47.4399988,57.2266678 47.2433341,57.4999984 47.09,57.82 C46.9366659,58.1400016 46.8466668,58.4933314 46.82,58.88 L52.26,58.88 Z M60.62,65.2 C59.7399956,65.2 58.88,65.0600014 58.04,64.78 C57.1999958,64.4999986 56.480003,64.1000026 55.88,63.58 L56.88,61.9 C57.5200032,62.3533356 58.1433303,62.6966655 58.75,62.93 C59.3566697,63.1633345 59.959997,63.28 60.56,63.28 C61.093336,63.28 61.5133318,63.180001 61.82,62.98 C62.1266682,62.779999 62.28,62.4933352 62.28,62.12 C62.28,61.7466648 62.1000018,61.4733342 61.74,61.3 C61.42,61.1459252 60.9209086,60.9707826 60.2427171,60.7745682 L59.98,60.7 C59.2999966,60.5133324 58.7200024,60.3333342 58.24,60.16 C57.7599976,59.9866658 57.3733348,59.7900011 57.08,59.57 C56.7866652,59.3499989 56.573334,59.0966681 56.44,58.81 C56.306666,58.5233319 56.24,58.180002 56.24,57.78 C56.24,57.246664 56.3433323,56.7666688 56.55,56.34 C56.7566677,55.9133312 57.0466648,55.5500015 57.42,55.25 C57.7933352,54.9499985 58.2299975,54.7200008 58.73,54.56 C59.2300025,54.3999992 59.7733304,54.32 60.36,54.32 C61.1466706,54.32 61.8833299,54.4333322 62.57,54.66 C63.2566701,54.8866678 63.8866638,55.2533308 64.46,55.76 L63.38,57.38 C62.846664,56.979998 62.3300025,56.6866676 61.83,56.5 C61.3299975,56.3133324 60.8333358,56.22 60.34,56.22 C59.8866644,56.22 59.5066682,56.3133324 59.2,56.5 C58.8933318,56.6866676 58.74,56.9866646 58.74,57.4 C58.74,57.5866676 58.7766663,57.7399994 58.85,57.86 C58.9233337,57.9800006 59.0399992,58.0866662 59.2,58.18 C59.3600008,58.2733338 59.5699987,58.3633329 59.83,58.45 C60.0900013,58.5366671 60.4133314,58.6266662 60.8,58.72 C61.5200036,58.9066676 62.1366641,59.0933324 62.65,59.28 C63.1633359,59.4666676 63.5833317,59.6799988 63.91,59.92 C64.2366683,60.1600012 64.4766659,60.4366651 64.63,60.75 C64.7833341,61.0633349 64.86,61.4399978 64.86,61.88 C64.86,62.9066718 64.4800038,63.7166637 63.72,64.31 C62.9599962,64.9033363 61.9266732,65.2 60.62,65.2 Z M72.88,64.46 C72.5199982,64.62 72.0800026,64.7799992 71.56,64.94 C71.0399974,65.1000008 70.4933362,65.18 69.92,65.18 C69.5466648,65.18 69.1966683,65.1333338 68.87,65.04 C68.5433317,64.9466662 68.2566679,64.7966677 68.01,64.59 C67.7633321,64.3833323 67.5666674,64.1166683 67.42,63.79 C67.2733326,63.4633317 67.2,63.066669 67.2,62.6 L67.2,56.58 L65.82,56.58 L65.82,54.52 L67.2,54.52 L67.2,51.12 L69.88,51.12 L69.88,54.52 L72.08,54.52 L72.08,56.58 L69.88,56.58 L69.88,61.7 C69.88,62.0733352 69.9766657,62.3366659 70.17,62.49 C70.3633343,62.6433341 70.5999986,62.72 70.88,62.72 C71.1600014,62.72 71.433332,62.6733338 71.7,62.58 L72.1224,62.4264 C72.2034665,62.3954668 72.2759997,62.3666668 72.34,62.34 L72.88,64.46 Z M74.28,65 L74.28,54.52 L76.96,54.52 L76.96,65 L74.28,65 Z M74.28,53.06 L74.28,50.4 L76.96,50.4 L76.96,53.06 L74.28,53.06 Z M84.22,65.2 C83.3666624,65.2 82.6000034,65.0533348 81.92,64.76 C81.2399966,64.4666652 80.6633357,64.0700025 80.19,63.57 C79.7166643,63.0699975 79.3533346,62.4933366 79.1,61.84 C78.8466654,61.1866634 78.72,60.5000036 78.72,59.78 C78.72,59.046663 78.8466654,58.3533366 79.1,57.7 C79.3533346,57.0466634 79.7166643,56.4700025 80.19,55.97 C80.6633357,55.4699975 81.2399966,55.0733348 81.92,54.78 C82.6000034,54.4866652 83.3666624,54.34 84.22,54.34 C85.0733376,54.34 85.8366633,54.4866652 86.51,54.78 C87.1833367,55.0733348 87.7566643,55.4699975 88.23,55.97 C88.7033357,56.4700025 89.0666654,57.0466634 89.32,57.7 C89.5733346,58.3533366 89.7,59.046663 89.7,59.78 C89.7,60.5000036 89.5733346,61.1866634 89.32,61.84 C89.0666654,62.4933366 88.706669,63.0699975 88.24,63.57 C87.773331,64.0700025 87.2000034,64.4666652 86.52,64.76 C85.8399966,65.0533348 85.0733376,65.2 84.22,65.2 Z M81.48,59.78 C81.48,60.246669 81.5499993,60.6699981 81.69,61.05 C81.8300007,61.4300019 82.0233321,61.7599986 82.27,62.04 C82.5166679,62.3200014 82.806665,62.5366659 83.14,62.69 C83.473335,62.8433341 83.8333314,62.92 84.22,62.92 C84.6066686,62.92 84.966665,62.8433341 85.3,62.69 C85.633335,62.5366659 85.9233321,62.3200014 86.17,62.04 C86.4166679,61.7599986 86.6099993,61.4266686 86.75,61.04 C86.8900007,60.6533314 86.96,60.226669 86.96,59.76 C86.96,59.3066644 86.8900007,58.8866686 86.75,58.5 C86.6099993,58.1133314 86.4166679,57.7800014 86.17,57.5 C85.9233321,57.2199986 85.633335,57.0033341 85.3,56.85 C84.966665,56.6966659 84.6066686,56.62 84.22,56.62 C83.8333314,56.62 83.473335,56.6999992 83.14,56.86 C82.806665,57.0200008 82.5166679,57.2399986 82.27,57.52 C82.0233321,57.8000014 81.8300007,58.1333314 81.69,58.52 C81.5499993,58.9066686 81.48,59.3266644 81.48,59.78 Z M101.24,65 L98.56,65 L98.56,59.12 C98.56,58.2799958 98.4133348,57.6666686 98.12,57.28 C97.8266652,56.8933314 97.4200026,56.7 96.9,56.7 C96.633332,56.7 96.3600014,56.7533328 96.08,56.86 C95.7999986,56.9666672 95.5366679,57.1166657 95.29,57.31 C95.0433321,57.5033343 94.820001,57.733332 94.62,58 C94.419999,58.266668 94.2733338,58.5599984 94.18,58.88 L94.18,65 L91.5,65 L91.5,54.52 L93.92,54.52 L93.92,56.46 C94.3066686,55.79333 94.866663,55.2733352 95.6,54.9 C96.333337,54.5266648 97.1599954,54.34 98.08,54.34 C98.7333366,54.34 99.2666646,54.4599988 99.68,54.7 C100.093335,54.9400012 100.413332,55.2533314 100.64,55.64 C100.866668,56.0266686 101.023333,56.4666642 101.11,56.96 C101.196667,57.4533358 101.24,57.9533308 101.24,58.46 L101.24,65 Z M107.54,65.2 C106.659996,65.2 105.8,65.0600014 104.96,64.78 C104.119996,64.4999986 103.400003,64.1000026 102.8,63.58 L103.8,61.9 C104.440003,62.3533356 105.06333,62.6966655 105.67,62.93 C106.27667,63.1633345 106.879997,63.28 107.48,63.28 C108.013336,63.28 108.433332,63.180001 108.74,62.98 C109.046668,62.779999 109.2,62.4933352 109.2,62.12 C109.2,61.7466648 109.020002,61.4733342 108.66,61.3 C108.34,61.1459252 107.840909,60.9707826 107.162717,60.7745682 L106.9,60.7 C106.219997,60.5133324 105.640002,60.3333342 105.16,60.16 C104.679998,59.9866658 104.293335,59.7900011 104,59.57 C103.706665,59.3499989 103.493334,59.0966681 103.36,58.81 C103.226666,58.5233319 103.16,58.180002 103.16,57.78 C103.16,57.246664 103.263332,56.7666688 103.47,56.34 C103.676668,55.9133312 103.966665,55.5500015 104.34,55.25 C104.713335,54.9499985 105.149997,54.7200008 105.65,54.56 C106.150002,54.3999992 106.69333,54.32 107.28,54.32 C108.066671,54.32 108.80333,54.4333322 109.49,54.66 C110.17667,54.8866678 110.806664,55.2533308 111.38,55.76 L110.3,57.38 C109.766664,56.979998 109.250002,56.6866676 108.75,56.5 C108.249997,56.3133324 107.753336,56.22 107.26,56.22 C106.806664,56.22 106.426668,56.3133324 106.12,56.5 C105.813332,56.6866676 105.66,56.9866646 105.66,57.4 C105.66,57.5866676 105.696666,57.7399994 105.77,57.86 C105.843334,57.9800006 105.959999,58.0866662 106.12,58.18 C106.280001,58.2733338 106.489999,58.3633329 106.75,58.45 C107.010001,58.5366671 107.333331,58.6266662 107.72,58.72 C108.440004,58.9066676 109.056664,59.0933324 109.57,59.28 C110.083336,59.4666676 110.503332,59.6799988 110.83,59.92 C111.156668,60.1600012 111.396666,60.4366651 111.55,60.75 C111.703334,61.0633349 111.78,61.4399978 111.78,61.88 C111.78,62.9066718 111.400004,63.7166637 110.64,64.31 C109.879996,64.9033363 108.846673,65.2 107.54,65.2 Z M24.7,86.736 L25.72,86.736 L23.056,93 L22.18,93 L20.92,89.94 L19.672,93 L18.796,93 L16.132,86.736 L17.14,86.736 L19.3,91.956 L20.356,89.352 L19.276,86.748 L20.152,86.748 L20.92,88.752 L21.688,86.748 L22.564,86.748 L21.496,89.352 L22.552,91.956 L24.7,86.736 Z M26.704,93 L26.704,86.736 L27.76,86.736 L27.76,93 L26.704,93 Z M26.704,85.56 L26.704,84.24 L27.76,84.24 L27.76,85.56 L26.704,85.56 Z M32.452,91.848 L32.704,92.688 L32.452,92.802 L32.452,92.802 C32.3479995,92.8460002 32.2300007,92.8899998 32.098,92.934 C31.9659993,92.9780002 31.8220008,93.0139999 31.666,93.042 C31.5099992,93.0700001 31.3480008,93.084 31.18,93.084 C30.7959981,93.084 30.4640014,92.9780011 30.184,92.766 C29.9039986,92.5539989 29.764,92.2240022 29.764,91.776 L29.764,87.564 L28.912,87.564 L28.912,86.736 L29.764,86.736 L29.764,84.648 L30.82,84.648 L30.82,86.736 L32.224,86.736 L32.224,87.564 L30.82,87.564 L30.82,91.452 C30.8360001,91.6840012 30.912,91.8519995 31.048,91.956 C31.1840007,92.0600005 31.3439991,92.112 31.528,92.112 C31.736001,92.112 31.9259991,92.0780003 32.098,92.01 L32.2784803,91.9351199 C32.3557602,91.90104 32.4135998,91.8720001 32.452,91.848 Z M39.124,93 L38.068,93 L38.068,89.496 C38.068,88.8479968 37.9560011,88.3660016 37.732,88.05 C37.5079989,87.7339984 37.1800022,87.576 36.748,87.576 C36.539999,87.576 36.332001,87.6179996 36.124,87.702 C35.915999,87.7860004 35.7220009,87.8999993 35.542,88.044 C35.3619991,88.1880007 35.2020007,88.359999 35.062,88.56 C34.9219993,88.760001 34.8160004,88.9799988 34.744,89.22 L34.744,93 L33.688,93 L33.688,84.24 L34.744,84.24 L34.744,88.08 C34.9920012,87.6239977 35.3279979,87.2680013 35.752,87.012 C36.1760021,86.7559987 36.6399975,86.628 37.144,86.628 C37.5120018,86.628 37.8239987,86.6959993 38.08,86.832 C38.3360013,86.9680007 38.5399992,87.1519988 38.692,87.384 C38.8440008,87.6160012 38.9539997,87.8939984 39.022,88.218 C39.0900003,88.5420016 39.124,88.8879982 39.124,89.256 L39.124,93 Z M46,93.12 C45.4959975,93.12 45.0000024,93.0420008 44.512,92.886 C44.0239976,92.7299992 43.6040018,92.5040015 43.252,92.208 L43.708,91.5 C44.0760018,91.7800014 44.4439982,91.9899993 44.812,92.13 C45.1800018,92.2700007 45.567998,92.34 45.976,92.34 C46.4320023,92.34 46.7939987,92.2500009 47.062,92.07 C47.3300013,91.8899991 47.464,91.6360016 47.464,91.308 C47.464,91.1559992 47.4280004,91.0260005 47.356,90.918 C47.2839996,90.8099995 47.1760007,90.7160004 47.032,90.636 C46.8879993,90.5559996 46.7040011,90.4840003 46.48,90.42 L46.1170001,90.321 C45.9870005,90.2870001 45.8480007,90.2520002 45.7,90.216 C45.3239981,90.1199995 45.0000014,90.0280004 44.728,89.94 C44.4559986,89.8519996 44.2320009,89.7480006 44.056,89.628 C43.8799991,89.5079994 43.752,89.3640008 43.672,89.196 C43.5919996,89.0279992 43.552,88.8200012 43.552,88.572 C43.552,88.2599984 43.6139994,87.9820012 43.738,87.738 C43.8620006,87.4939988 44.0319989,87.2900008 44.248,87.126 C44.4640011,86.9619992 44.7179985,86.8380004 45.01,86.754 C45.3020015,86.6699996 45.6159983,86.628 45.952,86.628 C46.4240024,86.628 46.863998,86.7039992 47.272,86.856 C47.680002,87.0080008 48.0239986,87.2079988 48.304,87.456 L47.824,88.092 C47.5599987,87.8599988 47.2640016,87.6860006 46.936,87.57 C46.6079984,87.4539994 46.2720017,87.396 45.928,87.396 C45.5439981,87.396 45.2180013,87.4779992 44.95,87.642 C44.6819987,87.8060008 44.548,88.0679982 44.548,88.428 C44.548,88.5720007 44.5739997,88.6919995 44.626,88.788 C44.6780003,88.8840005 44.7639994,88.9679996 44.884,89.04 C45.0040006,89.1120004 45.1579991,89.1759997 45.346,89.232 L45.6564999,89.319 C45.7694996,89.3489999 45.8919993,89.3799998 46.024,89.412 C46.4400021,89.5080005 46.8019985,89.6059995 47.11,89.706 C47.4180015,89.8060005 47.673999,89.9239993 47.878,90.06 C48.082001,90.1960007 48.2339995,90.3559991 48.334,90.54 C48.4340005,90.7240009 48.484,90.9479987 48.484,91.212 C48.484,91.7960029 48.2600022,92.2599983 47.812,92.604 C47.3639978,92.9480017 46.7600038,93.12 46,93.12 Z M52.468,93.12 C51.9959976,93.12 51.5660019,93.0320009 51.178,92.856 C50.7899981,92.6799991 50.4580014,92.4440015 50.182,92.148 C49.9059986,91.8519985 49.6920008,91.508002 49.54,91.116 C49.3879992,90.723998 49.312,90.3120022 49.312,89.88 C49.312,89.4399978 49.3899992,89.024002 49.546,88.632 C49.7020008,88.239998 49.9179986,87.8960015 50.194,87.6 C50.4700014,87.3039985 50.8019981,87.0680009 51.19,86.892 C51.5780019,86.7159991 52.0039977,86.628 52.468,86.628 C52.9320023,86.628 53.359998,86.7159991 53.752,86.892 C54.144002,87.0680009 54.4779986,87.3039985 54.754,87.6 C55.0300014,87.8960015 55.2459992,88.239998 55.402,88.632 C55.5580008,89.024002 55.636,89.4399978 55.636,89.88 C55.636,90.3120022 55.5600008,90.723998 55.408,91.116 C55.2559992,91.508002 55.0400014,91.8519985 54.76,92.148 C54.4799986,92.4440015 54.1460019,92.6799991 53.758,92.856 C53.3699981,93.0320009 52.9400024,93.12 52.468,93.12 Z M50.392,89.892 C50.392,90.2200016 50.4459995,90.5239986 50.554,90.804 C50.6620005,91.0840014 50.8099991,91.327999 50.998,91.536 C51.1860009,91.744001 51.4059987,91.9079994 51.658,92.028 C51.9100013,92.1480006 52.1799986,92.208 52.468,92.208 C52.7560014,92.208 53.0259987,92.1480006 53.278,92.028 C53.5300013,91.9079994 53.751999,91.7420011 53.944,91.53 C54.136001,91.3179989 54.2859995,91.0700014 54.394,90.786 C54.5020005,90.5019986 54.556,90.1960016 54.556,89.868 C54.556,89.5479984 54.5020005,89.2460014 54.394,88.962 C54.2859995,88.6779986 54.136001,88.4300011 53.944,88.218 C53.751999,88.0059989 53.5300013,87.8400006 53.278,87.72 C53.0259987,87.5999994 52.7560014,87.54 52.468,87.54 C52.1799986,87.54 51.9100013,87.6019994 51.658,87.726 C51.4059987,87.8500006 51.1860009,88.0179989 50.998,88.23 C50.8099991,88.4420011 50.6620005,88.6899986 50.554,88.974 C50.4459995,89.2580014 50.392,89.5639984 50.392,89.892 Z M56.944,84.24 L58,84.24 L58,91.38 C58,91.6120012 58.0619994,91.7939993 58.186,91.926 C58.3100006,92.0580007 58.4839989,92.124 58.708,92.124 C58.7960004,92.124 58.8999994,92.1100001 59.02,92.082 C59.1400006,92.0539999 59.2519995,92.0200002 59.356,91.98 L59.524,92.832 C59.3479991,92.9040004 59.1400012,92.9639998 58.9,93.012 C58.6599988,93.0600002 58.4480009,93.084 58.264,93.084 C57.855998,93.084 57.5340012,92.9680012 57.298,92.736 C57.0619988,92.5039988 56.944,92.1800021 56.944,91.764 L56.944,84.24 Z M62.284,93.12 C61.6279967,93.12 61.1320017,92.9000022 60.796,92.46 C60.4599983,92.0199978 60.292,91.3640044 60.292,90.492 L60.292,86.736 L61.348,86.736 L61.348,90.288 C61.348,91.5680064 61.792,92.208 62.68,92.208 C63.1120022,92.208 63.5179981,92.0700014 63.898,91.794 C64.2780019,91.5179986 64.5599991,91.1400024 64.744,90.66 L64.744,86.736 L65.8,86.736 L65.8,91.704 C65.8,91.9520012 65.9119989,92.08 66.136,92.088 L66.136,93 L65.9306667,93.024 C65.9022223,93.0266667 65.8766668,93.0286667 65.854,93.03 L65.656,93.036 L65.656,93.036 C65.447999,93.036 65.2740007,92.9740006 65.134,92.85 C64.9939993,92.7259994 64.92,92.5720009 64.912,92.388 L64.888,91.656 C64.6079986,92.1280024 64.2400023,92.4899987 63.784,92.742 C63.3279977,92.9940013 62.8280027,93.12 62.284,93.12 Z M70.552,91.848 L70.804,92.688 L70.552,92.802 L70.552,92.802 C70.4479995,92.8460002 70.3300007,92.8899998 70.198,92.934 C70.0659993,92.9780002 69.9220008,93.0139999 69.766,93.042 C69.6099992,93.0700001 69.4480008,93.084 69.28,93.084 C68.8959981,93.084 68.5640014,92.9780011 68.284,92.766 C68.0039986,92.5539989 67.864,92.2240022 67.864,91.776 L67.864,87.564 L67.012,87.564 L67.012,86.736 L67.864,86.736 L67.864,84.648 L68.92,84.648 L68.92,86.736 L70.324,86.736 L70.324,87.564 L68.92,87.564 L68.92,91.452 C68.9360001,91.6840012 69.012,91.8519995 69.148,91.956 C69.2840007,92.0600005 69.4439991,92.112 69.628,92.112 C69.836001,92.112 70.0259991,92.0780003 70.198,92.01 L70.3784803,91.9351199 C70.4557602,91.90104 70.5135998,91.8720001 70.552,91.848 Z M71.788,93 L71.788,86.736 L72.844,86.736 L72.844,93 L71.788,93 Z M71.788,85.56 L71.788,84.24 L72.844,84.24 L72.844,85.56 L71.788,85.56 Z M77.284,93.12 C76.8119976,93.12 76.3820019,93.0320009 75.994,92.856 C75.6059981,92.6799991 75.2740014,92.4440015 74.998,92.148 C74.7219986,91.8519985 74.5080008,91.508002 74.356,91.116 C74.2039992,90.723998 74.128,90.3120022 74.128,89.88 C74.128,89.4399978 74.2059992,89.024002 74.362,88.632 C74.5180008,88.239998 74.7339986,87.8960015 75.01,87.6 C75.2860014,87.3039985 75.6179981,87.0680009 76.006,86.892 C76.3940019,86.7159991 76.8199977,86.628 77.284,86.628 C77.7480023,86.628 78.175998,86.7159991 78.568,86.892 C78.960002,87.0680009 79.2939986,87.3039985 79.57,87.6 C79.8460014,87.8960015 80.0619992,88.239998 80.218,88.632 C80.3740008,89.024002 80.452,89.4399978 80.452,89.88 C80.452,90.3120022 80.3760008,90.723998 80.224,91.116 C80.0719992,91.508002 79.8560014,91.8519985 79.576,92.148 C79.2959986,92.4440015 78.9620019,92.6799991 78.574,92.856 C78.1859981,93.0320009 77.7560024,93.12 77.284,93.12 Z M75.208,89.892 C75.208,90.2200016 75.2619995,90.5239986 75.37,90.804 C75.4780005,91.0840014 75.6259991,91.327999 75.814,91.536 C76.0020009,91.744001 76.2219987,91.9079994 76.474,92.028 C76.7260013,92.1480006 76.9959986,92.208 77.284,92.208 C77.5720014,92.208 77.8419987,92.1480006 78.094,92.028 C78.3460013,91.9079994 78.567999,91.7420011 78.76,91.53 C78.952001,91.3179989 79.1019995,91.0700014 79.21,90.786 C79.3180005,90.5019986 79.372,90.1960016 79.372,89.868 C79.372,89.5479984 79.3180005,89.2460014 79.21,88.962 C79.1019995,88.6779986 78.952001,88.4300011 78.76,88.218 C78.567999,88.0059989 78.3460013,87.8400006 78.094,87.72 C77.8419987,87.5999994 77.5720014,87.54 77.284,87.54 C76.9959986,87.54 76.7260013,87.6019994 76.474,87.726 C76.2219987,87.8500006 76.0020009,88.0179989 75.814,88.23 C75.6259991,88.4420011 75.4780005,88.6899986 75.37,88.974 C75.2619995,89.2580014 75.208,89.5639984 75.208,89.892 Z M87.172,93 L86.116,93 L86.116,89.496 C86.116,88.8239966 86.014001,88.3360015 85.81,88.032 C85.605999,87.7279985 85.2960021,87.576 84.88,87.576 C84.6639989,87.576 84.4480011,87.6179996 84.232,87.702 C84.0159989,87.7860004 83.812001,87.8999993 83.62,88.044 C83.427999,88.1880007 83.2600007,88.359999 83.116,88.56 C82.9719993,88.760001 82.8640004,88.9799988 82.792,89.22 L82.792,93 L81.736,93 L81.736,86.736 L82.696,86.736 L82.696,88.08 C82.9440012,87.6399978 83.3019977,87.2880013 83.77,87.024 C84.2380023,86.7599987 84.7479972,86.628 85.3,86.628 C85.6600018,86.628 85.9599988,86.6939993 86.2,86.826 C86.4400012,86.9580007 86.6319993,87.1419988 86.776,87.378 C86.9200007,87.6140012 87.0219997,87.8919984 87.082,88.212 C87.1420003,88.5320016 87.172,88.8799981 87.172,89.256 L87.172,93 Z M91.012,93.12 C90.5079975,93.12 90.0120024,93.0420008 89.524,92.886 C89.0359976,92.7299992 88.6160018,92.5040015 88.264,92.208 L88.72,91.5 C89.0880018,91.7800014 89.4559982,91.9899993 89.824,92.13 C90.1920018,92.2700007 90.579998,92.34 90.988,92.34 C91.4440023,92.34 91.8059987,92.2500009 92.074,92.07 C92.3420013,91.8899991 92.476,91.6360016 92.476,91.308 C92.476,91.1559992 92.4400004,91.0260005 92.368,90.918 C92.2959996,90.8099995 92.1880007,90.7160004 92.044,90.636 C91.8999993,90.5559996 91.7160011,90.4840003 91.492,90.42 L91.1290001,90.321 C90.9990005,90.2870001 90.8600007,90.2520002 90.712,90.216 C90.3359981,90.1199995 90.0120014,90.0280004 89.74,89.94 C89.4679986,89.8519996 89.2440009,89.7480006 89.068,89.628 C88.8919991,89.5079994 88.764,89.3640008 88.684,89.196 C88.6039996,89.0279992 88.564,88.8200012 88.564,88.572 C88.564,88.2599984 88.6259994,87.9820012 88.75,87.738 C88.8740006,87.4939988 89.0439989,87.2900008 89.26,87.126 C89.4760011,86.9619992 89.7299985,86.8380004 90.022,86.754 C90.3140015,86.6699996 90.6279983,86.628 90.964,86.628 C91.4360024,86.628 91.875998,86.7039992 92.284,86.856 C92.692002,87.0080008 93.0359986,87.2079988 93.316,87.456 L92.836,88.092 C92.5719987,87.8599988 92.2760016,87.6860006 91.948,87.57 C91.6199984,87.4539994 91.2840017,87.396 90.94,87.396 C90.5559981,87.396 90.2300013,87.4779992 89.962,87.642 C89.6939987,87.8060008 89.56,88.0679982 89.56,88.428 C89.56,88.5720007 89.5859997,88.6919995 89.638,88.788 C89.6900003,88.8840005 89.7759994,88.9679996 89.896,89.04 C90.0160006,89.1120004 90.1699991,89.1759997 90.358,89.232 L90.6684999,89.319 C90.7814996,89.3489999 90.9039993,89.3799998 91.036,89.412 C91.4520021,89.5080005 91.8139985,89.6059995 92.122,89.706 C92.4300015,89.8060005 92.685999,89.9239993 92.89,90.06 C93.094001,90.1960007 93.2459995,90.3559991 93.346,90.54 C93.4460005,90.7240009 93.496,90.9479987 93.496,91.212 C93.496,91.7960029 93.2720022,92.2599983 92.824,92.604 C92.3759978,92.9480017 91.7720038,93.12 91.012,93.12 Z" id="ImportantQuestionswithsolutions" fill="#008000" fill-rule="nonzero" mask="url(#mask-2)"></path>
            <g id="149266" mask="url(#mask-2)" fill="#008000" fill-rule="nonzero">
                <g transform="translate(46.000000, 120.000000)" id="Shape">
                    <path d="M9.53333333,0 C6.85186667,0 4.27613333,1.14746667 2.4648,3.14946667 C0.684666667,5.12026667 -0.1924,7.7584 0.0433333333,10.4 L0,10.4 L0,95.2605333 C0,100.0792 3.9208,104 8.73946667,104 L78,104 L78,19.0666667 L78,15.6 L78,0 L9.53333333,0 Z M3.46666667,95.2605333 L3.46666667,17.3298667 C4.91573333,18.4201333 6.71666667,19.0666667 8.66666667,19.0666667 L8.66666667,100.5264 C5.7928,100.486533 3.46666667,98.1430667 3.46666667,95.2605333 Z M74.5333333,100.533333 L12.1333333,100.533333 L12.1333333,19.0666667 L17.3333333,19.0666667 L17.3333333,62.7484 C17.3333333,63.9305333 18.0977333,64.9358667 19.2382667,65.2513333 C19.4757333,65.3154667 19.7114667,65.3484 19.9454667,65.3484 C19.9714667,65.3484 19.9957333,65.3397333 20.0217333,65.338 C20.0997333,65.3362667 20.1742667,65.3172 20.2522667,65.3085333 C20.4308,65.2877333 20.6024,65.2513333 20.7705333,65.1941333 C20.8537333,65.1664 20.9317333,65.1334667 21.0097333,65.0970667 C21.1726667,65.0225333 21.3217333,64.9289333 21.4656,64.8214667 C21.528,64.7746667 21.5921333,64.7348 21.6493333,64.6828 C21.8417333,64.5112 22.0168,64.3170667 22.1554667,64.0830667 L29.4649333,51.9012 L36.7744,64.0848 C37.3412,65.0294667 38.402,65.4732 39.4610667,65.2756 C39.5390667,65.2617333 39.6153333,65.2721333 39.6933333,65.2513333 C40.8321333,64.9341333 41.5982667,63.9288 41.5982667,62.7484 L41.5982667,19.0666667 L74.5316,19.0666667 L74.5316,100.533333 L74.5333333,100.533333 Z M38.376,16.4372 L38.3708,16.4493333 L38.1333333,16.9242667 L38.1333333,16.9970667 L37.96,17.3957333 L38.1333333,17.6592 L38.1333333,17.8533333 L38.1333333,59.6093333 L29.4666667,45.1654667 L20.8,59.6093333 L20.8,17.7424 L23.6045333,12.1333333 L40.5288,12.1333333 L38.376,16.4372 Z M42.6712,15.6 L46.1378667,8.66666667 L21.4621333,8.66666667 L17.9954667,15.6 L9.9008,15.6 C6.61786667,15.6 3.8064,13.2097333 3.4996,10.1573333 C3.32453333,8.42746667 3.87053333,6.7652 5.03706667,5.4756 C6.18973333,4.19813333 7.82946667,3.46666667 9.53333333,3.46666667 L74.5333333,3.46666667 L74.5333333,5.2 L65.8666667,5.2 C64.9081333,5.2 64.1333333,5.9748 64.1333333,6.93333333 C64.1333333,7.89186667 64.9081333,8.66666667 65.8666667,8.66666667 L74.5333333,8.66666667 L74.5333333,10.4 L67.6,10.4 C66.6414667,10.4 65.8666667,11.1748 65.8666667,12.1333333 C65.8666667,13.0918667 66.6414667,13.8666667 67.6,13.8666667 L74.5333333,13.8666667 L74.5333333,15.6 L42.6712,15.6 Z"></path>
                </g>
            </g>
        </g>
    </g>
</svg>