<?xml version="1.0" encoding="UTF-8"?>
<svg width="140px" height="200px" viewBox="0 0 140 200" version="1.1" xmlns="http://www.w3.org/2000/svg" xmlns:xlink="http://www.w3.org/1999/xlink">
    <!-- Generator: Sketch 59.1 (86144) - https://sketch.com -->
    <title>view-all</title>
    <desc>Created with Sketch.</desc>
    <defs>
        <rect id="path-1" x="0" y="0" width="140" height="200" rx="3"></rect>
    </defs>
    <g id="others" stroke="none" stroke-width="1" fill="none" fill-rule="evenodd">
        <g id="view-all">
            <mask id="mask-2" fill="white">
                <use xlink:href="#path-1"></use>
            </mask>
            <use id="Mask" fill="#F9EDE5" xlink:href="#path-1"></use>
            <path d="M44,165.5 C44,198.921371 71.078629,226 104.5,226 C137.921371,226 165,198.921371 165,165.5 C165,132.078629 137.921371,105 104.5,105 C71.078629,105 44,132.078629 44,165.5 Z M105,112 C134.125511,112 158,135.579997 158,165 C158,194.125511 134.420003,218 105,218 C75.8744891,218 52,194.420003 52,165 C52,135.874489 75.5799967,112 105,112 Z M107.701432,133.860298 L136.129341,161.925608 C137.29022,163.072672 137.29022,164.927328 136.129341,166.074392 L107.701432,194.139702 C106.540553,195.286766 104.663561,195.286766 103.502682,194.139702 L101.798387,192.455688 C100.637749,191.308861 100.637749,189.405111 101.847832,188.282594 L122.989917,168.148785 L75.9638233,168.148785 C74.333817,168.148785 73,166.83084 73,165.220231 L73,162.779769 C73,161.16916 74.333817,159.851215 75.9638233,159.851215 L122.965074,159.851215 L101.82323,139.717406 C100.637749,138.570342 100.612906,136.691139 101.773785,135.544312 L103.47808,133.860298 C104.663561,132.713234 106.540553,132.713234 107.701432,133.860298 Z" id="a" fill="#FF6200" fill-rule="nonzero" mask="url(#mask-2)"></path>
            <path d="M18.94,20.8 L22.78,31.54 L26.58,20.8 L29.48,20.8 L23.94,35 L21.62,35 L16.04,20.8 L18.94,20.8 Z M30.74,35 L30.74,24.52 L33.42,24.52 L33.42,35 L30.74,35 Z M30.74,23.06 L30.74,20.4 L33.42,20.4 L33.42,23.06 L30.74,23.06 Z M40.7,35.2 C39.8599958,35.2 39.1000034,35.0566681 38.42,34.77 C37.7399966,34.4833319 37.1600024,34.0933358 36.68,33.6 C36.1999976,33.1066642 35.8300013,32.5333366 35.57,31.88 C35.3099987,31.2266634 35.18,30.5400036 35.18,29.82 C35.18,29.0733296 35.3066654,28.3700033 35.56,27.71 C35.8133346,27.0499967 36.18,26.4700025 36.66,25.97 C37.1400024,25.4699975 37.7233299,25.0733348 38.41,24.78 C39.0966701,24.4866652 39.8666624,24.34 40.72,24.34 C41.5733376,24.34 42.3366633,24.4866652 43.01,24.78 C43.6833367,25.0733348 44.2566643,25.4666642 44.73,25.96 C45.2033357,26.4533358 45.5633321,27.0266634 45.81,27.68 C46.0566679,28.3333366 46.18,29.0133298 46.18,29.72 C46.18,29.8933342 46.1766667,30.0599992 46.17,30.22 C46.1633333,30.3800008 46.1466668,30.5133328 46.12,30.62 L38.02,30.62 C38.0600002,31.0333354 38.1599992,31.3999984 38.32,31.72 C38.4800008,32.0400016 38.6866654,32.3133322 38.94,32.54 C39.1933346,32.7666678 39.4799984,32.9399994 39.8,33.06 C40.1200016,33.1800006 40.4533316,33.24 40.8,33.24 C41.333336,33.24 41.8366643,33.1100013 42.31,32.85 C42.7833357,32.5899987 43.1066658,32.2466688 43.28,31.82 L45.58,32.46 C45.1933314,33.260004 44.5766709,33.9166641 43.73,34.43 C42.8833291,34.9433359 41.8733392,35.2 40.7,35.2 Z M43.42,28.88 C43.353333,28.0933294 43.0633359,27.4633357 42.55,26.99 C42.0366641,26.5166643 41.413337,26.28 40.68,26.28 C40.3199982,26.28 39.9833349,26.3433327 39.67,26.47 C39.3566651,26.5966673 39.0800012,26.7733322 38.84,27 C38.5999988,27.2266678 38.4033341,27.4999984 38.25,27.82 C38.0966659,28.1400016 38.0066668,28.4933314 37.98,28.88 L43.42,28.88 Z M60.54,24.52 L63.08,24.52 L58.7,35 L56.5,35 L54.7,30.4 L52.92,35 L50.72,35 L46.36,24.52 L48.88,24.52 L52,32.48 L53.28,29.08 L51.44,24.54 L53.6,24.54 L54.7,27.76 L55.82,24.54 L57.98,24.54 L56.16,29.08 L57.42,32.48 L60.54,24.52 Z M71.44,35.2 C70.9333308,35.2 70.4600022,35.1166675 70.02,34.95 C69.5799978,34.7833325 69.2000016,34.5500015 68.88,34.25 C68.5599984,33.9499985 68.3100009,33.600002 68.13,33.2 C67.9499991,32.799998 67.86,32.3600024 67.86,31.88 C67.86,31.3866642 67.9699989,30.9300021 68.19,30.51 C68.4100011,30.0899979 68.7166647,29.7333348 69.11,29.44 C69.5033353,29.1466652 69.9733306,28.9166675 70.52,28.75 C71.0666694,28.5833325 71.6666634,28.5 72.32,28.5 C72.786669,28.5 73.2433311,28.5399996 73.69,28.62 C74.1366689,28.7000004 74.5333316,28.8133326 74.88,28.96 L74.88,28.36 C74.88,27.6666632 74.6833353,27.1333352 74.29,26.76 C73.8966647,26.3866648 73.3133372,26.2 72.54,26.2 C71.9799972,26.2 71.433336,26.299999 70.9,26.5 C70.366664,26.700001 69.8200028,26.9933314 69.26,27.38 L68.44,25.68 C69.7866734,24.7866622 71.2399922,24.34 72.8,24.34 C74.3066742,24.34 75.4766625,24.7099963 76.31,25.45 C77.1433375,26.1900037 77.56,27.259993 77.56,28.66 L77.56,31.92 C77.56,32.2000014 77.6099995,32.3999994 77.71,32.52 C77.8100005,32.6400006 77.9733322,32.7066666 78.2,32.72 L78.2,35 C77.7466644,35.0933338 77.353335,35.14 77.02,35.14 C76.5133308,35.14 76.1233347,35.0266678 75.85,34.8 C75.5766653,34.5733322 75.406667,34.2733352 75.34,33.9 L75.28,33.32 C74.813331,33.9333364 74.24667,34.3999984 73.58,34.72 C72.91333,35.0400016 72.2000038,35.2 71.44,35.2 Z M72.2,33.24 C72.6533356,33.24 73.0833313,33.1600008 73.49,33 C73.8966687,32.8399992 74.2133322,32.626668 74.44,32.36 C74.7333348,32.1333322 74.88,31.8800014 74.88,31.6 L74.88,30.4 C74.5599984,30.2799994 74.2133352,30.1833337 73.84,30.11 C73.4666648,30.0366663 73.1066684,30 72.76,30 C72.0666632,30 71.5000022,30.1566651 71.06,30.47 C70.6199978,30.7833349 70.4,31.1799976 70.4,31.66 C70.4,32.1133356 70.5733316,32.4899985 70.92,32.79 C71.2666684,33.0900015 71.6933308,33.24 72.2,33.24 Z M80.04,20.4 L82.72,20.4 L82.72,31.64 C82.72,32.0266686 82.8133324,32.3266656 83,32.54 C83.1866676,32.7533344 83.4533316,32.86 83.8,32.86 C83.9600008,32.86 84.1366657,32.8333336 84.33,32.78 C84.5233343,32.7266664 84.7066658,32.6600004 84.88,32.58 L85.24,34.62 C84.8799982,34.7933342 84.4600024,34.9266662 83.98,35.02 C83.4999976,35.1133338 83.0666686,35.16 82.68,35.16 C81.8399958,35.16 81.1900023,34.9366689 80.73,34.49 C80.2699977,34.0433311 80.04,33.4066708 80.04,32.58 L80.04,20.4 Z M86.38,20.4 L89.06,20.4 L89.06,31.64 C89.06,32.0266686 89.1533324,32.3266656 89.34,32.54 C89.5266676,32.7533344 89.7933316,32.86 90.14,32.86 C90.3000008,32.86 90.4766657,32.8333336 90.67,32.78 C90.8633343,32.7266664 91.0466658,32.6600004 91.22,32.58 L91.58,34.62 C91.2199982,34.7933342 90.8000024,34.9266662 90.32,35.02 C89.8399976,35.1133338 89.4066686,35.16 89.02,35.16 C88.1799958,35.16 87.5300023,34.9366689 87.07,34.49 C86.6099977,34.0433311 86.38,33.4066708 86.38,32.58 L86.38,20.4 Z" id="Viewall" fill="#FF6200" fill-rule="nonzero" mask="url(#mask-2)"></path>
        </g>
    </g>
</svg>