<?xml version="1.0" encoding="UTF-8"?>
<svg width="140px" height="200px" viewBox="0 0 140 200" version="1.1" xmlns="http://www.w3.org/2000/svg" xmlns:xlink="http://www.w3.org/1999/xlink">
    <!-- Generator: Sketch 59.1 (86144) - https://sketch.com -->
    <title>Ncert</title>
    <desc>Created with Sketch.</desc>
    <defs>
        <rect id="path-1" x="0" y="0" width="140" height="200" rx="3"></rect>
    </defs>
    <g id="others" stroke="none" stroke-width="1" fill="none" fill-rule="evenodd">
        <g id="Ncert">
            <mask id="mask-2" fill="white">
                <use xlink:href="#path-1"></use>
            </mask>
            <use id="Mask" fill="#E3E2ED" xlink:href="#path-1"></use>
            <g id="Group-9" mask="url(#mask-2)">
                <g transform="translate(16.336000, 22.720000)">
                    <g id="182321" stroke-width="1" fill="none" fill-rule="evenodd" transform="translate(5.664000, 96.280000)">
                        <path d="M82.7013189,0.10798826 C83.2266578,-0.087642618 83.8113636,-0.0145300599 84.266976,0.30341992 C84.7259751,0.621170684 84.9997012,1.14311865 84.9997012,1.70072641 L84.9997012,1.70072641 L84.9997012,71.4001034 C84.9997012,72.1328228 84.5321357,72.7804765 83.8368636,73.0133609 C69.1861142,77.8963196 52.7165884,87.6562237 51.9052279,88.1389798 L51.8752659,88.1568244 C51.3499271,88.4729814 50.6937018,88.4815478 50.1615895,88.1789375 C49.6294773,87.8781201 49.2997709,87.3119461 49.2997709,86.6999521 L49.2997709,86.6999521 L49.2997709,19.8021607 C47.2137554,18.9299896 41.8980119,17.0005751 35.6997311,17.0005751 C23.6213211,17.0005751 13.5946609,19.1816004 10.1997809,20.0163187 L10.1997809,20.0163187 L10.1997809,91.3120198 C14.3443196,90.3310764 23.9900742,88.3998689 35.6997311,88.3998689 C43.016623,88.3998689 49.0650917,90.7731384 51.0660409,91.6570632 C53.3170091,90.832505 60.5928621,88.3998689 67.9998008,88.3998689 C79.3932981,88.3998689 87.9475353,90.2306711 91.7998207,91.240501 L91.7998207,91.240501 L91.7998207,20.0826579 C91.2388218,19.9702996 90.5112763,19.8292541 89.6424851,19.6694823 C88.7193072,19.4995504 88.1091013,18.6138326 88.2790346,17.6890683 C88.4491671,16.7676907 89.3380794,16.1556967 90.2578706,16.3256286 C92.5359325,16.7439839 93.8687034,17.0414145 93.8687034,17.0414145 C94.647448,17.2131394 95.1998805,17.9034255 95.1998805,18.7006911 L95.1998805,18.7006911 L95.1998805,93.4996192 C95.1998805,94.0454732 94.9381075,94.5588548 94.4944483,94.8783986 C94.0474023,95.1981415 93.476044,95.2830078 92.9644512,95.1130759 C92.8642444,95.0792091 82.8086976,91.7999017 68,91.7999017 C61.6351726,91.7999017 55.1787047,93.8211551 52.7000299,94.6881465 L52.7000299,94.6881465 L52.7000299,98.599768 L93.4999502,98.599768 C96.3117181,98.599768 98.5999402,96.3115641 98.5999402,93.4998184 L98.5999402,93.4998184 L98.5999402,27.2004742 C98.5999402,26.2621632 99.3597591,25.5005574 100.299871,25.5005574 C101.239982,25.5005574 102,26.2621632 102,27.2006734 L102,27.2006734 L102,93.5000177 C102,98.1869908 98.1867614,102 93.4999502,102 L93.4999502,102 L8.5000498,102 C3.81303943,102 0,98.1867916 0,93.5000177 L0,93.5000177 L0,27.2006734 C0,26.2623624 0.761611794,25.5007566 1.69993027,25.5007566 C2.63824875,25.5007566 3.39986055,26.2623624 3.39986055,27.2006734 L3.39986055,27.2006734 L3.39986055,93.5000177 C3.39986055,96.3117633 5.68808264,98.5999672 8.49985059,98.5999672 L8.49985059,98.5999672 L49.2997709,98.5999672 L49.2997709,94.6032802 C47.2257085,93.734695 41.9149455,91.8001009 35.6997311,91.8001009 C21.1615113,91.8001009 9.5955382,94.9595416 8.98968823,95.1271223 L8.96562311,95.1337945 C8.81262341,95.1780206 8.656237,95.2001337 8.49985059,95.2001337 C8.13428489,95.2001337 7.77389888,95.082795 7.4746729,94.8566839 C7.05133388,94.5353473 6.79972109,94.0321257 6.79972109,93.5000177 L6.79972109,93.5000177 L6.79972109,18.7006911 C6.79972109,17.942472 7.30294667,17.2742989 8.03228509,17.0669143 C8.52873725,16.9242751 20.3386009,13.6007415 35.6997311,13.6007415 C44.5006006,13.6007415 51.4670674,17.0348404 51.75952,17.1792725 C52.3358587,17.4681369 52.6996314,18.056424 52.6996314,18.7006911 L52.6996314,18.7006911 L52.6996314,83.747161 C57.879508,80.7995495 69.9953711,74.215435 81.5996414,70.1830881 L81.5996414,70.1830881 L81.5996414,4.18635417 C69.0996854,9.21319117 57.1264626,16.6625042 57.0007559,16.7423901 C56.203484,17.2404321 55.1545993,16.9973876 54.6581472,16.2017158 C54.1601012,15.406044 54.4031477,14.3571676 55.1988258,13.8591257 C55.3366849,13.7740601 69.0996854,5.20953155 82.7013189,0.10798826 Z M19.3162527,72.4374143 C19.8014801,72.3073122 31.3449569,69.2665139 41.5031163,71.6533273 C42.3881695,71.8608343 42.9375926,72.7470341 42.7305469,73.6314966 C42.5233083,74.5176964 41.6332428,75.0645498 40.7532019,74.8603242 C31.3927664,72.6613288 20.2788035,75.5884326 20.1685333,75.6197034 C20.0252977,75.6577303 19.8822549,75.6774194 19.7407544,75.6774194 C19.0151302,75.6774194 18.3506174,75.1913703 18.1532106,74.4551547 C17.918019,73.575711 18.439489,72.6729106 19.3162527,72.4374143 Z M73.5355682,59.3022656 C74.4090566,59.0290982 75.3268845,59.5112378 75.6000545,60.3764287 C75.8747667,61.2416196 75.3945505,62.1661863 74.5291588,62.440896 C69.981008,63.8775565 60.9816824,68.4074193 60.0511519,68.8782087 L59.9736533,68.91749 C59.7349911,69.0391334 59.4784002,69.0967742 59.2283639,69.0967742 C58.6295877,69.0967742 58.0504751,68.7678937 57.7593766,68.1986181 C57.3481758,67.3877908 57.6705048,66.3972937 58.4799901,65.9860967 C58.8879136,65.7788596 68.5049612,60.8930757 73.5355682,59.3022656 Z M19.3162527,62.5666399 C19.8014801,62.4348084 31.3449569,59.3959287 41.5031163,61.7825997 C42.3881695,61.9900943 42.9375926,62.8762412 42.7305469,63.7606509 C42.5233083,64.6467978 41.6332428,65.1953558 40.7532019,64.9894053 C31.3927664,62.7905411 20.2788035,65.7174702 20.1685333,65.7487391 C20.0252977,65.7867637 19.8822549,65.8064516 19.7407544,65.8064516 C19.0151302,65.8064516 18.3506174,65.3204316 18.1532106,64.5842599 C17.918019,63.7048687 18.439489,62.8021222 19.3162527,62.5666399 Z M73.5355682,49.4313146 C74.4090566,49.1581476 75.3268845,49.6400936 75.6000545,50.5054758 C75.8747667,51.3706653 75.3945505,52.2952304 74.5291588,52.5699396 C69.981008,54.0065977 60.9816824,58.5364528 60.0511519,59.0072413 L59.9736533,59.0465225 C59.7349911,59.1681657 59.4784002,59.2258065 59.2283639,59.2258065 C58.6295877,59.2258065 58.0504751,58.8969265 57.7593766,58.3276519 C57.3481758,57.516826 57.6705048,56.5263306 58.4799901,56.1151343 C58.8879136,55.9078975 68.5049612,51.0221219 73.5355682,49.4313146 Z M19.3162527,52.6951754 C19.8014801,52.5633237 31.3449569,49.5257156 41.5031163,51.911015 C42.3881695,52.1185415 42.9375926,53.0048242 42.7305469,53.8893695 C42.5233083,54.7756523 41.6332428,55.3242943 40.7532019,55.1183123 C31.3927664,52.919111 20.2788035,55.8464888 20.1685333,55.8777626 C20.0252977,55.915793 19.8822549,55.9354839 19.7407544,55.9354839 C19.0151302,55.9354839 18.3506174,55.4493893 18.1532106,54.7131048 C17.918019,53.8335787 18.439489,52.9306938 19.3162527,52.6951754 Z M73.5355682,39.5603469 C74.4090566,39.2871799 75.3268845,39.7691259 75.6000545,40.6345081 C75.8747667,41.4996975 75.3945505,42.4242627 74.5291588,42.6989719 C69.981008,44.1356299 60.9816824,48.665485 60.0511519,49.1362736 L59.9736533,49.1755548 C59.7349911,49.297198 59.4784002,49.3548387 59.2283639,49.3548387 C58.6295877,49.3548387 58.0504751,49.0259588 57.7593766,48.4566842 C57.3481758,47.6458583 57.6705048,46.6553629 58.4799901,46.2441666 C58.8879136,46.0369298 68.5049612,41.1511542 73.5355682,39.5603469 Z M19.3162527,42.8246112 C19.8014801,42.6944434 31.3449569,39.6538459 41.5031163,42.0401278 C42.3881695,42.2477397 42.9375926,43.1343875 42.7305469,44.0192972 C42.5233083,44.905945 41.6332428,45.454813 40.7532019,45.2487461 C31.3927664,43.048639 20.2788035,45.9772226 20.1685333,46.0085092 C20.0252977,46.0463622 19.8822549,46.0645161 19.7407544,46.0645161 C19.0151302,46.0645161 18.3506174,45.5799595 18.1532106,44.8433717 C17.918019,43.9634834 18.439489,43.0602266 19.3162527,42.8246112 Z M73.5355682,29.6893791 C74.4090566,29.4162122 75.3268845,29.8981581 75.6000545,30.7635404 C75.8747667,31.6287298 75.3945505,32.553295 74.5291588,32.8280042 C69.981008,34.2646622 60.9816824,38.7945173 60.0511519,39.2653058 L59.9736533,39.3045871 C59.7349911,39.4262302 59.4784002,39.483871 59.2283639,39.483871 C58.6295877,39.483871 58.0504751,39.154991 57.7593766,38.5857164 C57.3481758,37.7748905 57.6705048,36.7843951 58.4799901,36.3731988 C58.8879136,36.165962 68.5049612,31.2801864 73.5355682,29.6893791 Z M19.3162527,32.9541403 C19.8014801,32.8239924 31.3449569,29.7821234 41.5031163,32.1697772 C42.3881695,32.3773573 42.9375926,33.2638691 42.7305469,34.1486431 C42.5233083,35.0351549 41.6332428,35.5839388 40.7532019,35.3779034 C31.3927664,33.1781337 20.2788035,36.1062682 20.1685333,36.13755 C20.0252977,36.1753972 19.8822549,36.1935484 19.7407544,36.1935484 C19.0151302,36.1935484 18.3506174,35.7090661 18.1532106,34.9725912 C17.918019,34.0926447 18.439489,33.1897196 19.3162527,32.9541403 Z M73.535564,18.1732501 C74.4090541,17.9000831 75.3268838,18.3820291 75.6000543,19.2474113 C75.8747671,20.1126007 75.3945499,21.0371659 74.5291566,21.3118751 C69.9809969,22.7485332 60.9816536,27.2783883 60.0511213,27.7491768 L59.9736226,27.788458 C59.7349598,27.9101012 59.4783685,27.9677419 59.2283317,27.9677419 C58.6295543,27.9677419 58.0504406,27.6386692 57.7593415,27.0695874 C57.3481399,26.2585687 57.6706623,25.2682661 58.4799564,24.8570698 C58.8878807,24.649833 68.5049472,19.7640574 73.535564,18.1732501 Z" id="Combined-Shape" fill="#615AA7" fill-rule="nonzero"></path>
                    </g>
                    <path d="M0.864,69.28 L0.864,63.676 L-4.61852778e-13,63.676 L-4.61852778e-13,63.028 L0.864,63.028 L0.864,62.86 C0.864,62.0919962 1.02799836,61.4900022 1.356,61.054 C1.68400164,60.6179978 2.13199716,60.4 2.7,60.4 C2.94800124,60.4 3.18799884,60.4359996 3.42,60.508 C3.65200116,60.5800004 3.85199916,60.6759994 4.02,60.796 L3.768,61.384 C3.65599944,61.2959996 3.51800082,61.2280002 3.354,61.18 C3.18999918,61.1319998 3.02400084,61.108 2.856,61.108 C2.47199808,61.108 2.180001,61.2559985 1.98,61.552 C1.779999,61.8480015 1.68,62.2759972 1.68,62.836 L1.68,63.028 L3.408,63.028 L3.408,63.676 L1.68,63.676 L1.68,69.28 L0.864,69.28 Z M6.876,69.4 C6.41999772,69.4 6.00400188,69.3140009 5.628,69.142 C5.25199812,68.9699991 4.92600138,68.7360015 4.65,68.44 C4.37399862,68.1439985 4.16000076,67.800002 4.008,67.408 C3.85599924,67.015998 3.78,66.6040022 3.78,66.172 C3.78,65.7319978 3.85799922,65.316002 4.014,64.924 C4.17000078,64.531998 4.38599862,64.1880015 4.662,63.892 C4.93800138,63.5959985 5.26399812,63.3600009 5.64,63.184 C6.01600188,63.0079991 6.42799776,62.92 6.876,62.92 C7.32400224,62.92 7.7379981,63.0079991 8.118,63.184 C8.4980019,63.3600009 8.82599862,63.5959985 9.102,63.892 C9.37800138,64.1880015 9.59399922,64.531998 9.75,64.924 C9.90600078,65.316002 9.984,65.7319978 9.984,66.172 C9.984,66.6040022 9.90800076,67.015998 9.756,67.408 C9.60399924,67.800002 9.39000138,68.1439985 9.114,68.44 C8.83799862,68.7360015 8.5100019,68.9699991 8.13,69.142 C7.7499981,69.3140009 7.33200228,69.4 6.876,69.4 Z M4.608,66.184 C4.608,66.5360018 4.6679994,66.8619985 4.788,67.162 C4.9080006,67.4620015 5.06999898,67.7259989 5.274,67.954 C5.47800102,68.1820011 5.71799862,68.3599994 5.994,68.488 C6.27000138,68.6160006 6.56399844,68.68 6.876,68.68 C7.18800156,68.68 7.48199862,68.6140007 7.758,68.482 C8.03400138,68.3499993 8.27599896,68.1700011 8.484,67.942 C8.69200104,67.7139989 8.8559994,67.4480015 8.976,67.144 C9.0960006,66.8399985 9.156,66.5120018 9.156,66.16 C9.156,65.8159983 9.0960006,65.4900015 8.976,65.182 C8.8559994,64.8739985 8.69200104,64.6060011 8.484,64.378 C8.27599896,64.1499989 8.03400138,63.9700007 7.758,63.838 C7.48199862,63.7059993 7.18800156,63.64 6.876,63.64 C6.56399844,63.64 6.27200136,63.7059993 6,63.838 C5.72799864,63.9700007 5.48800104,64.1519988 5.28,64.384 C5.07199896,64.6160012 4.9080006,64.8859985 4.788,65.194 C4.6679994,65.5020015 4.608,65.8319982 4.608,66.184 Z M14.472,63.748 C13.9199972,63.7640001 13.440002,63.9159986 13.032,64.204 C12.623998,64.492 12.3360008,64.8879975 12.168,65.392 L12.168,69.28 L11.352,69.28 L11.352,63.028 L12.12,63.028 L12.12,64.528 C12.352,64.0479976 12.663998,63.6720014 13.056,63.4 C13.448002,63.1279986 13.8679978,62.992 14.316,62.992 C14.3800003,62.992 14.4319998,62.996 14.472,63.004 L14.472,63.748 Z M17.904,66.136 C17.904,65.6959978 17.9799992,65.280002 18.132,64.888 C18.2840008,64.495998 18.4979986,64.1540015 18.774,63.862 C19.0500014,63.5699985 19.3799981,63.3400008 19.764,63.172 C20.1480019,63.0039992 20.5719977,62.92 21.036,62.92 C21.628003,62.92 22.1439978,63.0539987 22.584,63.322 C23.0240022,63.5900013 23.3559989,63.9519977 23.58,64.408 L22.788,64.66 C22.6119991,64.3399984 22.3660016,64.0900009 22.05,63.91 C21.7339984,63.7299991 21.3840019,63.64 21,63.64 C20.6799984,63.64 20.3820014,63.7039994 20.106,63.832 C19.8299986,63.9600006 19.590001,64.1339989 19.386,64.354 C19.181999,64.5740011 19.0220006,64.8359985 18.906,65.14 C18.7899994,65.4440015 18.732,65.7759982 18.732,66.136 C18.732,66.4880018 18.7919994,66.8199984 18.912,67.132 C19.0320006,67.4440016 19.195999,67.7139989 19.404,67.942 C19.612001,68.1700011 19.8539986,68.3499993 20.13,68.482 C20.4060014,68.6140007 20.6999984,68.68 21.012,68.68 C21.212001,68.68 21.409999,68.6520003 21.606,68.596 C21.802001,68.5399997 21.9839992,68.4620005 22.152,68.362 C22.3200008,68.2619995 22.4639994,68.1480006 22.584,68.02 C22.7040006,67.8919994 22.7879998,67.7560007 22.836,67.612 L23.64,67.852 C23.5519996,68.0760011 23.4240008,68.2819991 23.256,68.47 C23.0879992,68.6580009 22.8900011,68.8219993 22.662,68.962 C22.4339989,69.1020007 22.1820014,69.2099996 21.906,69.286 C21.6299986,69.3620004 21.3440015,69.4 21.048,69.4 C20.5919977,69.4 20.1720019,69.3140009 19.788,69.142 C19.404,68.9699991 19.0720014,68.7340015 18.792,68.434 C18.5119986,68.1339985 18.2940008,67.788002 18.138,67.396 C17.9819992,67.003998 17.904,66.5840022 17.904,66.136 Z M24.96,60.52 L25.776,60.52 L25.776,67.864 C25.776,68.0960012 25.8399994,68.2779993 25.968,68.41 C26.0960006,68.5420007 26.2759988,68.608 26.508,68.608 C26.5960004,68.608 26.6999994,68.5960001 26.82,68.572 C26.9400006,68.5479999 27.0519995,68.5160002 27.156,68.476 L27.3,69.136 C27.1479992,69.2000003 26.9620011,69.2519998 26.742,69.292 C26.5219989,69.3320002 26.3320008,69.352 26.172,69.352 C25.7959981,69.352 25.5000011,69.2460011 25.284,69.034 C25.0679989,68.8219989 24.96,68.5240019 24.96,68.14 L24.96,60.52 Z M29.76,69.4 C29.4639985,69.4 29.1900013,69.3500005 28.938,69.25 C28.6859987,69.1499995 28.4660009,69.0120009 28.278,68.836 C28.0899991,68.6599991 27.9440005,68.4540012 27.84,68.218 C27.7359995,67.9819988 27.684,67.7280014 27.684,67.456 C27.684,67.1839986 27.7479994,66.9320012 27.876,66.7 C28.0040006,66.4679988 28.184,66.2680008 28.416,66.1 C28.6480012,65.9319992 28.9239984,65.8020005 29.244,65.71 C29.5640016,65.6179995 29.9159981,65.572 30.3,65.572 C30.6200016,65.572 30.9439984,65.5999997 31.272,65.656 C31.6000016,65.7120003 31.8919987,65.7919995 32.148,65.896 L32.148,65.332 C32.148,64.7799972 31.9920016,64.3420016 31.68,64.018 C31.3679984,63.6939984 30.9360028,63.532 30.384,63.532 C30.0639984,63.532 29.7360017,63.5959994 29.4,63.724 C29.0639983,63.8520006 28.7240017,64.0359988 28.38,64.276 L28.092,63.736 C28.900004,63.1919973 29.684,62.92 30.444,62.92 C31.2280039,62.92 31.8439978,63.1399978 32.292,63.58 C32.7400022,64.0200022 32.964,64.6279961 32.964,65.404 L32.964,68.224 C32.964,68.4480011 33.063999,68.56 33.264,68.56 L33.264,69.28 L33.0839999,69.307 C33.032,69.313 32.9880002,69.316 32.952,69.316 C32.743999,69.316 32.5820006,69.2640005 32.466,69.16 C32.3499994,69.0559995 32.288,68.9120009 32.28,68.728 L32.256,68.236 C31.9679986,68.6120019 31.6060022,68.899999 31.17,69.1 C30.7339978,69.300001 30.2640025,69.4 29.76,69.4 Z M29.952,68.776 C30.3760021,68.776 30.7659982,68.6960008 31.122,68.536 C31.4780018,68.3759992 31.7479991,68.1640013 31.932,67.9 C32.0040004,67.8279996 32.0579998,67.7500004 32.094,67.666 C32.1300002,67.5819996 32.148,67.5040004 32.148,67.432 L32.148,66.412 C31.8759986,66.3079995 31.5940015,66.2280003 31.302,66.172 C31.0099985,66.1159997 30.7120015,66.088 30.408,66.088 C29.8319971,66.088 29.3640018,66.2079988 29.004,66.448 C28.6439982,66.6880012 28.464,67.003998 28.464,67.396 C28.464,67.588 28.5019996,67.7679992 28.578,67.936 C28.6540004,68.1040008 28.7579993,68.2499994 28.89,68.374 C29.0220007,68.4980006 29.1799991,68.5959996 29.364,68.668 C29.5480009,68.7400004 29.743999,68.776 29.952,68.776 Z M36.804,69.4 C36.3159976,69.4 35.8400023,69.3200008 35.376,69.16 C34.9119977,68.9999992 34.5120017,68.7680015 34.176,68.464 L34.548,67.912 C34.9000018,68.2000014 35.2579982,68.4159993 35.622,68.56 C35.9860018,68.7040007 36.3759979,68.776 36.792,68.776 C37.2960025,68.776 37.6979985,68.674001 37.998,68.47 C38.2980015,68.265999 38.448,67.9760019 38.448,67.6 C38.448,67.4239991 38.4080004,67.2780006 38.328,67.162 C38.2479996,67.0459994 38.1300008,66.9440004 37.974,66.856 C37.8179992,66.7679996 37.6220012,66.6900003 37.386,66.622 C37.1499988,66.5539997 36.8760016,66.4840004 36.564,66.412 C36.2039982,66.3239996 35.8920013,66.2360004 35.628,66.148 C35.3639987,66.0599996 35.1460009,65.9600006 34.974,65.848 C34.8019991,65.7359994 34.6740004,65.5980008 34.59,65.434 C34.5059996,65.2699992 34.464,65.0640012 34.464,64.816 C34.464,64.5039984 34.5259994,64.2280012 34.65,63.988 C34.7740006,63.7479988 34.9419989,63.5500008 35.154,63.394 C35.3660011,63.2379992 35.6139986,63.1200004 35.898,63.04 C36.1820014,62.9599996 36.4839984,62.92 36.804,62.92 C37.2840024,62.92 37.719998,62.9979992 38.112,63.154 C38.504002,63.3100008 38.8199988,63.5159987 39.06,63.772 L38.664,64.252 C38.4319988,64.0119988 38.1500017,63.8320006 37.818,63.712 C37.4859983,63.5919994 37.1400018,63.532 36.78,63.532 C36.5639989,63.532 36.3640009,63.5539998 36.18,63.598 C35.9959991,63.6420002 35.8340007,63.7119995 35.694,63.808 C35.5539993,63.9040005 35.4440004,64.0259993 35.364,64.174 C35.2839996,64.3220007 35.244,64.495999 35.244,64.696 C35.244,64.8640008 35.2719997,64.9999995 35.328,65.104 C35.3840003,65.2080005 35.4759994,65.2979996 35.604,65.374 C35.7320006,65.4500004 35.893999,65.5179997 36.09,65.578 C36.2370007,65.6230002 36.4076246,65.6691249 36.6018745,65.7163749 L36.804,65.764 C37.204002,65.8600005 37.5559985,65.9559995 37.86,66.052 C38.1640015,66.1480005 38.417999,66.2599994 38.622,66.388 C38.826001,66.5160006 38.9799995,66.6719991 39.084,66.856 C39.1880005,67.0400009 39.24,67.2639987 39.24,67.528 C39.24,68.1040029 39.0200022,68.5599983 38.58,68.896 C38.1399978,69.2320017 37.5480037,69.4 36.804,69.4 Z M42.648,69.4 C42.1599976,69.4 41.6840023,69.3200008 41.22,69.16 C40.7559977,68.9999992 40.3560017,68.7680015 40.02,68.464 L40.392,67.912 C40.7440018,68.2000014 41.1019982,68.4159993 41.466,68.56 C41.8300018,68.7040007 42.2199979,68.776 42.636,68.776 C43.1400025,68.776 43.5419985,68.674001 43.842,68.47 C44.1420015,68.265999 44.292,67.9760019 44.292,67.6 C44.292,67.4239991 44.2520004,67.2780006 44.172,67.162 C44.0919996,67.0459994 43.9740008,66.9440004 43.818,66.856 C43.6619992,66.7679996 43.4660012,66.6900003 43.23,66.622 C42.9939988,66.5539997 42.7200016,66.4840004 42.408,66.412 C42.0479982,66.3239996 41.7360013,66.2360004 41.472,66.148 C41.2079987,66.0599996 40.9900009,65.9600006 40.818,65.848 C40.6459991,65.7359994 40.5180004,65.5980008 40.434,65.434 C40.3499996,65.2699992 40.308,65.0640012 40.308,64.816 C40.308,64.5039984 40.3699994,64.2280012 40.494,63.988 C40.6180006,63.7479988 40.7859989,63.5500008 40.998,63.394 C41.2100011,63.2379992 41.4579986,63.1200004 41.742,63.04 C42.0260014,62.9599996 42.3279984,62.92 42.648,62.92 C43.1280024,62.92 43.563998,62.9979992 43.956,63.154 C44.348002,63.3100008 44.6639988,63.5159987 44.904,63.772 L44.508,64.252 C44.2759988,64.0119988 43.9940017,63.8320006 43.662,63.712 C43.3299983,63.5919994 42.9840018,63.532 42.624,63.532 C42.4079989,63.532 42.2080009,63.5539998 42.024,63.598 C41.8399991,63.6420002 41.6780007,63.7119995 41.538,63.808 C41.3979993,63.9040005 41.2880004,64.0259993 41.208,64.174 C41.1279996,64.3220007 41.088,64.495999 41.088,64.696 C41.088,64.8640008 41.1159997,64.9999995 41.172,65.104 C41.2280003,65.2080005 41.3199994,65.2979996 41.448,65.374 C41.5760006,65.4500004 41.737999,65.5179997 41.934,65.578 C42.0810007,65.6230002 42.2516246,65.6691249 42.4458745,65.7163749 L42.648,65.764 C43.048002,65.8600005 43.3999985,65.9559995 43.704,66.052 C44.0080015,66.1480005 44.261999,66.2599994 44.466,66.388 C44.670001,66.5160006 44.8239995,66.6719991 44.928,66.856 C45.0320005,67.0400009 45.084,67.2639987 45.084,67.528 C45.084,68.1040029 44.8640022,68.5599983 44.424,68.896 C43.9839978,69.2320017 43.3920037,69.4 42.648,69.4 Z M55.284,66.472 C55.284,66.880002 55.2060008,67.2619982 55.05,67.618 C54.8939992,67.9740018 54.6800014,68.2839987 54.408,68.548 C54.1359986,68.8120013 53.8160018,69.0199992 53.448,69.172 C53.0799982,69.3240008 52.6840021,69.4 52.26,69.4 C51.8119978,69.4 51.4000019,69.3180008 51.024,69.154 C50.6479981,68.9899992 50.3260013,68.7560015 50.058,68.452 C49.7899987,68.1479985 49.5800008,67.7740022 49.428,67.33 C49.2759992,66.8859978 49.2,66.3880028 49.2,65.836 C49.2,64.9719957 49.2759992,64.2180032 49.428,63.574 C49.5800008,62.9299968 49.7939986,62.3940021 50.07,61.966 C50.3460014,61.5379979 50.6759981,61.220001 51.06,61.012 C51.4440019,60.803999 51.8719976,60.7 52.344,60.7 C52.9120028,60.7 53.4199978,60.8399986 53.868,61.12 C54.3160022,61.4000014 54.6559988,61.7879975 54.888,62.284 L54.36,62.764 C54.1919992,62.355998 53.9280018,62.0300012 53.568,61.786 C53.2079982,61.5419988 52.8000023,61.42 52.344,61.42 C51.9919982,61.42 51.6720014,61.5039992 51.384,61.672 C51.0959986,61.8400008 50.850001,62.0819984 50.646,62.398 C50.441999,62.7140016 50.2820006,63.1039977 50.166,63.568 C50.0499994,64.0320023 49.992,64.5559971 49.992,65.14 C50.1680009,64.6679976 50.4699979,64.2920014 50.898,64.012 C51.3260021,63.7319986 51.8119973,63.592 52.356,63.592 C52.764002,63.592 53.1459982,63.6659993 53.502,63.814 C53.8580018,63.9620007 54.1679987,64.1659987 54.432,64.426 C54.6960013,64.6860013 54.9039992,64.9919982 55.056,65.344 C55.2080008,65.6960018 55.284,66.071998 55.284,66.472 Z M52.284,68.68 C52.5880015,68.68 52.8739987,68.6220006 53.142,68.506 C53.4100013,68.3899994 53.645999,68.232001 53.85,68.032 C54.054001,67.831999 54.2139994,67.5980013 54.33,67.33 C54.4460006,67.0619987 54.504,66.7760015 54.504,66.472 C54.504,66.1679985 54.4440006,65.8820013 54.324,65.614 C54.2039994,65.3459987 54.042001,65.112001 53.838,64.912 C53.633999,64.711999 53.3980013,64.5540006 53.13,64.438 C52.8619987,64.3219994 52.5760015,64.264 52.272,64.264 C51.9679985,64.264 51.6820013,64.3219994 51.414,64.438 C51.1459987,64.5540006 50.910001,64.711999 50.706,64.912 C50.501999,65.112001 50.3420006,65.3459987 50.226,65.614 C50.1099994,65.8820013 50.052,66.1679985 50.052,66.472 C50.052,66.7760015 50.1119994,67.0599987 50.232,67.324 C50.3520006,67.5880013 50.513999,67.821999 50.718,68.026 C50.922001,68.230001 51.1579987,68.3899994 51.426,68.506 C51.6940013,68.6220006 51.9799985,68.68 52.284,68.68 Z M59.652,66.388 L59.652,65.632 L63.156,65.632 L63.156,66.388 L59.652,66.388 Z M71.868,68.536 L71.868,69.28 L67.8,69.28 L67.8,68.536 L69.504,68.536 L69.504,63.4 C69.4399997,63.4960005 69.3300008,63.5999994 69.174,63.712 C69.0179992,63.8240006 68.8460009,63.928 68.658,64.024 C68.4699991,64.1200005 68.276001,64.1999997 68.076,64.264 C67.875999,64.3280003 67.7000008,64.36 67.548,64.36 L67.548,63.568 C67.7320009,63.568 67.9339989,63.5160005 68.154,63.412 C68.3740011,63.3079995 68.581999,63.1880007 68.778,63.052 C68.974001,62.9159993 69.1399993,62.7880006 69.276,62.668 L69.4104003,62.5431998 C69.4632002,62.4903999 69.4944,62.4520001 69.504,62.428 L70.344,62.428 L70.344,68.536 L71.868,68.536 Z M72.66,69.28 C72.66,69.0079986 72.6839998,68.7340014 72.732,68.458 C72.7800002,68.1819986 72.8739993,67.9080014 73.014,67.636 C73.1540007,67.3639986 73.3539987,67.1020013 73.614,66.85 C73.8740013,66.5979987 74.2199978,66.3600011 74.652,66.136 C74.8840012,66.0159994 75.1259987,65.8980006 75.378,65.782 C75.6300013,65.6659994 75.8619989,65.5360007 76.074,65.392 C76.2860011,65.2479993 76.4599993,65.0860009 76.596,64.906 C76.7320007,64.7259991 76.8,64.5160012 76.8,64.276 C76.8,64.1239992 76.7660003,63.9740007 76.698,63.826 C76.6299997,63.6779993 76.5300007,63.5460006 76.398,63.43 C76.2659993,63.3139994 76.102001,63.2200004 75.906,63.148 C75.709999,63.0759996 75.4800013,63.04 75.216,63.04 C74.9519987,63.04 74.716001,63.0779996 74.508,63.154 C74.299999,63.2300004 74.1180008,63.3199995 73.962,63.424 C73.8059992,63.5280005 73.6720006,63.6379994 73.56,63.754 L73.4129999,63.9115001 C73.371,63.9585 73.3360001,63.9999998 73.308,64.036 L72.768,63.448 L73.044,63.184 L73.044,63.184 C73.1800007,63.0559994 73.3579989,62.9280006 73.578,62.8 C73.7980011,62.6719994 74.0559985,62.5580005 74.352,62.458 C74.6480015,62.3579995 74.9799982,62.308 75.348,62.308 C75.7160018,62.308 76.0439986,62.3579995 76.332,62.458 C76.6200014,62.5580005 76.863999,62.6959991 77.064,62.872 C77.264001,63.0480009 77.4159995,63.2499989 77.52,63.478 C77.6240005,63.7060011 77.676,63.9439988 77.676,64.192 C77.676,64.5200016 77.6040007,64.8039988 77.46,65.044 C77.3159993,65.2840012 77.1380011,65.4919991 76.926,65.668 C76.7139989,65.8440009 76.4880012,65.9939994 76.248,66.118 C76.0079988,66.2420006 75.792001,66.3479996 75.6,66.436 C75.3439987,66.5480006 75.0940012,66.6739993 74.85,66.814 C74.6059988,66.9540007 74.388001,67.1079992 74.196,67.276 C74.003999,67.4440008 73.8460006,67.631999 73.722,67.84 C73.5979994,68.048001 73.536,68.2799987 73.536,68.536 L77.808,68.536 L77.808,69.28 L72.66,69.28 Z" id="forclass6-12" fill="#615AA7" fill-rule="nonzero"></path>
                    <path d="M3.904,5.18 L3.904,14.28 L1.144,14.28 L1.144,0.08 L3.284,0.08 L10.684,9.4 L10.684,0.1 L13.444,0.1 L13.444,14.28 L11.204,14.28 L3.904,5.18 Z M15.544,7.08 C15.544,6.213329 15.7006651,5.3566709 16.014,4.51 C16.3273349,3.6633291 16.783997,2.90667 17.384,2.24 C17.984003,1.57333 18.717329,1.0333354 19.584,0.62 C20.450671,0.2066646 21.4373278,1.81188398e-13 22.544,1.81188398e-13 C23.8506732,1.81188398e-13 24.9806619,0.2866638 25.934,0.86 C26.8873381,1.4333362 27.597331,2.1799954 28.064,3.1 L25.944,4.56 C25.7573324,4.159998 25.530668,3.8233347 25.264,3.55 C24.997332,3.2766653 24.7106682,3.0600008 24.404,2.9 C24.0973318,2.7399992 23.777335,2.6233337 23.444,2.55 C23.110665,2.4766663 22.7840016,2.44 22.464,2.44 C21.7706632,2.44 21.1673359,2.5799986 20.654,2.86 C20.1406641,3.1400014 19.7140017,3.5033311 19.374,3.95 C19.0339983,4.3966689 18.7773342,4.9033305 18.604,5.47 C18.4306658,6.0366695 18.344,6.5999972 18.344,7.16 C18.344,7.7866698 18.443999,8.3899971 18.644,8.97 C18.844001,9.5500029 19.1273315,10.0599978 19.494,10.5 C19.8606685,10.9400022 20.3006641,11.293332 20.814,11.56 C21.3273359,11.826668 21.8906636,11.96 22.504,11.96 C22.8240016,11.96 23.1573316,11.9200004 23.504,11.84 C23.8506684,11.7599996 24.1806651,11.6333342 24.494,11.46 C24.8073349,11.2866658 25.097332,11.0633347 25.364,10.79 C25.630668,10.5166653 25.8439992,10.1866686 26.004,9.8 L28.264,11.1 C28.0373322,11.633336 27.7140021,12.1033313 27.294,12.51 C26.8739979,12.9166687 26.4006693,13.2599986 25.874,13.54 C25.3473307,13.8200014 24.784003,14.0333326 24.184,14.18 C23.583997,14.3266674 22.9973362,14.4 22.424,14.4 C21.4106616,14.4 20.4840042,14.1866688 19.644,13.76 C18.8039958,13.3333312 18.0806697,12.7766701 17.474,12.09 C16.8673303,11.4033299 16.3940017,10.6233377 16.054,9.75 C15.7139983,8.8766623 15.544,7.9866712 15.544,7.08 Z M39.984,11.86 L39.984,14.28 L30.124,14.28 L30.124,0.08 L39.804,0.08 L39.804,2.5 L32.884,2.5 L32.884,5.92 L38.864,5.92 L38.864,8.16 L32.884,8.16 L32.884,11.86 L39.984,11.86 Z M42.144,14.28 L42.144,0.08 L48.424,0.08 C49.0773366,0.08 49.6806639,0.2166653 50.234,0.49 C50.7873361,0.7633347 51.263998,1.1233311 51.664,1.57 C52.064002,2.0166689 52.3773322,2.5233305 52.604,3.09 C52.8306678,3.6566695 52.944,4.2266638 52.944,4.8 C52.944,5.7200046 52.7140023,6.5566629 52.254,7.31 C51.7939977,8.0633371 51.1706706,8.606665 50.384,8.94 L53.624,14.28 L50.524,14.28 L47.624,9.52 L44.904,9.52 L44.904,14.28 L42.144,14.28 Z M44.904,7.1 L48.364,7.1 C48.6173346,7.1 48.8539989,7.0400006 49.074,6.92 C49.2940011,6.7999994 49.4839992,6.6366677 49.644,6.43 C49.8040008,6.2233323 49.9306662,5.9800014 50.024,5.7 C50.1173338,5.4199986 50.164,5.1200016 50.164,4.8 C50.164,4.466665 50.1106672,4.1600014 50.004,3.88 C49.8973328,3.5999986 49.7540009,3.3566677 49.574,3.15 C49.3939991,2.9433323 49.1873345,2.7833339 48.954,2.67 C48.7206655,2.5566661 48.4840012,2.5 48.244,2.5 L44.904,2.5 L44.904,7.1 Z M65.844,2.5 L61.304,2.5 L61.304,14.28 L58.564,14.28 L58.564,2.5 L54.024,2.5 L54.024,0.08 L65.844,0.08 L65.844,2.5 Z M9.704,31.06 C9.5439992,30.8733324 9.330668,30.6933342 9.064,30.52 C8.797332,30.3466658 8.497335,30.1900007 8.164,30.05 C7.830665,29.9099993 7.4673353,29.7966671 7.074,29.71 C6.6806647,29.6233329 6.2706688,29.58 5.844,29.58 C4.7373278,29.58 3.9273359,29.7866646 3.414,30.2 C2.9006641,30.6133354 2.644,31.1799964 2.644,31.9 C2.644,32.2866686 2.7173326,32.6066654 2.864,32.86 C3.0106674,33.1133346 3.2406651,33.3299991 3.554,33.51 C3.8673349,33.6900009 4.257331,33.846666 4.724,33.98 L5.32560101,34.1432001 C5.64720084,34.2263999 6,34.3119996 6.384,34.4 C7.117337,34.5600008 7.7806637,34.7433323 8.374,34.95 C8.9673363,35.1566677 9.4739979,35.4133318 9.894,35.72 C10.3140021,36.0266682 10.6339989,36.3999978 10.854,36.84 C11.0740011,37.2800022 11.184,37.8199968 11.184,38.46 C11.184,39.1400034 11.050668,39.7299975 10.784,40.23 C10.517332,40.7300025 10.1540023,41.1433317 9.694,41.47 C9.2339977,41.7966683 8.6906698,42.0366659 8.064,42.19 C7.4373302,42.3433341 6.757337,42.42 6.024,42.42 C4.9306612,42.42 3.8940049,42.2500017 2.914,41.91 C1.9339951,41.5699983 1.044004,41.0733366 0.244,40.42 L1.104,38.9 C1.3173344,39.1266678 1.5939983,39.3533322 1.934,39.58 C2.2740017,39.8066678 2.6606645,40.0099991 3.094,40.19 C3.5273355,40.3700009 3.9939975,40.5166661 4.494,40.63 C4.9940025,40.7433339 5.5173306,40.8 6.064,40.8 C7.0773384,40.8 7.8639972,40.6200018 8.424,40.26 C8.9840028,39.8999982 9.264,39.3600036 9.264,38.64 C9.264,38.239998 9.1740009,37.9033347 8.994,37.63 C8.8139991,37.3566653 8.5506684,37.120001 8.204,36.92 C7.8573316,36.719999 7.4273359,36.5433341 6.914,36.39 C6.50333128,36.2673327 6.04786794,36.1425336 5.54760101,36.0156002 L5.164,35.92 C4.4439964,35.7466658 3.8106694,35.560001 3.264,35.36 C2.7173306,35.159999 2.2606685,34.9200014 1.894,34.64 C1.5273315,34.3599986 1.2506676,34.020002 1.064,33.62 C0.8773324,33.219998 0.784,32.7400028 0.784,32.18 C0.784,31.4999966 0.9106654,30.9000026 1.164,30.38 C1.4173346,29.8599974 1.7706644,29.4200018 2.224,29.06 C2.6773356,28.6999982 3.2173302,28.4300009 3.844,28.25 C4.4706698,28.0699991 5.150663,27.98 5.884,27.98 C6.8440048,27.98 7.7106628,28.1266652 8.484,28.42 C9.2573372,28.7133348 9.943997,29.1066642 10.544,29.6 L9.704,31.06 Z M17.824,42.48 C17.0373294,42.48 16.3206699,42.3333348 15.674,42.04 C15.0273301,41.7466652 14.4740023,41.3533358 14.014,40.86 C13.5539977,40.3666642 13.1973346,39.7933366 12.944,39.14 C12.6906654,38.4866634 12.564,37.8000036 12.564,37.08 C12.564,36.346663 12.6939987,35.6533366 12.954,35 C13.2140013,34.3466634 13.5739977,33.7733358 14.034,33.28 C14.4940023,32.7866642 15.0473301,32.3933348 15.694,32.1 C16.3406699,31.8066652 17.0506628,31.66 17.824,31.66 C18.5973372,31.66 19.3106634,31.8066652 19.964,32.1 C20.6173366,32.3933348 21.1739977,32.7866642 21.634,33.28 C22.0940023,33.7733358 22.4539987,34.3466634 22.714,35 C22.9740013,35.6533366 23.104,36.346663 23.104,37.08 C23.104,37.8000036 22.9773346,38.4866634 22.724,39.14 C22.4706654,39.7933366 22.110669,40.3666642 21.644,40.86 C21.177331,41.3533358 20.6206699,41.7466652 19.974,42.04 C19.3273301,42.3333348 18.6106706,42.48 17.824,42.48 Z M14.364,37.1 C14.364,37.6466694 14.4539991,38.153331 14.634,38.62 C14.8140009,39.086669 15.0606651,39.4933316 15.374,39.84 C15.6873349,40.1866684 16.0539979,40.459999 16.474,40.66 C16.8940021,40.860001 17.3439976,40.96 17.824,40.96 C18.3040024,40.96 18.7539979,40.860001 19.174,40.66 C19.5940021,40.459999 19.9639984,40.1833351 20.284,39.83 C20.6040016,39.4766649 20.8539991,39.0633357 21.034,38.59 C21.2140009,38.1166643 21.304,37.6066694 21.304,37.06 C21.304,36.526664 21.2140009,36.0233357 21.034,35.55 C20.8539991,35.0766643 20.6040016,34.6633351 20.284,34.31 C19.9639984,33.9566649 19.5940021,33.68 19.174,33.48 C18.7539979,33.279999 18.3040024,33.18 17.824,33.18 C17.3439976,33.18 16.8940021,33.2833323 16.474,33.49 C16.0539979,33.6966677 15.6873349,33.9766649 15.374,34.33 C15.0606651,34.6833351 14.8140009,35.0966643 14.634,35.57 C14.4539991,36.0433357 14.364,36.5533306 14.364,37.1 Z M25.284,27.68 L27.044,27.68 L27.044,39.58 C27.044,39.9666686 27.1473323,40.2699989 27.354,40.49 C27.5606677,40.7100011 27.8506648,40.82 28.224,40.82 C28.3706674,40.82 28.543999,40.7966669 28.744,40.75 C28.944001,40.7033331 29.1306658,40.646667 29.304,40.58 L29.584,42 C29.2906652,42.1200006 28.944002,42.2199996 28.544,42.3 C28.143998,42.3800004 27.7906682,42.42 27.484,42.42 C26.8039966,42.42 26.2673353,42.2266686 25.874,41.84 C25.4806647,41.4533314 25.284,40.9133368 25.284,40.22 L25.284,27.68 Z M34.184,42.48 C33.0906612,42.48 32.2640028,42.113337 31.704,41.38 C31.1439972,40.646663 30.864,39.5533406 30.864,38.1 L30.864,31.84 L32.624,31.84 L32.624,37.76 C32.624,39.893344 33.364,40.96 34.844,40.96 C35.5640036,40.96 36.2406635,40.7300023 36.874,40.27 C37.5073365,39.8099977 37.9773318,39.180004 38.284,38.38 L38.284,31.84 L40.044,31.84 L40.044,40.12 C40.044,40.5333354 40.2306648,40.7466666 40.604,40.76 L40.604,42.28 L40.3364998,42.3125 C40.2581667,42.3208334 40.190667,42.3266667 40.134,42.33 C40.0206661,42.3366667 39.9106672,42.34 39.804,42.34 C39.4573316,42.34 39.1673345,42.2366677 38.934,42.03 C38.7006655,41.8233323 38.5773334,41.5666682 38.564,41.26 L38.524,40.04 C38.057331,40.8266706 37.4440038,41.4299979 36.684,41.85 C35.9239962,42.2700021 35.0906712,42.48 34.184,42.48 Z M47.964,40.36 L48.384,41.76 L48.1990001,41.8475 C48.1290003,41.8791666 48.0506671,41.9133332 47.964,41.95 C47.7906658,42.0233337 47.5940011,42.0966663 47.374,42.17 C47.1539989,42.2433337 46.9140013,42.3033331 46.654,42.35 C46.3939987,42.3966669 46.1240014,42.42 45.844,42.42 C45.2039968,42.42 44.650669,42.2433351 44.184,41.89 C43.717331,41.5366649 43.484,40.9866704 43.484,40.24 L43.484,33.22 L42.064,33.22 L42.064,31.84 L43.484,31.84 L43.484,28.36 L45.244,28.36 L45.244,31.84 L47.584,31.84 L47.584,33.22 L45.244,33.22 L45.244,39.7 C45.2706668,40.0866686 45.3973322,40.3666658 45.624,40.54 C45.8506678,40.7133342 46.1173318,40.8 46.424,40.8 C46.7706684,40.8 47.0873319,40.7433339 47.374,40.63 L47.6306672,40.5244443 C47.7817782,40.4592592 47.8928885,40.4044447 47.964,40.36 Z M50.024,42.28 L50.024,31.84 L51.784,31.84 L51.784,42.28 L50.024,42.28 Z M50.024,29.88 L50.024,27.68 L51.784,27.68 L51.784,29.88 L50.024,29.88 Z M59.184,42.48 C58.3973294,42.48 57.6806699,42.3333348 57.034,42.04 C56.3873301,41.7466652 55.8340023,41.3533358 55.374,40.86 C54.9139977,40.3666642 54.5573346,39.7933366 54.304,39.14 C54.0506654,38.4866634 53.924,37.8000036 53.924,37.08 C53.924,36.346663 54.0539987,35.6533366 54.314,35 C54.5740013,34.3466634 54.9339977,33.7733358 55.394,33.28 C55.8540023,32.7866642 56.4073301,32.3933348 57.054,32.1 C57.7006699,31.8066652 58.4106628,31.66 59.184,31.66 C59.9573372,31.66 60.6706634,31.8066652 61.324,32.1 C61.9773366,32.3933348 62.5339977,32.7866642 62.994,33.28 C63.4540023,33.7733358 63.8139987,34.3466634 64.074,35 C64.3340013,35.6533366 64.464,36.346663 64.464,37.08 C64.464,37.8000036 64.3373346,38.4866634 64.084,39.14 C63.8306654,39.7933366 63.470669,40.3666642 63.004,40.86 C62.537331,41.3533358 61.9806699,41.7466652 61.334,42.04 C60.6873301,42.3333348 59.9706706,42.48 59.184,42.48 Z M55.724,37.1 C55.724,37.6466694 55.8139991,38.153331 55.994,38.62 C56.1740009,39.086669 56.4206651,39.4933316 56.734,39.84 C57.0473349,40.1866684 57.4139979,40.459999 57.834,40.66 C58.2540021,40.860001 58.7039976,40.96 59.184,40.96 C59.6640024,40.96 60.1139979,40.860001 60.534,40.66 C60.9540021,40.459999 61.3239984,40.1833351 61.644,39.83 C61.9640016,39.4766649 62.2139991,39.0633357 62.394,38.59 C62.5740009,38.1166643 62.664,37.6066694 62.664,37.06 C62.664,36.526664 62.5740009,36.0233357 62.394,35.55 C62.2139991,35.0766643 61.9640016,34.6633351 61.644,34.31 C61.3239984,33.9566649 60.9540021,33.68 60.534,33.48 C60.1139979,33.279999 59.6640024,33.18 59.184,33.18 C58.7039976,33.18 58.2540021,33.2833323 57.834,33.49 C57.4139979,33.6966677 57.0473349,33.9766649 56.734,34.33 C56.4206651,34.6833351 56.1740009,35.0966643 55.994,35.57 C55.8139991,36.0433357 55.724,36.5533306 55.724,37.1 Z M75.664,42.28 L73.904,42.28 L73.904,36.44 C73.904,35.3199944 73.7340017,34.5066692 73.394,34 C73.0539983,33.4933308 72.5373368,33.24 71.844,33.24 C71.4839982,33.24 71.1240018,33.3099993 70.764,33.45 C70.4039982,33.5900007 70.0640016,33.7799988 69.744,34.02 C69.4239984,34.2600012 69.1440012,34.546665 68.904,34.88 C68.6639988,35.213335 68.4840006,35.579998 68.364,35.98 L68.364,42.28 L66.604,42.28 L66.604,31.84 L68.204,31.84 L68.204,34.08 C68.6173354,33.346663 69.2139961,32.7600022 69.994,32.32 C70.7740039,31.8799978 71.6239954,31.66 72.544,31.66 C73.144003,31.66 73.643998,31.7699989 74.044,31.99 C74.444002,32.2100011 74.7639988,32.5166647 75.004,32.91 C75.2440012,33.3033353 75.4139995,33.766664 75.514,34.3 C75.6140005,34.833336 75.664,35.4133302 75.664,36.04 L75.664,42.28 Z M82.064,42.48 C81.2239958,42.48 80.3973374,42.3500013 79.584,42.09 C78.7706626,41.8299987 78.0706696,41.4533358 77.484,40.96 L78.244,39.78 C78.8573364,40.246669 79.4706636,40.5966655 80.084,40.83 C80.6973364,41.0633345 81.3439966,41.18 82.024,41.18 C82.7840038,41.18 83.3873311,41.0300015 83.834,40.73 C84.2806689,40.4299985 84.504,40.0066694 84.504,39.46 C84.504,39.2066654 84.4440006,38.9900009 84.324,38.81 C84.2039994,38.6299991 84.0240012,38.473334 83.784,38.34 C83.5439988,38.206666 83.2373352,38.0866672 82.864,37.98 L82.3871999,37.8487999 C82.1344005,37.7816001 81.8600015,37.7120004 81.564,37.64 L80.8535993,37.4511999 C80.5192,37.3584001 80.2160014,37.2680004 79.944,37.18 C79.4906644,37.0333326 79.1173348,36.860001 78.824,36.66 C78.5306652,36.459999 78.317334,36.2200014 78.184,35.94 C78.050666,35.66 77.984,35.3133354 77.984,34.9 C77.984,34.3799974 78.0873323,33.9166687 78.294,33.51 C78.5006677,33.1033313 78.7839982,32.7633347 79.144,32.49 C79.5040018,32.2166653 79.9273309,32.0100007 80.414,31.87 C80.9006691,31.7299993 81.4239972,31.66 81.984,31.66 C82.7706706,31.66 83.5039966,31.7866654 84.184,32.04 C84.8640034,32.2933346 85.437331,32.6266646 85.904,33.04 L85.104,34.1 C84.6639978,33.7133314 84.1706694,33.4233343 83.624,33.23 C83.0773306,33.0366657 82.5173362,32.94 81.944,32.94 C81.3039968,32.94 80.7606689,33.0766653 80.314,33.35 C79.8673311,33.6233347 79.644,34.059997 79.644,34.66 C79.644,34.9000012 79.6873329,35.0999992 79.774,35.26 C79.8606671,35.4200008 80.003999,35.5599994 80.204,35.68 C80.404001,35.8000006 80.6606651,35.9066662 80.974,36 L81.3804,36.1152 C81.5259997,36.1546666 81.6817325,36.1951998 81.8475993,36.2367998 L82.104,36.3 C82.7973368,36.4600008 83.4006641,36.6233325 83.914,36.79 C84.4273359,36.9566675 84.8539983,37.1533322 85.194,37.38 C85.5340017,37.6066678 85.7873325,37.8733318 85.954,38.18 C86.1206675,38.4866682 86.204,38.8599978 86.204,39.3 C86.204,40.2733382 85.8306704,41.0466638 85.084,41.62 C84.3373296,42.1933362 83.330673,42.48 82.064,42.48 Z" id="NCERTSolutions" fill="#615AA7" fill-rule="nonzero"></path>
                </g>
            </g>
        </g>
    </g>
</svg>