<?xml version="1.0" encoding="UTF-8"?>
<svg width="140px" height="200px" viewBox="0 0 140 200" version="1.1" xmlns="http://www.w3.org/2000/svg" xmlns:xlink="http://www.w3.org/1999/xlink">
    <!-- Generator: Sketch 59.1 (86144) - https://sketch.com -->
    <title>prv-year</title>
    <desc>Created with Sketch.</desc>
    <defs>
        <rect id="path-1" x="0" y="0" width="140" height="200" rx="3"></rect>
    </defs>
    <g id="others" stroke="none" stroke-width="1" fill="none" fill-rule="evenodd">
        <g id="prv-year">
            <mask id="mask-2" fill="white">
                <use xlink:href="#path-1"></use>
            </mask>
            <use id="Mask" fill="#CCF2FF" xlink:href="#path-1"></use>
            <path d="M17.48,37 L17.48,22.8 L23.5,22.8 C24.1533366,22.8 24.7566639,22.9366653 25.31,23.21 C25.8633361,23.4833347 26.339998,23.8433311 26.74,24.29 C27.140002,24.7366689 27.4533322,25.2433305 27.68,25.81 C27.9066678,26.3766695 28.02,26.9466638 28.02,27.52 C28.02,28.120003 27.9133344,28.7033305 27.7,29.27 C27.4866656,29.8366695 27.1866686,30.3399978 26.8,30.78 C26.4133314,31.2200022 25.9466694,31.573332 25.4,31.84 C24.8533306,32.106668 24.2533366,32.24 23.6,32.24 L20.24,32.24 L20.24,37 L17.48,37 Z M20.24,29.82 L23.44,29.82 C23.9466692,29.82 24.3699983,29.6133354 24.71,29.2 C25.0500017,28.7866646 25.22,28.2266702 25.22,27.52 C25.22,27.1599982 25.1666672,26.8366681 25.06,26.55 C24.9533328,26.2633319 24.8133342,26.020001 24.64,25.82 C24.4666658,25.619999 24.2633345,25.4700005 24.03,25.37 C23.7966655,25.2699995 23.5600012,25.22 23.32,25.22 L20.24,25.22 L20.24,29.82 Z M35.92,28.84 C35.1066626,28.8533334 34.3800032,29.0099985 33.74,29.31 C33.0999968,29.6100015 32.6400014,30.059997 32.36,30.66 L32.36,37 L29.68,37 L29.68,26.52 L32.14,26.52 L32.14,28.76 C32.3266676,28.3999982 32.5466654,28.0766681 32.8,27.79 C33.0533346,27.5033319 33.3266652,27.2533344 33.62,27.04 C33.9133348,26.8266656 34.2099985,26.6633339 34.51,26.55 C34.8100015,26.4366661 35.0999986,26.38 35.38,26.38 L35.71,26.38 C35.7833337,26.38 35.853333,26.3866666 35.92,26.4 L35.92,28.84 Z M41.76,37.2 C40.9199958,37.2 40.1600034,37.0566681 39.48,36.77 C38.7999966,36.4833319 38.2200024,36.0933358 37.74,35.6 C37.2599976,35.1066642 36.8900013,34.5333366 36.63,33.88 C36.3699987,33.2266634 36.24,32.5400036 36.24,31.82 C36.24,31.0733296 36.3666654,30.3700033 36.62,29.71 C36.8733346,29.0499967 37.24,28.4700025 37.72,27.97 C38.2000024,27.4699975 38.7833299,27.0733348 39.47,26.78 C40.1566701,26.4866652 40.9266624,26.34 41.78,26.34 C42.6333376,26.34 43.3966633,26.4866652 44.07,26.78 C44.7433367,27.0733348 45.3166643,27.4666642 45.79,27.96 C46.2633357,28.4533358 46.6233321,29.0266634 46.87,29.68 C47.1166679,30.3333366 47.24,31.0133298 47.24,31.72 C47.24,31.8933342 47.2366667,32.0599992 47.23,32.22 C47.2233333,32.3800008 47.2066668,32.5133328 47.18,32.62 L39.08,32.62 C39.1200002,33.0333354 39.2199992,33.3999984 39.38,33.72 C39.5400008,34.0400016 39.7466654,34.3133322 40,34.54 C40.2533346,34.7666678 40.5399984,34.9399994 40.86,35.06 C41.1800016,35.1800006 41.5133316,35.24 41.86,35.24 C42.393336,35.24 42.8966643,35.1100013 43.37,34.85 C43.8433357,34.5899987 44.1666658,34.2466688 44.34,33.82 L46.64,34.46 C46.2533314,35.260004 45.6366709,35.9166641 44.79,36.43 C43.9433291,36.9433359 42.9333392,37.2 41.76,37.2 Z M44.48,30.88 C44.413333,30.0933294 44.1233359,29.4633357 43.61,28.99 C43.0966641,28.5166643 42.473337,28.28 41.74,28.28 C41.3799982,28.28 41.0433349,28.3433327 40.73,28.47 C40.4166651,28.5966673 40.1400012,28.7733322 39.9,29 C39.6599988,29.2266678 39.4633341,29.4999984 39.31,29.82 C39.1566659,30.1400016 39.0666668,30.4933314 39.04,30.88 L44.48,30.88 Z M51.42,37 L47.56,26.52 L50.32,26.52 L52.98,34.82 L55.66,26.52 L58.18,26.52 L54.32,37 L51.42,37 Z M59.58,37 L59.58,26.52 L62.26,26.52 L62.26,37 L59.58,37 Z M59.58,25.06 L59.58,22.4 L62.26,22.4 L62.26,25.06 L59.58,25.06 Z M69.52,37.2 C68.6666624,37.2 67.9000034,37.0533348 67.22,36.76 C66.5399966,36.4666652 65.9633357,36.0700025 65.49,35.57 C65.0166643,35.0699975 64.6533346,34.4933366 64.4,33.84 C64.1466654,33.1866634 64.02,32.5000036 64.02,31.78 C64.02,31.046663 64.1466654,30.3533366 64.4,29.7 C64.6533346,29.0466634 65.0166643,28.4700025 65.49,27.97 C65.9633357,27.4699975 66.5399966,27.0733348 67.22,26.78 C67.9000034,26.4866652 68.6666624,26.34 69.52,26.34 C70.3733376,26.34 71.1366633,26.4866652 71.81,26.78 C72.4833367,27.0733348 73.0566643,27.4699975 73.53,27.97 C74.0033357,28.4700025 74.3666654,29.0466634 74.62,29.7 C74.8733346,30.3533366 75,31.046663 75,31.78 C75,32.5000036 74.8733346,33.1866634 74.62,33.84 C74.3666654,34.4933366 74.006669,35.0699975 73.54,35.57 C73.073331,36.0700025 72.5000034,36.4666652 71.82,36.76 C71.1399966,37.0533348 70.3733376,37.2 69.52,37.2 Z M66.78,31.78 C66.78,32.246669 66.8499993,32.6699981 66.99,33.05 C67.1300007,33.4300019 67.3233321,33.7599986 67.57,34.04 C67.8166679,34.3200014 68.106665,34.5366659 68.44,34.69 C68.773335,34.8433341 69.1333314,34.92 69.52,34.92 C69.9066686,34.92 70.266665,34.8433341 70.6,34.69 C70.933335,34.5366659 71.2233321,34.3200014 71.47,34.04 C71.7166679,33.7599986 71.9099993,33.4266686 72.05,33.04 C72.1900007,32.6533314 72.26,32.226669 72.26,31.76 C72.26,31.3066644 72.1900007,30.8866686 72.05,30.5 C71.9099993,30.1133314 71.7166679,29.7800014 71.47,29.5 C71.2233321,29.2199986 70.933335,29.0033341 70.6,28.85 C70.266665,28.6966659 69.9066686,28.62 69.52,28.62 C69.1333314,28.62 68.773335,28.6999992 68.44,28.86 C68.106665,29.0200008 67.8166679,29.2399986 67.57,29.52 C67.3233321,29.8000014 67.1300007,30.1333314 66.99,30.52 C66.8499993,30.9066686 66.78,31.3266644 66.78,31.78 Z M80,37.2 C78.9199946,37.2 78.1000028,36.8533368 77.54,36.16 C76.9799972,35.4666632 76.7,34.4400068 76.7,33.08 L76.7,26.52 L79.38,26.52 L79.38,32.5 C79.38,34.1133414 79.9599942,34.92 81.12,34.92 C81.6400026,34.92 82.1433309,34.7633349 82.63,34.45 C83.1166691,34.1366651 83.5133318,33.6600032 83.82,33.02 L83.82,26.52 L86.5,26.52 L86.5,33.92 C86.5,34.2000014 86.5499995,34.3999994 86.65,34.52 C86.7500005,34.6400006 86.9133322,34.7066666 87.14,34.72 L87.14,37 C86.873332,37.0533336 86.6500009,37.0866666 86.47,37.1 C86.2899991,37.1133334 86.1266674,37.12 85.98,37.12 C85.4999976,37.12 85.1100015,37.0100011 84.81,36.79 C84.5099985,36.5699989 84.3333336,36.2666686 84.28,35.88 L84.22,35.04 C83.753331,35.7600036 83.153337,36.2999982 82.42,36.66 C81.686663,37.02 80.8800044,37.2 80,37.2 Z M93.12,37.2 C92.2399956,37.2 91.38,37.0600014 90.54,36.78 C89.6999958,36.4999986 88.980003,36.1000026 88.38,35.58 L89.38,33.9 C90.0200032,34.3533356 90.6433303,34.6966655 91.25,34.93 C91.8566697,35.1633345 92.459997,35.28 93.06,35.28 C93.593336,35.28 94.0133318,35.180001 94.32,34.98 C94.6266682,34.779999 94.78,34.4933352 94.78,34.12 C94.78,33.7466648 94.6000018,33.4733342 94.24,33.3 C93.92,33.1459252 93.4209086,32.9707826 92.7427171,32.7745682 L92.48,32.7 C91.7999966,32.5133324 91.2200024,32.3333342 90.74,32.16 C90.2599976,31.9866658 89.8733348,31.7900011 89.58,31.57 C89.2866652,31.3499989 89.073334,31.0966681 88.94,30.81 C88.806666,30.5233319 88.74,30.180002 88.74,29.78 C88.74,29.246664 88.8433323,28.7666688 89.05,28.34 C89.2566677,27.9133312 89.5466648,27.5500015 89.92,27.25 C90.2933352,26.9499985 90.7299975,26.7200008 91.23,26.56 C91.7300025,26.3999992 92.2733304,26.32 92.86,26.32 C93.6466706,26.32 94.3833299,26.4333322 95.07,26.66 C95.7566701,26.8866678 96.3866638,27.2533308 96.96,27.76 L95.88,29.38 C95.346664,28.979998 94.8300025,28.6866676 94.33,28.5 C93.8299975,28.3133324 93.3333358,28.22 92.84,28.22 C92.3866644,28.22 92.0066682,28.3133324 91.7,28.5 C91.3933318,28.6866676 91.24,28.9866646 91.24,29.4 C91.24,29.5866676 91.2766663,29.7399994 91.35,29.86 C91.4233337,29.9800006 91.5399992,30.0866662 91.7,30.18 C91.8600008,30.2733338 92.0699987,30.3633329 92.33,30.45 C92.5900013,30.5366671 92.9133314,30.6266662 93.3,30.72 C94.0200036,30.9066676 94.6366641,31.0933324 95.15,31.28 C95.6633359,31.4666676 96.0833317,31.6799988 96.41,31.92 C96.7366683,32.1600012 96.9766659,32.4366651 97.13,32.75 C97.2833341,33.0633349 97.36,33.4399978 97.36,33.88 C97.36,34.9066718 96.9800038,35.7166637 96.22,36.31 C95.4599962,36.9033363 94.4266732,37.2 93.12,37.2 Z M19.08,52.8 L22.58,59.64 L26.14,52.8 L29.12,52.8 L23.96,62.04 L23.96,67 L21.22,67 L21.22,62 L16.08,52.8 L19.08,52.8 Z M33.42,67.2 C32.5799958,67.2 31.8200034,67.0566681 31.14,66.77 C30.4599966,66.4833319 29.8800024,66.0933358 29.4,65.6 C28.9199976,65.1066642 28.5500013,64.5333366 28.29,63.88 C28.0299987,63.2266634 27.9,62.5400036 27.9,61.82 C27.9,61.0733296 28.0266654,60.3700033 28.28,59.71 C28.5333346,59.0499967 28.9,58.4700025 29.38,57.97 C29.8600024,57.4699975 30.4433299,57.0733348 31.13,56.78 C31.8166701,56.4866652 32.5866624,56.34 33.44,56.34 C34.2933376,56.34 35.0566633,56.4866652 35.73,56.78 C36.4033367,57.0733348 36.9766643,57.4666642 37.45,57.96 C37.9233357,58.4533358 38.2833321,59.0266634 38.53,59.68 C38.7766679,60.3333366 38.9,61.0133298 38.9,61.72 C38.9,61.8933342 38.8966667,62.0599992 38.89,62.22 C38.8833333,62.3800008 38.8666668,62.5133328 38.84,62.62 L30.74,62.62 C30.7800002,63.0333354 30.8799992,63.3999984 31.04,63.72 C31.2000008,64.0400016 31.4066654,64.3133322 31.66,64.54 C31.9133346,64.7666678 32.1999984,64.9399994 32.52,65.06 C32.8400016,65.1800006 33.1733316,65.24 33.52,65.24 C34.053336,65.24 34.5566643,65.1100013 35.03,64.85 C35.5033357,64.5899987 35.8266658,64.2466688 36,63.82 L38.3,64.46 C37.9133314,65.260004 37.2966709,65.9166641 36.45,66.43 C35.6033291,66.9433359 34.5933392,67.2 33.42,67.2 Z M36.14,60.88 C36.073333,60.0933294 35.7833359,59.4633357 35.27,58.99 C34.7566641,58.5166643 34.133337,58.28 33.4,58.28 C33.0399982,58.28 32.7033349,58.3433327 32.39,58.47 C32.0766651,58.5966673 31.8000012,58.7733322 31.56,59 C31.3199988,59.2266678 31.1233341,59.4999984 30.97,59.82 C30.8166659,60.1400016 30.7266668,60.4933314 30.7,60.88 L36.14,60.88 Z M43.4,67.2 C42.8933308,67.2 42.4200022,67.1166675 41.98,66.95 C41.5399978,66.7833325 41.1600016,66.5500015 40.84,66.25 C40.5199984,65.9499985 40.2700009,65.600002 40.09,65.2 C39.9099991,64.799998 39.82,64.3600024 39.82,63.88 C39.82,63.3866642 39.9299989,62.9300021 40.15,62.51 C40.3700011,62.0899979 40.6766647,61.7333348 41.07,61.44 C41.4633353,61.1466652 41.9333306,60.9166675 42.48,60.75 C43.0266694,60.5833325 43.6266634,60.5 44.28,60.5 C44.746669,60.5 45.2033311,60.5399996 45.65,60.62 C46.0966689,60.7000004 46.4933316,60.8133326 46.84,60.96 L46.84,60.36 C46.84,59.6666632 46.6433353,59.1333352 46.25,58.76 C45.8566647,58.3866648 45.2733372,58.2 44.5,58.2 C43.9399972,58.2 43.393336,58.299999 42.86,58.5 C42.326664,58.700001 41.7800028,58.9933314 41.22,59.38 L40.4,57.68 C41.7466734,56.7866622 43.1999922,56.34 44.76,56.34 C46.2666742,56.34 47.4366625,56.7099963 48.27,57.45 C49.1033375,58.1900037 49.52,59.259993 49.52,60.66 L49.52,63.92 C49.52,64.2000014 49.5699995,64.3999994 49.67,64.52 C49.7700005,64.6400006 49.9333322,64.7066666 50.16,64.72 L50.16,67 C49.7066644,67.0933338 49.313335,67.14 48.98,67.14 C48.4733308,67.14 48.0833347,67.0266678 47.81,66.8 C47.5366653,66.5733322 47.366667,66.2733352 47.3,65.9 L47.24,65.32 C46.773331,65.9333364 46.20667,66.3999984 45.54,66.72 C44.87333,67.0400016 44.1600038,67.2 43.4,67.2 Z M44.16,65.24 C44.6133356,65.24 45.0433313,65.1600008 45.45,65 C45.8566687,64.8399992 46.1733322,64.626668 46.4,64.36 C46.6933348,64.1333322 46.84,63.8800014 46.84,63.6 L46.84,62.4 C46.5199984,62.2799994 46.1733352,62.1833337 45.8,62.11 C45.4266648,62.0366663 45.0666684,62 44.72,62 C44.0266632,62 43.4600022,62.1566651 43.02,62.47 C42.5799978,62.7833349 42.36,63.1799976 42.36,63.66 C42.36,64.1133356 42.5333316,64.4899985 42.88,64.79 C43.2266684,65.0900015 43.6533308,65.24 44.16,65.24 Z M58.26,58.84 C57.4466626,58.8533334 56.7200032,59.0099985 56.08,59.31 C55.4399968,59.6100015 54.9800014,60.059997 54.7,60.66 L54.7,67 L52.02,67 L52.02,56.52 L54.48,56.52 L54.48,58.76 C54.6666676,58.3999982 54.8866654,58.0766681 55.14,57.79 C55.3933346,57.5033319 55.6666652,57.2533344 55.96,57.04 C56.2533348,56.8266656 56.5499985,56.6633339 56.85,56.55 C57.1500015,56.4366661 57.4399986,56.38 57.72,56.38 L58.05,56.38 C58.1233337,56.38 58.193333,56.3866666 58.26,56.4 L58.26,58.84 Z M19.252,97.12 C18.8359979,97.12 18.4560017,97.0320009 18.112,96.856 C17.7679983,96.6799991 17.4720012,96.4420015 17.224,96.142 C16.9759988,95.8419985 16.7840007,95.496002 16.648,95.104 C16.5119993,94.711998 16.444,94.3000022 16.444,93.868 C16.444,93.4279978 16.5199992,93.012002 16.672,92.62 C16.8240008,92.227998 17.0339987,91.8840015 17.302,91.588 C17.5700013,91.2919985 17.8839982,91.0580009 18.244,90.886 C18.6040018,90.7139991 18.9919979,90.628 19.408,90.628 C19.8960024,90.628 20.339998,90.7479988 20.74,90.988 C21.140002,91.2280012 21.4559988,91.5399981 21.688,91.924 L21.688,90.736 L22.624,90.736 L22.624,98.212 C22.624,98.4600012 22.7359989,98.588 22.96,98.596 L22.96,99.508 C22.767999,99.5320001 22.5800009,99.544 22.396,99.544 C22.1719989,99.544 21.9780008,99.4620008 21.814,99.298 C21.6499992,99.1339992 21.568,98.9360012 21.568,98.704 L21.568,95.764 C20.9919971,96.6680045 20.2200048,97.12 19.252,97.12 Z M19.612,96.208 C20.0600022,96.208 20.4459984,96.0780013 20.77,95.818 C21.0940016,95.5579987 21.359999,95.2400019 21.568,94.864 L21.568,93.064 C21.5279998,92.863999 21.4440006,92.6700009 21.316,92.482 C21.1879994,92.2939991 21.0340009,92.1320007 20.854,91.996 C20.6739991,91.8599993 20.4780011,91.7500004 20.266,91.666 C20.0539989,91.5819996 19.844001,91.54 19.636,91.54 C19.3239984,91.54 19.0400013,91.6059993 18.784,91.738 C18.5279987,91.8700007 18.3060009,92.0459989 18.118,92.266 C17.9299991,92.4860011 17.7840005,92.7379986 17.68,93.022 C17.5759995,93.3060014 17.524,93.5959985 17.524,93.892 C17.524,94.2040016 17.5759995,94.5019986 17.68,94.786 C17.7840005,95.0700014 17.9279991,95.315999 18.112,95.524 C18.2960009,95.732001 18.5159987,95.8979994 18.772,96.022 C19.0280013,96.1460006 19.3079985,96.208 19.612,96.208 Z M26.26,97.12 C25.6039967,97.12 25.1080017,96.9000022 24.772,96.46 C24.4359983,96.0199978 24.268,95.3640044 24.268,94.492 L24.268,90.736 L25.324,90.736 L25.324,94.288 C25.324,95.5680064 25.768,96.208 26.656,96.208 C27.0880022,96.208 27.4939981,96.0700014 27.874,95.794 C28.2540019,95.5179986 28.5359991,95.1400024 28.72,94.66 L28.72,90.736 L29.776,90.736 L29.776,95.704 C29.776,95.9520012 29.8879989,96.08 30.112,96.088 L30.112,97 L29.9066667,97.024 L29.9066667,97.024 L29.83,97.03 C29.7619997,97.034 29.6960003,97.036 29.632,97.036 C29.423999,97.036 29.2500007,96.9740006 29.11,96.85 C28.9699993,96.7259994 28.896,96.5720009 28.888,96.388 L28.864,95.656 C28.5839986,96.1280024 28.2160023,96.4899987 27.76,96.742 C27.3039977,96.9940013 26.8040027,97.12 26.26,97.12 Z M34.312,97.12 C33.8399976,97.12 33.408002,97.0340009 33.016,96.862 C32.623998,96.6899991 32.2880014,96.4560015 32.008,96.16 C31.7279986,95.8639985 31.5100008,95.518002 31.354,95.122 C31.1979992,94.725998 31.12,94.3080022 31.12,93.868 C31.12,93.4279978 31.1979992,93.012002 31.354,92.62 C31.5100008,92.227998 31.7299986,91.8840015 32.014,91.588 C32.2980014,91.2919985 32.635998,91.0580009 33.028,90.886 C33.420002,90.7139991 33.8519976,90.628 34.324,90.628 C34.7960024,90.628 35.2259981,90.7159991 35.614,90.892 C36.0020019,91.0680009 36.3319986,91.3019985 36.604,91.594 C36.8760014,91.8860015 37.0859993,92.2259981 37.234,92.614 C37.3820007,93.0020019 37.456,93.4039979 37.456,93.82 L37.45,94.06 L37.45,94.06 L37.4393333,94.1826667 C37.4371111,94.1995555 37.4346667,94.2146666 37.432,94.228 L32.236,94.228 C32.2600001,94.5400016 32.3319994,94.8239987 32.452,95.08 C32.5720006,95.3360013 32.727999,95.5559991 32.92,95.74 C33.112001,95.9240009 33.3299988,96.0679995 33.574,96.172 C33.8180012,96.2760005 34.0759986,96.328 34.348,96.328 C34.540001,96.328 34.7279991,96.3020003 34.912,96.25 C35.0960009,96.1979997 35.2679992,96.128 35.428,96.04 C35.5880008,95.9519996 35.7299994,95.8440006 35.854,95.716 C35.9780006,95.5879994 36.0719997,95.4440008 36.136,95.284 L37.048,95.536 C36.9439995,95.7680012 36.8020009,95.979999 36.622,96.172 C36.4419991,96.364001 36.2340012,96.5299993 35.998,96.67 C35.7619988,96.8100007 35.5000014,96.9199996 35.212,97 C34.9239986,97.0800004 34.6240016,97.12 34.312,97.12 Z M36.46,93.448 C36.4359999,93.1519985 36.3620006,92.8780013 36.238,92.626 C36.1139994,92.3739987 35.9580009,92.1600009 35.77,91.984 C35.5819991,91.8079991 35.3640012,91.6700005 35.116,91.57 C34.8679988,91.4699995 34.6040014,91.42 34.324,91.42 C34.0439986,91.42 33.7800012,91.4699995 33.532,91.57 C33.2839988,91.6700005 33.0660009,91.8099991 32.878,91.99 C32.6899991,92.1700009 32.5380006,92.3839988 32.422,92.632 C32.3059994,92.8800012 32.2360001,93.1519985 32.212,93.448 L36.46,93.448 Z M40.828,97.12 C40.3239975,97.12 39.8280024,97.0420008 39.34,96.886 C38.8519976,96.7299992 38.4320018,96.5040015 38.08,96.208 L38.536,95.5 C38.9040018,95.7800014 39.2719982,95.9899993 39.64,96.13 C40.0080018,96.2700007 40.395998,96.34 40.804,96.34 C41.2600023,96.34 41.6219987,96.2500009 41.89,96.07 C42.1580013,95.8899991 42.292,95.6360016 42.292,95.308 C42.292,95.1559992 42.2560004,95.0260005 42.184,94.918 C42.1119996,94.8099995 42.0040007,94.7160004 41.86,94.636 C41.7159993,94.5559996 41.5320011,94.4840003 41.308,94.42 L40.9450001,94.321 L40.9450001,94.321 L40.528,94.216 C40.1519981,94.1199995 39.8280014,94.0280004 39.556,93.94 C39.2839986,93.8519996 39.0600009,93.7480006 38.884,93.628 C38.7079991,93.5079994 38.58,93.3640008 38.5,93.196 C38.4199996,93.0279992 38.38,92.8200012 38.38,92.572 C38.38,92.2599984 38.4419994,91.9820012 38.566,91.738 C38.6900006,91.4939988 38.8599989,91.2900008 39.076,91.126 C39.2920011,90.9619992 39.5459985,90.8380004 39.838,90.754 C40.1300015,90.6699996 40.4439983,90.628 40.78,90.628 C41.2520024,90.628 41.691998,90.7039992 42.1,90.856 C42.508002,91.0080008 42.8519986,91.2079988 43.132,91.456 L42.652,92.092 C42.3879987,91.8599988 42.0920016,91.6860006 41.764,91.57 C41.4359984,91.4539994 41.1000017,91.396 40.756,91.396 C40.3719981,91.396 40.0460013,91.4779992 39.778,91.642 C39.5099987,91.8060008 39.376,92.0679982 39.376,92.428 C39.376,92.5720007 39.4019997,92.6919995 39.454,92.788 C39.5060003,92.8840005 39.5919994,92.9679996 39.712,93.04 C39.8320006,93.1120004 39.9859991,93.1759997 40.174,93.232 L40.4844999,93.319 C40.5974996,93.3489999 40.7199993,93.3799998 40.852,93.412 C41.2680021,93.5080005 41.6299985,93.6059995 41.938,93.706 C42.2460015,93.8060005 42.501999,93.9239993 42.706,94.06 C42.910001,94.1960007 43.0619995,94.3559991 43.162,94.54 C43.2620005,94.7240009 43.312,94.9479987 43.312,95.212 C43.312,95.7960029 43.0880022,96.2599983 42.64,96.604 C42.1919978,96.9480017 41.5880038,97.12 40.828,97.12 Z M47.548,95.848 L47.8,96.688 L47.548,96.802 L47.548,96.802 C47.4439995,96.8460002 47.3260007,96.8899998 47.194,96.934 C47.0619993,96.9780002 46.9180008,97.0139999 46.762,97.042 C46.6059992,97.0700001 46.4440008,97.084 46.276,97.084 C45.8919981,97.084 45.5600014,96.9780011 45.28,96.766 C44.9999986,96.5539989 44.86,96.2240022 44.86,95.776 L44.86,91.564 L44.008,91.564 L44.008,90.736 L44.86,90.736 L44.86,88.648 L45.916,88.648 L45.916,90.736 L47.32,90.736 L47.32,91.564 L45.916,91.564 L45.916,95.452 C45.9320001,95.6840012 46.008,95.8519995 46.144,95.956 C46.2800007,96.0600005 46.4399991,96.112 46.624,96.112 C46.832001,96.112 47.0219991,96.0780003 47.194,96.01 L47.3744803,95.9351199 C47.4517602,95.90104 47.5095998,95.8720001 47.548,95.848 Z M48.784,97 L48.784,90.736 L49.84,90.736 L49.84,97 L48.784,97 Z M48.784,89.56 L48.784,88.24 L49.84,88.24 L49.84,89.56 L48.784,89.56 Z M54.28,97.12 C53.8079976,97.12 53.3780019,97.0320009 52.99,96.856 C52.6019981,96.6799991 52.2700014,96.4440015 51.994,96.148 C51.7179986,95.8519985 51.5040008,95.508002 51.352,95.116 C51.1999992,94.723998 51.124,94.3120022 51.124,93.88 C51.124,93.4399978 51.2019992,93.024002 51.358,92.632 C51.5140008,92.239998 51.7299986,91.8960015 52.006,91.6 C52.2820014,91.3039985 52.6139981,91.0680009 53.002,90.892 C53.3900019,90.7159991 53.8159977,90.628 54.28,90.628 C54.7440023,90.628 55.171998,90.7159991 55.564,90.892 C55.956002,91.0680009 56.2899986,91.3039985 56.566,91.6 C56.8420014,91.8960015 57.0579992,92.239998 57.214,92.632 C57.3700008,93.024002 57.448,93.4399978 57.448,93.88 C57.448,94.3120022 57.3720008,94.723998 57.22,95.116 C57.0679992,95.508002 56.8520014,95.8519985 56.572,96.148 C56.2919986,96.4440015 55.9580019,96.6799991 55.57,96.856 C55.1819981,97.0320009 54.7520024,97.12 54.28,97.12 Z M52.204,93.892 C52.204,94.2200016 52.2579995,94.5239986 52.366,94.804 C52.4740005,95.0840014 52.6219991,95.327999 52.81,95.536 C52.9980009,95.744001 53.2179987,95.9079994 53.47,96.028 C53.7220013,96.1480006 53.9919986,96.208 54.28,96.208 C54.5680014,96.208 54.8379987,96.1480006 55.09,96.028 C55.3420013,95.9079994 55.563999,95.7420011 55.756,95.53 C55.948001,95.3179989 56.0979995,95.0700014 56.206,94.786 C56.3140005,94.5019986 56.368,94.1960016 56.368,93.868 C56.368,93.5479984 56.3140005,93.2460014 56.206,92.962 C56.0979995,92.6779986 55.948001,92.4300011 55.756,92.218 C55.563999,92.0059989 55.3420013,91.8400006 55.09,91.72 C54.8379987,91.5999994 54.5680014,91.54 54.28,91.54 C53.9919986,91.54 53.7220013,91.6019994 53.47,91.726 C53.2179987,91.8500006 52.9980009,92.0179989 52.81,92.23 C52.6219991,92.4420011 52.4740005,92.6899986 52.366,92.974 C52.2579995,93.2580014 52.204,93.5639984 52.204,93.892 Z M64.168,97 L63.112,97 L63.112,93.496 C63.112,92.8239966 63.010001,92.3360015 62.806,92.032 C62.601999,91.7279985 62.2920021,91.576 61.876,91.576 C61.6599989,91.576 61.4440011,91.6179996 61.228,91.702 C61.0119989,91.7860004 60.808001,91.8999993 60.616,92.044 C60.423999,92.1880007 60.2560007,92.359999 60.112,92.56 C59.9679993,92.760001 59.8600004,92.9799988 59.788,93.22 L59.788,97 L58.732,97 L58.732,90.736 L59.692,90.736 L59.692,92.08 C59.9400012,91.6399978 60.2979977,91.2880013 60.766,91.024 C61.2340023,90.7599987 61.7439972,90.628 62.296,90.628 C62.6560018,90.628 62.9559988,90.6939993 63.196,90.826 C63.4360012,90.9580007 63.6279993,91.1419988 63.772,91.378 C63.9160007,91.6140012 64.0179997,91.8919984 64.078,92.212 C64.1380003,92.5320016 64.168,92.8799981 64.168,93.256 L64.168,97 Z M72.22,97.12 C71.6999974,97.12 71.242002,96.9920013 70.846,96.736 C70.449998,96.4799987 70.1360012,96.156002 69.904,95.764 L69.904,99.556 L68.848,99.556 L68.848,90.736 L69.784,90.736 L69.784,91.912 C70.0320012,91.5279981 70.353998,91.2180012 70.75,90.982 C71.146002,90.7459988 71.5839976,90.628 72.064,90.628 C72.4960022,90.628 72.8919982,90.7159991 73.252,90.892 C73.6120018,91.0680009 73.9239987,91.3059985 74.188,91.606 C74.4520013,91.9060015 74.6579993,92.251998 74.806,92.644 C74.9540007,93.036002 75.028,93.4439979 75.028,93.868 C75.028,94.3160022 74.9600007,94.737998 74.824,95.134 C74.6879993,95.530002 74.4960012,95.8739985 74.248,96.166 C73.9999988,96.4580015 73.7040017,96.6899991 73.36,96.862 C73.0159983,97.0340009 72.6360021,97.12 72.22,97.12 Z M71.896,96.208 C72.2080016,96.208 72.4899987,96.1420007 72.742,96.01 C72.9940013,95.8779993 73.2099991,95.7020011 73.39,95.482 C73.5700009,95.2619989 73.7079995,95.0120014 73.804,94.732 C73.9000005,94.4519986 73.948,94.1640015 73.948,93.868 C73.948,93.5559984 73.8920006,93.2580014 73.78,92.974 C73.6679994,92.6899986 73.516001,92.4420011 73.324,92.23 C73.131999,92.0179989 72.9060013,91.8500006 72.646,91.726 C72.3859987,91.6019994 72.1040015,91.54 71.8,91.54 C71.607999,91.54 71.410001,91.5779996 71.206,91.654 C71.001999,91.7300004 70.8100009,91.8299994 70.63,91.954 C70.4499991,92.0780006 70.2940007,92.2259991 70.162,92.398 C70.0299993,92.5700009 69.9440002,92.751999 69.904,92.944 L69.904,94.732 C69.9920004,94.940001 70.1039993,95.1339991 70.24,95.314 C70.3760007,95.4940009 70.5319991,95.6499993 70.708,95.782 C70.8840009,95.9140007 71.071999,96.0179996 71.272,96.094 C71.472001,96.1700004 71.6799989,96.208 71.896,96.208 Z M77.932,97.12 C77.6359985,97.12 77.3600013,97.0700005 77.104,96.97 C76.8479987,96.8699995 76.6260009,96.7320009 76.438,96.556 C76.2499991,96.3799991 76.1020005,96.1740012 75.994,95.938 C75.8859995,95.7019988 75.832,95.4440014 75.832,95.164 C75.832,94.8759986 75.8959994,94.6140012 76.024,94.378 C76.1520006,94.1419988 76.3339988,93.9400008 76.57,93.772 C76.8060012,93.6039992 77.0859984,93.4720005 77.41,93.376 C77.7340016,93.2799995 78.0879981,93.232 78.472,93.232 C78.7760015,93.232 79.0839984,93.2599997 79.396,93.316 C79.7080016,93.3720003 79.9839988,93.4479995 80.224,93.544 L80.224,93.04 C80.224,92.5279974 80.0800014,92.1260015 79.792,91.834 C79.5039986,91.5419985 79.0960026,91.396 78.568,91.396 C77.9359968,91.396 77.2720035,91.6399976 76.576,92.128 L76.228,91.444 C77.036004,90.8999973 77.8479959,90.628 78.664,90.628 C79.4880041,90.628 80.1299977,90.8479978 80.59,91.288 C81.0500023,91.7280022 81.28,92.347996 81.28,93.148 L81.28,95.704 C81.28,95.9520012 81.3919989,96.08 81.616,96.088 L81.616,97 L81.34,97.036 L81.34,97.036 C81.2679996,97.044 81.1920004,97.048 81.112,97.048 C80.903999,97.048 80.7380006,96.9860006 80.614,96.862 C80.4899994,96.7379994 80.4160001,96.5880009 80.392,96.412 L80.368,95.968 C80.0879986,96.3440019 79.7340021,96.629999 79.306,96.826 C78.8779979,97.022001 78.4200024,97.12 77.932,97.12 Z M78.208,96.328 C78.5840019,96.328 78.9339984,96.2580007 79.258,96.118 C79.5820016,95.9779993 79.8279992,95.7920012 79.996,95.56 C80.1480008,95.4079992 80.224,95.2520008 80.224,95.092 L80.224,94.168 C79.7119974,93.967999 79.1800028,93.868 78.628,93.868 C78.0999974,93.868 77.6700017,93.9799989 77.338,94.204 C77.0059983,94.4280011 76.84,94.7199982 76.84,95.08 C76.84,95.2560009 76.8739997,95.4199992 76.942,95.572 C77.0100003,95.7240008 77.1059994,95.8559994 77.23,95.968 C77.3540006,96.0800006 77.4999992,96.1679997 77.668,96.232 C77.8360008,96.2960003 78.015999,96.328 78.208,96.328 Z M86.344,97.12 C85.8239974,97.12 85.366002,96.9920013 84.97,96.736 C84.573998,96.4799987 84.2600012,96.156002 84.028,95.764 L84.028,99.556 L82.972,99.556 L82.972,90.736 L83.908,90.736 L83.908,91.912 C84.1560012,91.5279981 84.477998,91.2180012 84.874,90.982 C85.270002,90.7459988 85.7079976,90.628 86.188,90.628 C86.6200022,90.628 87.0159982,90.7159991 87.376,90.892 C87.7360018,91.0680009 88.0479987,91.3059985 88.312,91.606 C88.5760013,91.9060015 88.7819993,92.251998 88.93,92.644 C89.0780007,93.036002 89.152,93.4439979 89.152,93.868 C89.152,94.3160022 89.0840007,94.737998 88.948,95.134 C88.8119993,95.530002 88.6200012,95.8739985 88.372,96.166 C88.1239988,96.4580015 87.8280017,96.6899991 87.484,96.862 C87.1399983,97.0340009 86.7600021,97.12 86.344,97.12 Z M86.02,96.208 C86.3320016,96.208 86.6139987,96.1420007 86.866,96.01 C87.1180013,95.8779993 87.3339991,95.7020011 87.514,95.482 C87.6940009,95.2619989 87.8319995,95.0120014 87.928,94.732 C88.0240005,94.4519986 88.072,94.1640015 88.072,93.868 C88.072,93.5559984 88.0160006,93.2580014 87.904,92.974 C87.7919994,92.6899986 87.640001,92.4420011 87.448,92.23 C87.255999,92.0179989 87.0300013,91.8500006 86.77,91.726 C86.5099987,91.6019994 86.2280015,91.54 85.924,91.54 C85.731999,91.54 85.534001,91.5779996 85.33,91.654 C85.125999,91.7300004 84.9340009,91.8299994 84.754,91.954 C84.5739991,92.0780006 84.4180007,92.2259991 84.286,92.398 C84.1539993,92.5700009 84.0680002,92.751999 84.028,92.944 L84.028,94.732 C84.1160004,94.940001 84.2279993,95.1339991 84.364,95.314 C84.5000007,95.4940009 84.6559991,95.6499993 84.832,95.782 C85.0080009,95.9140007 85.195999,96.0179996 85.396,96.094 C85.596001,96.1700004 85.8039989,96.208 86.02,96.208 Z M93.22,97.12 C92.7479976,97.12 92.316002,97.0340009 91.924,96.862 C91.531998,96.6899991 91.1960014,96.4560015 90.916,96.16 C90.6359986,95.8639985 90.4180008,95.518002 90.262,95.122 C90.1059992,94.725998 90.028,94.3080022 90.028,93.868 C90.028,93.4279978 90.1059992,93.012002 90.262,92.62 C90.4180008,92.227998 90.6379986,91.8840015 90.922,91.588 C91.2060014,91.2919985 91.543998,91.0580009 91.936,90.886 C92.328002,90.7139991 92.7599976,90.628 93.232,90.628 C93.7040024,90.628 94.1339981,90.7159991 94.522,90.892 C94.9100019,91.0680009 95.2399986,91.3019985 95.512,91.594 C95.7840014,91.8860015 95.9939993,92.2259981 96.142,92.614 C96.2900007,93.0020019 96.364,93.4039979 96.364,93.82 L96.358,94.06 L96.358,94.06 L96.3473333,94.1826667 C96.3451111,94.1995555 96.3426667,94.2146666 96.34,94.228 L91.144,94.228 C91.1680001,94.5400016 91.2399994,94.8239987 91.36,95.08 C91.4800006,95.3360013 91.635999,95.5559991 91.828,95.74 C92.020001,95.9240009 92.2379988,96.0679995 92.482,96.172 C92.7260012,96.2760005 92.9839986,96.328 93.256,96.328 C93.448001,96.328 93.6359991,96.3020003 93.82,96.25 C94.0040009,96.1979997 94.1759992,96.128 94.336,96.04 C94.4960008,95.9519996 94.6379994,95.8440006 94.762,95.716 C94.8860006,95.5879994 94.9799997,95.4440008 95.044,95.284 L95.956,95.536 C95.8519995,95.7680012 95.7100009,95.979999 95.53,96.172 C95.3499991,96.364001 95.1420012,96.5299993 94.906,96.67 C94.6699988,96.8100007 94.4080014,96.9199996 94.12,97 C93.8319986,97.0800004 93.5320016,97.12 93.22,97.12 Z M95.368,93.448 C95.3439999,93.1519985 95.2700006,92.8780013 95.146,92.626 C95.0219994,92.3739987 94.8660009,92.1600009 94.678,91.984 C94.4899991,91.8079991 94.2720012,91.6700005 94.024,91.57 C93.7759988,91.4699995 93.5120014,91.42 93.232,91.42 C92.9519986,91.42 92.6880012,91.4699995 92.44,91.57 C92.1919988,91.6700005 91.9740009,91.8099991 91.786,91.99 C91.5979991,92.1700009 91.4460006,92.3839988 91.33,92.632 C91.2139994,92.8800012 91.1440001,93.1519985 91.12,93.448 L95.368,93.448 Z M100.852,91.66 C100.323997,91.6760001 99.858002,91.8119987 99.454,92.068 C99.049998,92.3240013 98.7640008,92.6799977 98.596,93.136 L98.596,97 L97.54,97 L97.54,90.736 L98.524,90.736 L98.524,92.188 C98.7400011,91.7559978 99.0239982,91.4060013 99.376,91.138 C99.7280018,90.8699987 100.103998,90.7200002 100.504,90.688 L100.708,90.688 C100.764,90.688 100.812,90.692 100.852,90.7 L100.852,91.66 Z M104.092,97.12 C103.587997,97.12 103.092002,97.0420008 102.604,96.886 C102.115998,96.7299992 101.696002,96.5040015 101.344,96.208 L101.8,95.5 C102.168002,95.7800014 102.535998,95.9899993 102.904,96.13 C103.272002,96.2700007 103.659998,96.34 104.068,96.34 C104.524002,96.34 104.885999,96.2500009 105.154,96.07 C105.422001,95.8899991 105.556,95.6360016 105.556,95.308 C105.556,95.1559992 105.52,95.0260005 105.448,94.918 C105.376,94.8099995 105.268001,94.7160004 105.124,94.636 C104.979999,94.5559996 104.796001,94.4840003 104.572,94.42 L104.209,94.321 L104.209,94.321 L103.792,94.216 C103.415998,94.1199995 103.092001,94.0280004 102.82,93.94 C102.547999,93.8519996 102.324001,93.7480006 102.148,93.628 C101.971999,93.5079994 101.844,93.3640008 101.764,93.196 C101.684,93.0279992 101.644,92.8200012 101.644,92.572 C101.644,92.2599984 101.705999,91.9820012 101.83,91.738 C101.954001,91.4939988 102.123999,91.2900008 102.34,91.126 C102.556001,90.9619992 102.809999,90.8380004 103.102,90.754 C103.394001,90.6699996 103.707998,90.628 104.044,90.628 C104.516002,90.628 104.955998,90.7039992 105.364,90.856 C105.772002,91.0080008 106.115999,91.2079988 106.396,91.456 L105.916,92.092 C105.651999,91.8599988 105.356002,91.6860006 105.028,91.57 C104.699998,91.4539994 104.364002,91.396 104.02,91.396 C103.635998,91.396 103.310001,91.4779992 103.042,91.642 C102.773999,91.8060008 102.64,92.0679982 102.64,92.428 C102.64,92.5720007 102.666,92.6919995 102.718,92.788 C102.77,92.8840005 102.855999,92.9679996 102.976,93.04 C103.096001,93.1120004 103.249999,93.1759997 103.438,93.232 L103.7485,93.319 C103.8615,93.3489999 103.983999,93.3799998 104.116,93.412 C104.532002,93.5080005 104.893998,93.6059995 105.202,93.706 C105.510002,93.8060005 105.765999,93.9239993 105.97,94.06 C106.174001,94.1960007 106.325999,94.3559991 106.426,94.54 C106.526,94.7240009 106.576,94.9479987 106.576,95.212 C106.576,95.7960029 106.352002,96.2599983 105.904,96.604 C105.455998,96.9480017 104.852004,97.12 104.092,97.12 Z" id="PreviousYearquestionpapers" fill="#025F80" fill-rule="nonzero" mask="url(#mask-2)"></path>
            <g id="942802" mask="url(#mask-2)" fill="#025F80" fill-rule="nonzero">
                <g transform="translate(16.000000, 119.000000)" id="Combined-Shape">
                    <path d="M36.0703125,36.703125 C37.2351094,36.703125 38.1796875,37.6474922 38.1796875,38.8125 C38.1796875,39.9775078 37.2351094,40.921875 36.0703125,40.921875 L36.0703125,40.921875 L14.765625,40.921875 C8.95007812,40.921875 4.21875,45.6532031 4.21875,51.46875 L4.21875,51.46875 L4.21875,83.953125 C4.21875,89.7686719 8.95007812,94.5 14.765625,94.5 L14.765625,94.5 L28.4721328,94.5 C29.3348672,94.5 30.0807422,95.0191172 30.4066406,95.7673125 L30.4066406,95.7673125 L35.4412969,100.801758 L35.44425,96.6078984 C35.4450937,95.4435234 36.3890391,94.5 37.553625,94.5 L37.553625,94.5 L60.328125,94.5 C66.1436719,94.5 70.875,89.7686719 70.875,83.953125 L70.875,83.953125 L70.875,69.3984375 C70.875,68.2334297 71.8195781,67.2890625 72.984375,67.2890625 C74.1491719,67.2890625 75.09375,68.2334297 75.09375,69.3984375 L75.09375,69.3984375 L75.09375,83.953125 C75.09375,92.0948906 68.4698906,98.71875 60.328125,98.71875 L60.328125,98.71875 L39.6613125,98.71875 L39.65625,105.892102 C39.6556172,106.744922 39.1415625,107.513578 38.3532891,107.839687 C38.0927812,107.947477 37.8187734,108 37.5472969,108 C36.9982266,108 36.4588594,107.785687 36.0553359,107.382164 L36.0553359,107.382164 L27.3919219,98.71875 L14.765625,98.71875 C6.62385937,98.71875 0,92.0948906 0,83.953125 L0,83.953125 L0,51.46875 C0,43.3269844 6.62385937,36.703125 14.765625,36.703125 L14.765625,36.703125 Z M58.0078125,77.203125 C58.5625781,77.203125 59.1067969,77.4288281 59.4989297,77.8211719 C59.8912734,78.2135156 60.1171875,78.7577344 60.1171875,79.3125 C60.1171875,79.869375 59.8914844,80.4114844 59.4989297,80.8038281 C59.1067969,81.1961719 58.5625781,81.421875 58.0078125,81.421875 C57.4530469,81.421875 56.9088281,81.1961719 56.5164844,80.8038281 C56.1241406,80.4114844 55.8984375,79.8672656 55.8984375,79.3125 C55.8984375,78.7577344 56.1239297,78.2135156 56.5164844,77.8211719 C56.9088281,77.4288281 57.4530469,77.203125 58.0078125,77.203125 Z M49.7110078,77.203125 C50.8758047,77.203125 51.8203828,78.1474922 51.8203828,79.3125 C51.8203828,80.4775078 50.8760156,81.421875 49.7110078,81.421875 L49.7110078,81.421875 L13.5,81.421875 C12.3352031,81.421875 11.390625,80.4775078 11.390625,79.3125 C11.390625,78.1474922 12.3352031,77.203125 13.5,77.203125 L13.5,77.203125 Z M58.0078125,65.390625 C59.1726094,65.390625 60.1171875,66.3349922 60.1171875,67.5 C60.1171875,68.6650078 59.1728203,69.609375 58.0078125,69.609375 L58.0078125,69.609375 L13.5,69.609375 C12.3352031,69.609375 11.390625,68.6650078 11.390625,67.5 C11.390625,66.3349922 12.3352031,65.390625 13.5,65.390625 L13.5,65.390625 Z M77.3412891,0 C94.2464531,0 108,13.7535469 108,30.6589219 C108,35.5560469 106.879289,40.2365391 104.668453,44.5704609 C102.721922,48.3863203 99.9483047,51.8020312 96.609375,54.5060391 L96.609375,54.5060391 L96.609375,66.7100391 C96.609375,67.5630703 96.0955313,68.3321484 95.3074688,68.6586797 C95.0465391,68.7668906 94.7723203,68.8194141 94.5004219,68.8194141 C93.9515625,68.8194141 93.4124063,68.6051016 93.0088828,68.202 L93.0088828,68.202 L85.1225625,60.3201094 C82.5913125,60.9824531 79.9796953,61.3176328 77.3410781,61.3176328 L77.3410781,61.3176328 L72.0024609,61.3176328 C55.0972969,61.3176328 41.34375,47.5642969 41.34375,30.6589219 C41.34375,13.7535469 55.0972969,0 72.0026719,0 L72.0026719,0 Z M77.3412891,4.21875 L72.0026719,4.21875 C57.4235156,4.21875 45.5625,16.0797656 45.5625,30.6589219 C45.5625,45.2380781 57.4233047,57.0990937 72.0026719,57.0990937 L72.0026719,57.0990937 L77.3412891,57.0990937 C79.990875,57.0990937 82.6073438,56.7080156 85.1181328,55.9364062 C85.3218984,55.8737578 85.5307266,55.8431719 85.7374453,55.8431719 C86.2884141,55.8431719 86.8271484,56.0593828 87.2287734,56.4605859 L87.2287734,56.4605859 L92.390625,61.6196953 L92.390625,53.4775078 C92.390625,52.8149531 92.7019688,52.191 93.2307891,51.7925391 C99.9358594,46.7426953 103.78125,39.0396797 103.78125,30.6589219 C103.78125,16.0797656 91.9204453,4.21875 77.3412891,4.21875 L77.3412891,4.21875 Z M44.296875,53.578125 C45.4616719,53.578125 46.40625,54.5224922 46.40625,55.6875 C46.40625,56.8525078 45.4618828,57.796875 44.296875,57.796875 L44.296875,57.796875 L13.5,57.796875 C12.3352031,57.796875 11.390625,56.8525078 11.390625,55.6875 C11.390625,54.5224922 12.3352031,53.578125 13.5,53.578125 L13.5,53.578125 Z M75.2625,43.5227344 C75.8172656,43.5227344 76.3614844,43.7484375 76.7538281,44.1407813 C77.1459609,44.533125 77.371875,45.0773438 77.371875,45.6321094 C77.371875,46.1889844 77.1461719,46.7310938 76.7538281,47.1255469 C76.3614844,47.5178906 75.8172656,47.7414844 75.2625,47.7414844 C74.7077344,47.7414844 74.1635156,47.5178906 73.7711719,47.1255469 C73.3790391,46.7332031 73.153125,46.1889844 73.153125,45.6321094 C73.153125,45.0773438 73.3788281,44.533125 73.7711719,44.1407813 C74.1635156,43.7484375 74.7077344,43.5227344 75.2625,43.5227344 Z M69.1695703,17.1804375 C70.9981875,15.4733203 73.3872656,14.6289375 75.8906719,14.8008516 C80.3068594,15.1052344 83.8666406,18.6650156 84.1710234,23.0809922 C84.4737187,27.4729219 81.6220547,31.3621875 77.3716641,32.3890312 L77.3716641,32.3890312 L77.3716641,37.2882656 C77.371875,38.4532734 76.4275078,39.3976406 75.2625,39.3976406 C74.0977031,39.3976406 73.153125,38.4532734 73.153125,37.2882656 L73.153125,37.2882656 L73.153125,32.2204922 C73.153125,30.331125 74.4461719,28.7220937 76.2977813,28.3078125 C78.5830781,27.7965 80.1243984,25.7204531 79.9623984,23.3712422 C79.8020859,21.0452344 77.9270625,19.1702109 75.6008438,19.0098984 C74.2740469,18.9183516 73.0130625,19.3640625 72.0482344,20.2645547 C71.0825625,21.1658906 70.5505781,22.3895391 70.5505781,23.7097969 C70.5505781,24.8748047 69.606,25.8191719 68.4412031,25.8191719 C67.2764063,25.8191719 66.3318281,24.8748047 66.3318281,23.7097969 C66.3318281,21.2437266 67.3660547,18.8639297 69.1695703,17.1804375 Z"></path>
                </g>
            </g>
        </g>
    </g>
</svg>