<svg width="48" height="55" fill="none" xmlns="http://www.w3.org/2000/svg"><mask id="a" maskUnits="userSpaceOnUse" x="0" y="0" width="48" height="55"><path fill-rule="evenodd" clip-rule="evenodd" d="M8.205 8.12C3.235 13.1 0 19.916 0 27.5s3.234 14.401 8.205 19.38c5.05 5.056 12.15 8.12 19.883 8.12 7.786 0 14.79-3.044 19.912-8.07l-4.841-4.735c-3.924 3.772-9.333 6.098-15.073 6.098a21.32 21.32 0 0 1-14.959-6.148C9.284 38.422 6.86 33.245 6.86 27.5c0-5.744 2.424-10.922 6.267-14.643a21.318 21.318 0 0 1 14.959-6.15c5.74 0 11.149 2.326 15.073 6.099L48 8.072C42.877 3.122 35.874 0 28.088 0 20.356 0 13.255 3.14 8.205 8.12z" fill="#fff"/></mask><g mask="url(#a)"><path fill-rule="evenodd" clip-rule="evenodd" d="M-1.613 56.581h51.226V-1.581H-1.613V56.58z" fill="#FC3031"/></g><mask id="b" maskUnits="userSpaceOnUse" x="13" y="12" width="31" height="31"><path fill-rule="evenodd" clip-rule="evenodd" d="M17.603 17.263c-2.656 2.67-4.383 6.325-4.383 10.39 0 4.067 1.727 7.722 4.383 10.392 2.697 2.71 6.49 4.353 10.62 4.353 4.172 0 7.922-1.642 10.66-4.353 2.655-2.67 4.383-6.325 4.383-10.391s-1.728-7.721-4.383-10.39c-2.739-2.67-6.488-4.354-10.66-4.354a15.13 15.13 0 0 0-10.62 4.353zm4.754 16.16c-1.508-1.466-2.46-3.507-2.46-5.77 0-2.262.952-4.302 2.46-5.768a8.349 8.349 0 0 1 5.87-2.422c2.263 0 4.395.924 5.936 2.422 1.476 1.466 2.427 3.474 2.427 5.768 0 2.296-.95 4.304-2.427 5.77a8.562 8.562 0 0 1-5.935 2.422 8.344 8.344 0 0 1-5.87-2.423z" fill="#fff"/></mask><g mask="url(#b)"><path fill-rule="evenodd" clip-rule="evenodd" d="M11.608 43.98h33.27V11.328h-33.27v32.65z" fill="#0EE0B4"/></g></svg>