<svg width="50" height="39" viewBox="0 0 50 39" xmlns="http://www.w3.org/2000/svg" xmlns:xlink="http://www.w3.org/1999/xlink"><defs><path id="a" d="M0 .591h49.45V39H0z"/></defs><g fill="none" fill-rule="evenodd"><g transform="translate(0 -.59)"><mask id="b" fill="#fff"><use xlink:href="#a"/></mask><path d="M47.45 33.222c0 3.374-3.599 3.763-3.748 3.776L5.786 37c-1.271 0-2.25-.367-2.907-1.093-.929-1.018-.89-2.402-.87-2.733V14.16c0-3.934 3.978-4.151 4.115-4.158l7.54-.056a1 1 0 0 0 .986-.943c.35-6.025 3.333-6.396 3.42-6.406l.07-.006h12.005c3.817 0 4.558 4.927 4.695 6.437a1 1 0 0 0 .996.91h7.858c3.447 0 3.743 3.584 3.756 3.756v19.528zm2-19.571l-.007-.12c-.139-1.935-1.518-5.593-5.75-5.593h-6.971C36.161 4.235 34.191.59 30.143.59L18.081.593l-.171.01c-.471.049-4.454.65-5.18 7.353l-6.66.047C3.632 8.109.007 9.833.007 14.16L.01 33.11c-.038.574-.046 2.569 1.387 4.142C2.45 38.412 3.926 39 5.787 39h37.945c.032 0 .127-.007.16-.01 1.922-.187 5.558-1.633 5.558-5.768V13.65z" fill="#CCC" mask="url(#b)"/></g><path d="M24.726 30.477c-4.985 0-9.041-4.056-9.041-9.04 0-4.986 4.056-9.042 9.04-9.042 4.986 0 9.042 4.056 9.042 9.041s-4.056 9.04-9.041 9.04m0-20.08c-6.088 0-11.041 4.953-11.041 11.04 0 6.088 4.953 11.04 11.04 11.04 6.089 0 11.042-4.951 11.042-11.04 0-6.087-4.953-11.04-11.041-11.04m16.437 2.789a3.05 3.05 0 0 0-3.047 3.045 3.05 3.05 0 0 0 3.047 3.047 3.05 3.05 0 0 0 3.046-3.047 3.05 3.05 0 0 0-3.046-3.045" fill="#CCC"/><path d="M24.758 14.26a7.044 7.044 0 0 0-5.172 2.037 6.916 6.916 0 0 0-2.036 5.173 1 1 0 0 0 .998.967l.034-.001a1 1 0 0 0 .966-1.032A4.941 4.941 0 0 1 21 17.71a4.94 4.94 0 0 1 3.524-1.455c.067 0 .132.003.203.003a1 1 0 0 0 .031-2" fill="#CCC"/></g></svg>