<svg width="52" height="47" fill="none" xmlns="http://www.w3.org/2000/svg"><g clip-path="url(#clip0)"><path d="M48.008 23.932c5.527-5.49 2.795-12.916-1.663-17.679-1.47-1.572-3.143-2.935-4.878-3.899C39.2 1.091 32.112-.754 27.48 3.736l-2.604 2.572.055-.064-2.156-2.136C11.95-6.372-6.532 11.834 4.138 22.432l1.334 1.327 2.211 2.281-1.343 1.346a2.952 2.952 0 0 0 0 4.172l.338.336a2.988 2.988 0 0 0 4.193 0l.54-.536.2.172-.466.464a2.952 2.952 0 0 0 0 4.172l.338.336a2.988 2.988 0 0 0 4.194 0l.767-.764.201.173-.411.41a2.952 2.952 0 0 0 0 4.171l.338.337a2.989 2.989 0 0 0 4.193 0l.713-.71.155.137-.447.445a2.952 2.952 0 0 0 0 4.172l.338.336a2.988 2.988 0 0 0 4.193 0l2.96-2.944a2.95 2.95 0 0 0 .64-3.209l1.662 1.663c2.567 2.573 7.537-1.072 4.412-4.426l.12-.082.611.627c2.54 2.6 7.656-1.2 4.54-4.517l.01-.01c3.234 3.21 6.925-1.762 4.412-4.38l-.356-.364 2.065-2.417 1.215-1.218z" fill="#E1FFE3"/><path d="M14.955 22.841l1.964 3.4 2.814-2.055 2.028.355 1.562 1.7v2.363l-1.79 2.072 3.124.054 1.352 1.7.411 1.909-.996 2.572 2.367.627 1.653 1.918-.383 2.672-4.56 3.954-2.301-.355-1.955-1.845.073-2.38-2.403.108-2.074-1.236-.886-2.627-3.216-.836-1.461-2.036v-2.527l-2.622.191-1.891-1.79-.293-1.5 1.325-2.563 3.755-3.845 2.384-.709 2.019.709zm14.983-10.525l1.763.872 13.228 14.034 4.075-4.408 1.854-3.872.238-4.872-3.481-6.317-4.111-4.063-5.016-2.39-4.312-.327-3.05.545-3.829 2.027-9.693 9.643v1.755l1.764 1.754 4.403-.873 2.65-1.754 2.64-1.754h.877z" fill="#fff"/><path d="M41.403 12.316s.877 5.262-3.993 6.926l-4.823-4.3 2.64-2.626s.886 2.627 6.176 0z" fill="#DEE0E2"/><path d="M33.053 42.52c-.96 0-1.928-.346-2.723-1.146l-3.188-3.2 1.297-1.281 3.189 3.2c.94.944 2.375.672 3.206-.137.338-.327 1.334-1.518-.146-3.063l1.325-1.254c1.964 2.054 1.461 4.299.1 5.626-.804.772-1.928 1.254-3.06 1.254z" fill="#4D535B"/><path d="M47.02 5.645c-1.57-1.682-3.334-3.09-5.106-4.072-2.686-1.5-10.205-3.19-15.083 1.527L24.94 4.972l-1.526-1.509C17.577-2.19 9.528-.109 4.586 4.881-.055 9.562-2.376 17.251 3.49 23.078l2.941 2.927-.749.745a3.854 3.854 0 0 0 0 5.453l.347.337a3.887 3.887 0 0 0 3.362 1.081 3.823 3.823 0 0 0 1.106 3.19l.338.337a3.889 3.889 0 0 0 3.617 1.027c-.009.082-.009.164-.009.245 0 1.036.402 2 1.133 2.727l.338.336c.904.91 2.257 1.291 3.49 1.055a3.84 3.84 0 0 0 1.123 2.99l.338.336a3.877 3.877 0 0 0 2.741 1.127 3.87 3.87 0 0 0 2.74-1.127l2.96-2.945a3.854 3.854 0 0 0 0-5.453l-.337-.336a3.84 3.84 0 0 0-2.23-1.091 3.817 3.817 0 0 0 .604-2.072c0-1.037-.402-2-1.133-2.727l-.338-.336a3.842 3.842 0 0 0-2.22-1.091c.53-.673.822-1.5.822-2.372a3.796 3.796 0 0 0-1.133-2.727l-.338-.336a3.885 3.885 0 0 0-5.481 0l-.503.5a3.847 3.847 0 0 0-1.096-2.173l-.338-.336c-1.507-1.509-3.974-1.5-5.481 0l-2.376 2.363-2.941-2.927c-4.98-4.944-2.914-11.57 1.105-15.633 4.166-4.208 11.036-6.444 16.243-1.39l1.508 1.49-6.432 6.371c-1.105 1.1-1.15 2.482-.118 3.518 1.644 1.654 6.01 2.2 8.678-.418l2.394-2.354c1.197-1.082 2.466-.764 4.623-.118 2.494.754 5.6 1.681 9.016-1l-1.133-1.427c-2.676 2.1-4.951 1.418-7.363.69-2.147-.645-4.357-1.308-6.404.537l-2.42 2.381c-1.91 1.873-5.144 1.4-6.103.436-.229-.227-.384-.463.11-.945l9.628-9.553c4.55-4.399 11.447-2.054 12.909-1.245 1.608.9 3.216 2.182 4.659 3.727 4.047 4.326 6.907 11.216 1.681 16.415l-2.805 2.79L33.336 14.38l-1.325 1.255 12.397 12.924c.96 1 .612 2.51-.247 3.336-.41.391-1.525 1.164-2.905-.263l-6.24-6.408-1.315 1.263.439.446 5.81 5.962c1.489 1.527.447 2.772.091 3.108-.877.846-2.338 1.155-3.261.2l-6.386-6.525-1.306 1.263 6.385 6.526a3.676 3.676 0 0 0 2.695 1.136c1.16 0 2.32-.5 3.152-1.309.813-.782 1.325-1.881 1.243-3.054.11.01.219.018.328.018.978 0 1.882-.418 2.559-1.072 1.47-1.409 2.01-4 .383-5.808l2.841-2.827c5.737-5.69 3.307-13.606-1.653-18.905zM26.238 37.82a2.05 2.05 0 0 1 1.453.591l.338.337c.804.8.804 2.09 0 2.88l-2.96 2.946c-.786.781-2.11.781-2.896 0l-.338-.337a2.033 2.033 0 0 1 0-2.89l2.96-2.945a2.059 2.059 0 0 1 1.443-.582zm-3.097-6.235c.548 0 1.07.21 1.453.591l.338.336c.383.382.594.9.594 1.446a2.03 2.03 0 0 1-.594 1.445l-4.824 4.799c-.767.763-2.128.763-2.905 0l-.338-.337a2.023 2.023 0 0 1 0-2.88l4.824-4.8c.393-.39.904-.6 1.452-.6zm-4.32-5.944c.401-.4.922-.6 1.452-.6.53 0 1.05.2 1.452.6l.338.336c.384.382.594.891.594 1.445a2.03 2.03 0 0 1-.594 1.446l-7.034 6.998c-.786.782-2.11.782-2.896 0l-.338-.336a2.023 2.023 0 0 1 0-2.881l7.025-7.008zm-7.428-2.009c.402-.4.923-.6 1.452-.6.53 0 1.051.2 1.453.6l.338.336c.786.782.786 2.11 0 2.89l-4.412 4.39c-.804.8-2.102.8-2.906 0l-.338-.335a2.022 2.022 0 0 1 0-2.882l4.413-4.399z" fill="#4D535B"/></g><defs><clipPath id="clip0"><path fill="#fff" d="M0 0h52v47H0z"/></clipPath></defs></svg>