<svg width="608" height="414" viewBox="0 0 608 414" fill="none" xmlns="http://www.w3.org/2000/svg">
<g filter="url(#filter0_d)">
<rect x="133" y="36" width="342" height="342" rx="8" fill="white"/>
<rect x="133.5" y="36.5" width="341" height="341" rx="7.5" stroke="#F0F4F7"/>
</g>
<path d="M158.56 122H161.34V117.14H163.56C166.68 117.14 168.76 115.64 168.76 112.52C168.76 109.8 167.26 107.8 163.82 107.8H158.56V122ZM161.34 114.64V110.3H163.32C164.96 110.3 165.84 111.16 165.84 112.46C165.84 113.78 164.96 114.64 163.2 114.64H161.34ZM170.92 122H173.54V107.28H170.92V122ZM182.668 112.24V116.98C182.668 118.86 181.648 119.82 180.508 119.82C179.288 119.82 178.748 119.22 178.748 117.42V112.24H176.148V118.12C176.148 121.1 177.628 122.16 179.728 122.16C180.828 122.16 181.888 121.7 182.628 120.8H182.668V122H185.288V112.24H182.668ZM191.011 122.16C193.571 122.16 194.811 120.86 194.811 119.12C194.811 117.2 193.571 116.74 191.451 115.96C190.491 115.6 189.971 115.32 189.971 114.92C189.971 114.4 190.511 114.18 190.931 114.18C191.651 114.18 192.511 114.5 193.271 115.22L194.531 113.3C193.431 112.44 192.331 112.08 190.971 112.08C188.971 112.08 187.451 113.24 187.451 115C187.451 116.88 188.851 117.64 190.451 118.18C191.731 118.58 192.231 118.8 192.231 119.26C192.231 119.74 191.791 120.06 191.031 120.06C189.971 120.06 189.131 119.68 188.331 118.92L187.051 120.74C188.131 121.66 189.451 122.16 191.011 122.16Z" fill="#E8ECF0"/>
<path d="M133.5 44C133.5 39.8579 136.858 36.5 141 36.5H467C471.142 36.5 474.5 39.8579 474.5 44V75.5H133.5V44Z" fill="white" stroke="#F0F4F7"/>
<rect x="431.5" y="46.5" width="19" height="19" rx="2.54094" stroke="#F0F4F7"/>
<path d="M157.083 51.2057C157.686 54.8798 160.999 57.6896 164.997 57.6896C168.953 57.6896 172.24 54.9364 172.891 51.317C172.974 50.9771 173.009 50.7057 172.998 50.4732C172.998 50.2068 172.799 50 172.524 50H172.076H157.992H157.476C157.201 50 157.002 50.2065 157.002 50.4726C157.001 50.4726 157.001 50.4726 157 50.4725C157 50.4785 157.001 50.4844 157.001 50.4904C156.994 50.6929 157.02 50.925 157.083 51.2057H157.083Z" fill="#2D81F7"/>
<path d="M168.929 62.3972C168.627 60.5601 166.971 59.1552 164.972 59.1552C162.994 59.1552 161.35 60.5318 161.025 62.3415C160.983 62.5114 160.966 62.6471 160.971 62.7634C160.971 62.8966 161.071 63 161.208 63H161.432H168.474H168.732C168.87 63 168.969 62.8968 168.969 62.7637C168.97 62.7637 168.97 62.7637 168.97 62.7637C168.97 62.7608 168.97 62.7578 168.97 62.7548C168.973 62.6535 168.96 62.5375 168.929 62.3972Z" fill="#08BD80"/>
<g filter="url(#filter1_d)">
<rect x="40" y="154" width="160" height="184" rx="8" fill="white"/>
</g>
<rect x="52" y="280" width="136" height="8" fill="#F6F8FA"/>
<rect x="52" y="292" width="90" height="8" fill="#F6F8FA"/>
<rect x="52" y="314" width="43" height="4" fill="#EBEDEE"/>
<rect x="52" y="322" width="66" height="4" fill="#EBEDEE"/>
<rect x="52" y="256" width="43" height="16" fill="#D5E6FD"/>
<path d="M40 162C40 157.582 43.5817 154 48 154H192C196.418 154 200 157.582 200 162V244H40V162Z" fill="#FFC370"/>
<rect x="164" y="166" width="24" height="24" rx="4" fill="white"/>
<path d="M170.625 174.25H182.292C182.457 174.25 182.616 174.184 182.734 174.067C182.851 173.95 182.917 173.791 182.917 173.625C182.917 173.459 182.851 173.3 182.734 173.183C182.616 173.066 182.457 173 182.292 173H170.625C170.459 173 170.3 173.066 170.183 173.183C170.066 173.3 170 173.459 170 173.625C170 173.791 170.066 173.95 170.183 174.067C170.3 174.184 170.459 174.25 170.625 174.25Z" fill="#FF8017"/>
<path d="M175.208 181.332H170.625C170.459 181.332 170.3 181.398 170.183 181.515C170.066 181.632 170 181.791 170 181.957C170 182.123 170.066 182.282 170.183 182.399C170.3 182.516 170.459 182.582 170.625 182.582H175.208C175.374 182.582 175.533 182.516 175.65 182.399C175.767 182.282 175.833 182.123 175.833 181.957C175.833 181.791 175.767 181.632 175.65 181.515C175.533 181.398 175.374 181.332 175.208 181.332Z" fill="#FF8017"/>
<path d="M175.208 177.168H170.625C170.459 177.168 170.3 177.234 170.183 177.351C170.066 177.468 170 177.627 170 177.793C170 177.959 170.066 178.118 170.183 178.235C170.3 178.352 170.459 178.418 170.625 178.418H175.208C175.374 178.418 175.533 178.352 175.65 178.235C175.767 178.118 175.833 177.959 175.833 177.793C175.833 177.627 175.767 177.468 175.65 177.351C175.533 177.234 175.374 177.168 175.208 177.168Z" fill="#FF8017"/>
<path d="M182.292 179.174H180.759V177.633C180.759 177.467 180.693 177.308 180.576 177.191C180.459 177.074 180.3 177.008 180.134 177.008C179.968 177.008 179.809 177.074 179.692 177.191C179.575 177.308 179.509 177.467 179.509 177.633V179.174H177.967C177.802 179.174 177.643 179.24 177.525 179.358C177.408 179.475 177.342 179.634 177.342 179.799C177.342 179.965 177.408 180.124 177.525 180.241C177.643 180.359 177.802 180.424 177.967 180.424H179.509V181.958C179.509 182.124 179.575 182.283 179.692 182.4C179.809 182.517 179.968 182.583 180.134 182.583C180.3 182.583 180.459 182.517 180.576 182.4C180.693 182.283 180.759 182.124 180.759 181.958V180.424H182.292C182.458 180.424 182.617 180.359 182.734 180.241C182.851 180.124 182.917 179.965 182.917 179.799C182.917 179.634 182.851 179.475 182.734 179.358C182.617 179.24 182.458 179.174 182.292 179.174Z" fill="#FF8017"/>
<g style="mix-blend-mode:multiply" opacity="0.8">
<ellipse cx="119.999" cy="188.359" rx="14.4451" ry="14.359" fill="#FFC370"/>
<path d="M120 206.309C97.9011 206.309 79.6657 222.752 77 244.001H163C160.334 222.752 142.099 206.309 120 206.309Z" fill="#FFC370"/>
</g>
<path d="M131.042 229.603C131.343 231.44 133 232.845 134.998 232.845C136.977 232.845 138.62 231.468 138.945 229.658C138.987 229.489 139.004 229.353 138.999 229.237C138.999 229.103 138.9 229 138.762 229H138.538H131.496H131.238C131.1 229 131.001 229.103 131.001 229.236C131.001 229.236 131 229.236 131 229.236C131 229.239 131 229.242 131.001 229.245C130.997 229.346 131.01 229.463 131.042 229.603H131.042Z" fill="#FFC370"/>
<path d="M136.967 235.199C136.816 234.28 135.987 233.578 134.988 233.578C133.999 233.578 133.177 234.266 133.015 235.171C132.994 235.256 132.985 235.324 132.988 235.382C132.988 235.448 133.037 235.5 133.106 235.5H133.218H136.739H136.868C136.937 235.5 136.987 235.448 136.987 235.382C136.987 235.382 136.987 235.382 136.987 235.382C136.987 235.38 136.987 235.379 136.987 235.377C136.989 235.327 136.982 235.269 136.967 235.199Z" fill="#FFC370"/>
<path d="M56.9521 267H60.7521V266H58.0561V264.68H60.0801V263.688H58.0561V262.328H60.5841V261.32H56.9521V267ZM65.413 261.32V265.16H65.405L62.869 261.32H61.749V267H62.869V263.232H62.885L65.389 267H66.541V261.32H65.413ZM70.4601 267.056C71.3321 267.056 72.1801 266.768 72.6921 266.352V263.904H70.3321V264.864H71.6121V265.704C71.2441 265.928 70.8681 266.024 70.4601 266.024C69.3881 266.024 68.7321 265.208 68.7321 264.168C68.7321 263.008 69.4761 262.312 70.4121 262.312C71.0361 262.312 71.5161 262.56 71.8681 262.896L72.6681 262.224C72.0841 261.56 71.2121 261.248 70.4121 261.248C68.6361 261.248 67.5561 262.504 67.5561 264.168C67.5561 265.992 68.8201 267.056 70.4601 267.056ZM73.8115 267H77.4675V266H74.9395V261.32H73.8115V267ZM78.3828 267H79.5108V261.32H78.3828V267ZM82.5079 267.064C83.4359 267.064 84.5159 266.56 84.5159 265.32C84.5159 264.224 83.7399 263.968 82.7559 263.584C82.1079 263.328 81.7959 263.176 81.8039 262.824C81.8039 262.464 82.0919 262.256 82.4839 262.256C82.8359 262.256 83.2519 262.424 83.7239 262.816L84.3719 261.968C83.8199 261.504 83.1639 261.24 82.4599 261.248C81.4359 261.264 80.6359 261.96 80.6359 262.872C80.6359 263.944 81.4919 264.344 82.3479 264.648C83.0359 264.88 83.3399 265.032 83.3399 265.448C83.3399 265.8 83.0679 266.048 82.5239 266.048C82.0759 266.048 81.5319 265.832 81.1079 265.336L80.4359 266.168C81.0279 266.784 81.7719 267.064 82.5079 267.064ZM85.4678 267H86.5958V264.784H88.9238V267H90.0518V261.32H88.9238V263.776H86.5958V261.32H85.4678V267Z" fill="#2D81F7"/>
<g filter="url(#filter2_d)">
<rect x="224" y="154" width="160" height="184" rx="8" fill="white"/>
</g>
<rect x="236" y="280" width="136" height="8" fill="#F6F8FA"/>
<rect x="236" y="292" width="90" height="8" fill="#F6F8FA"/>
<rect x="236" y="314" width="43" height="4" fill="#EBEDEE"/>
<rect x="236" y="322" width="66" height="4" fill="#EBEDEE"/>
<rect x="236" y="256" width="43" height="16" fill="#D5E6FD"/>
<path d="M224 162C224 157.582 227.582 154 232 154H376C380.418 154 384 157.582 384 162V244H224V162Z" fill="#1BD697"/>
<rect x="348" y="166" width="24" height="24" rx="4" fill="white"/>
<path d="M354.625 174.25H366.292C366.457 174.25 366.616 174.184 366.734 174.067C366.851 173.95 366.917 173.791 366.917 173.625C366.917 173.459 366.851 173.3 366.734 173.183C366.616 173.066 366.457 173 366.292 173H354.625C354.459 173 354.3 173.066 354.183 173.183C354.066 173.3 354 173.459 354 173.625C354 173.791 354.066 173.95 354.183 174.067C354.3 174.184 354.459 174.25 354.625 174.25Z" fill="#08BB67"/>
<path d="M359.208 181.332H354.625C354.459 181.332 354.3 181.398 354.183 181.515C354.066 181.632 354 181.791 354 181.957C354 182.123 354.066 182.282 354.183 182.399C354.3 182.516 354.459 182.582 354.625 182.582H359.208C359.374 182.582 359.533 182.516 359.65 182.399C359.767 182.282 359.833 182.123 359.833 181.957C359.833 181.791 359.767 181.632 359.65 181.515C359.533 181.398 359.374 181.332 359.208 181.332Z" fill="#08BB67"/>
<path d="M359.208 177.168H354.625C354.459 177.168 354.3 177.234 354.183 177.351C354.066 177.468 354 177.627 354 177.793C354 177.959 354.066 178.118 354.183 178.235C354.3 178.352 354.459 178.418 354.625 178.418H359.208C359.374 178.418 359.533 178.352 359.65 178.235C359.767 178.118 359.833 177.959 359.833 177.793C359.833 177.627 359.767 177.468 359.65 177.351C359.533 177.234 359.374 177.168 359.208 177.168Z" fill="#08BB67"/>
<path d="M366.292 179.174H364.759V177.633C364.759 177.467 364.693 177.308 364.576 177.191C364.459 177.074 364.3 177.008 364.134 177.008C363.968 177.008 363.809 177.074 363.692 177.191C363.575 177.308 363.509 177.467 363.509 177.633V179.174H361.967C361.802 179.174 361.643 179.24 361.525 179.358C361.408 179.475 361.342 179.634 361.342 179.799C361.342 179.965 361.408 180.124 361.525 180.241C361.643 180.359 361.802 180.424 361.967 180.424H363.509V181.958C363.509 182.124 363.575 182.283 363.692 182.4C363.809 182.517 363.968 182.583 364.134 182.583C364.3 182.583 364.459 182.517 364.576 182.4C364.693 182.283 364.759 182.124 364.759 181.958V180.424H366.292C366.458 180.424 366.617 180.359 366.734 180.241C366.851 180.124 366.917 179.965 366.917 179.799C366.917 179.634 366.851 179.475 366.734 179.358C366.617 179.24 366.458 179.174 366.292 179.174Z" fill="#08BB67"/>
<g style="mix-blend-mode:multiply" opacity="0.8">
<ellipse cx="303.999" cy="188.359" rx="14.4451" ry="14.359" fill="#20D799"/>
<path d="M304 206.309C281.901 206.309 263.666 222.752 261 244.001H347C344.334 222.752 326.099 206.309 304 206.309Z" fill="#20D799"/>
</g>
<path d="M315.042 229.603C315.343 231.44 317 232.845 318.998 232.845C320.977 232.845 322.62 231.468 322.945 229.658C322.987 229.489 323.004 229.353 322.999 229.237C322.999 229.103 322.9 229 322.762 229H322.538H315.496H315.238C315.1 229 315.001 229.103 315.001 229.236C315.001 229.236 315 229.236 315 229.236C315 229.239 315 229.242 315.001 229.245C314.997 229.346 315.01 229.463 315.042 229.603H315.042Z" fill="#1BD697"/>
<path d="M320.967 235.199C320.816 234.28 319.987 233.578 318.988 233.578C317.999 233.578 317.177 234.266 317.015 235.171C316.994 235.256 316.985 235.324 316.988 235.382C316.988 235.448 317.037 235.5 317.106 235.5H317.218H320.739H320.868C320.937 235.5 320.987 235.448 320.987 235.382C320.987 235.382 320.987 235.382 320.987 235.382C320.987 235.38 320.987 235.379 320.987 235.377C320.989 235.327 320.982 235.269 320.967 235.199Z" fill="#1BD697"/>
<path d="M246.815 267H247.943V264.784H250.271V267H251.399V261.32H250.271V263.776H247.943V261.32H246.815V267ZM252.684 267H253.812V261.32H252.684V267ZM258.761 261.32V265.16H258.753L256.217 261.32H255.097V267H256.217V263.232H256.233L258.737 267H259.889V261.32H258.761ZM261.136 267H263.04C264.864 267 265.968 265.84 265.968 264.168C265.968 262.488 264.816 261.32 263.016 261.32H261.136V267ZM262.248 266V262.328H263.04C264.064 262.328 264.8 263.104 264.8 264.168C264.8 265.208 264.072 266 262.968 266H262.248ZM267.019 267H268.147V261.32H267.019V267Z" fill="#2D81F7"/>
<g filter="url(#filter3_d)">
<rect x="408" y="154" width="160" height="184" rx="8" fill="white"/>
</g>
<rect x="420" y="280" width="136" height="8" fill="#F6F8FA"/>
<rect x="420" y="292" width="90" height="8" fill="#F6F8FA"/>
<rect x="420" y="314" width="43" height="4" fill="#EBEDEE"/>
<rect x="420" y="322" width="66" height="4" fill="#EBEDEE"/>
<rect x="420" y="256" width="43" height="16" fill="#D5E6FD"/>
<path d="M408 162C408 157.582 411.582 154 416 154H560C564.418 154 568 157.582 568 162V244H408V162Z" fill="#FFA1A1"/>
<rect x="532" y="166" width="24" height="24" rx="4" fill="white"/>
<path d="M538.625 174.25H550.292C550.457 174.25 550.616 174.184 550.734 174.067C550.851 173.95 550.917 173.791 550.917 173.625C550.917 173.459 550.851 173.3 550.734 173.183C550.616 173.066 550.457 173 550.292 173H538.625C538.459 173 538.3 173.066 538.183 173.183C538.066 173.3 538 173.459 538 173.625C538 173.791 538.066 173.95 538.183 174.067C538.3 174.184 538.459 174.25 538.625 174.25Z" fill="#FF7272"/>
<path d="M543.208 181.332H538.625C538.459 181.332 538.3 181.398 538.183 181.515C538.066 181.632 538 181.791 538 181.957C538 182.123 538.066 182.282 538.183 182.399C538.3 182.516 538.459 182.582 538.625 182.582H543.208C543.374 182.582 543.533 182.516 543.65 182.399C543.767 182.282 543.833 182.123 543.833 181.957C543.833 181.791 543.767 181.632 543.65 181.515C543.533 181.398 543.374 181.332 543.208 181.332Z" fill="#FF7272"/>
<path d="M543.208 177.168H538.625C538.459 177.168 538.3 177.234 538.183 177.351C538.066 177.468 538 177.627 538 177.793C538 177.959 538.066 178.118 538.183 178.235C538.3 178.352 538.459 178.418 538.625 178.418H543.208C543.374 178.418 543.533 178.352 543.65 178.235C543.767 178.118 543.833 177.959 543.833 177.793C543.833 177.627 543.767 177.468 543.65 177.351C543.533 177.234 543.374 177.168 543.208 177.168Z" fill="#FF7272"/>
<path d="M550.292 179.174H548.759V177.633C548.759 177.467 548.693 177.308 548.576 177.191C548.459 177.074 548.3 177.008 548.134 177.008C547.968 177.008 547.809 177.074 547.692 177.191C547.575 177.308 547.509 177.467 547.509 177.633V179.174H545.967C545.802 179.174 545.643 179.24 545.525 179.358C545.408 179.475 545.342 179.634 545.342 179.799C545.342 179.965 545.408 180.124 545.525 180.241C545.643 180.359 545.802 180.424 545.967 180.424H547.509V181.958C547.509 182.124 547.575 182.283 547.692 182.4C547.809 182.517 547.968 182.583 548.134 182.583C548.3 182.583 548.459 182.517 548.576 182.4C548.693 182.283 548.759 182.124 548.759 181.958V180.424H550.292C550.458 180.424 550.617 180.359 550.734 180.241C550.851 180.124 550.917 179.965 550.917 179.799C550.917 179.634 550.851 179.475 550.734 179.358C550.617 179.24 550.458 179.174 550.292 179.174Z" fill="#FF7272"/>
<g style="mix-blend-mode:multiply" opacity="0.8">
<ellipse cx="487.999" cy="188.359" rx="14.4451" ry="14.359" fill="#FFA1A1"/>
<path d="M488 206.309C465.901 206.309 447.666 222.752 445 244.001H531C528.334 222.752 510.099 206.309 488 206.309Z" fill="#FFA1A1"/>
</g>
<path d="M499.042 229.603C499.343 231.44 501 232.845 502.998 232.845C504.977 232.845 506.62 231.468 506.945 229.658C506.987 229.489 507.004 229.353 506.999 229.237C506.999 229.103 506.9 229 506.762 229H506.538H499.496H499.238C499.1 229 499.001 229.103 499.001 229.236C499.001 229.236 499 229.236 499 229.236C499 229.239 499 229.242 499.001 229.245C498.997 229.346 499.01 229.463 499.042 229.603H499.042Z" fill="#FFA1A1"/>
<path d="M504.967 235.199C504.816 234.28 503.987 233.578 502.988 233.578C501.999 233.578 501.177 234.266 501.015 235.171C500.994 235.256 500.985 235.324 500.988 235.382C500.988 235.448 501.037 235.5 501.106 235.5H501.218H504.739H504.868C504.937 235.5 504.987 235.448 504.987 235.382C504.987 235.382 504.987 235.382 504.987 235.382C504.987 235.38 504.987 235.379 504.987 235.377C504.989 235.327 504.982 235.269 504.967 235.199Z" fill="#FFA1A1"/>
<path d="M430.882 267.5H432.002V262.828H433.578V261.82H429.314V262.828H430.882V267.5ZM437.62 267.5H438.796L436.676 261.82H435.596L433.492 267.5H434.668L435.052 266.364H437.236L437.62 267.5ZM435.38 265.404L436.132 263.172H436.148L436.908 265.404H435.38ZM444.182 261.82L442.446 265.052H442.43L440.686 261.82H439.55V267.5H440.67V263.972H440.686L442.07 266.42H442.798L444.182 263.972H444.198V267.5H445.31V261.82H444.182ZM446.598 267.5H447.726V261.82H446.598V267.5ZM449.011 267.5H452.667V266.5H450.139V261.82H449.011V267.5Z" fill="#2D81F7"/>
<defs>
<filter id="filter0_d" x="97" y="0" width="414" height="414" filterUnits="userSpaceOnUse" color-interpolation-filters="sRGB">
<feFlood flood-opacity="0" result="BackgroundImageFix"/>
<feColorMatrix in="SourceAlpha" type="matrix" values="0 0 0 0 0 0 0 0 0 0 0 0 0 0 0 0 0 0 127 0"/>
<feOffset/>
<feGaussianBlur stdDeviation="18"/>
<feColorMatrix type="matrix" values="0 0 0 0 0.941176 0 0 0 0 0.956863 0 0 0 0 0.968627 0 0 0 1 0"/>
<feBlend mode="normal" in2="BackgroundImageFix" result="effect1_dropShadow"/>
<feBlend mode="normal" in="SourceGraphic" in2="effect1_dropShadow" result="shape"/>
</filter>
<filter id="filter1_d" x="3.70149" y="135.851" width="232.597" height="256.597" filterUnits="userSpaceOnUse" color-interpolation-filters="sRGB">
<feFlood flood-opacity="0" result="BackgroundImageFix"/>
<feColorMatrix in="SourceAlpha" type="matrix" values="0 0 0 0 0 0 0 0 0 0 0 0 0 0 0 0 0 0 127 0"/>
<feOffset dy="18.1493"/>
<feGaussianBlur stdDeviation="18.1493"/>
<feColorMatrix type="matrix" values="0 0 0 0 0.941176 0 0 0 0 0.956863 0 0 0 0 0.968627 0 0 0 1 0"/>
<feBlend mode="normal" in2="BackgroundImageFix" result="effect1_dropShadow"/>
<feBlend mode="normal" in="SourceGraphic" in2="effect1_dropShadow" result="shape"/>
</filter>
<filter id="filter2_d" x="187.701" y="135.851" width="232.597" height="256.597" filterUnits="userSpaceOnUse" color-interpolation-filters="sRGB">
<feFlood flood-opacity="0" result="BackgroundImageFix"/>
<feColorMatrix in="SourceAlpha" type="matrix" values="0 0 0 0 0 0 0 0 0 0 0 0 0 0 0 0 0 0 127 0"/>
<feOffset dy="18.1493"/>
<feGaussianBlur stdDeviation="18.1493"/>
<feColorMatrix type="matrix" values="0 0 0 0 0.941176 0 0 0 0 0.956863 0 0 0 0 0.968627 0 0 0 1 0"/>
<feBlend mode="normal" in2="BackgroundImageFix" result="effect1_dropShadow"/>
<feBlend mode="normal" in="SourceGraphic" in2="effect1_dropShadow" result="shape"/>
</filter>
<filter id="filter3_d" x="371.701" y="135.851" width="232.597" height="256.597" filterUnits="userSpaceOnUse" color-interpolation-filters="sRGB">
<feFlood flood-opacity="0" result="BackgroundImageFix"/>
<feColorMatrix in="SourceAlpha" type="matrix" values="0 0 0 0 0 0 0 0 0 0 0 0 0 0 0 0 0 0 127 0"/>
<feOffset dy="18.1493"/>
<feGaussianBlur stdDeviation="18.1493"/>
<feColorMatrix type="matrix" values="0 0 0 0 0.941176 0 0 0 0 0.956863 0 0 0 0 0.968627 0 0 0 1 0"/>
<feBlend mode="normal" in2="BackgroundImageFix" result="effect1_dropShadow"/>
<feBlend mode="normal" in="SourceGraphic" in2="effect1_dropShadow" result="shape"/>
</filter>
</defs>
</svg>
